<?xml version="1.0" encoding="utf-8" standalone="no"?>
<!DOCTYPE svg PUBLIC "-//W3C//DTD SVG 1.1//EN"
  "http://www.w3.org/Graphics/SVG/1.1/DTD/svg11.dtd">
<svg xmlns:xlink="http://www.w3.org/1999/xlink" width="540.346094pt" height="474.799219pt" viewBox="0 0 540.346094 474.799219" xmlns="http://www.w3.org/2000/svg" version="1.1">
 <metadata>
  <rdf:RDF xmlns:dc="http://purl.org/dc/elements/1.1/" xmlns:cc="http://creativecommons.org/ns#" xmlns:rdf="http://www.w3.org/1999/02/22-rdf-syntax-ns#">
   <cc:Work>
    <dc:type rdf:resource="http://purl.org/dc/dcmitype/StillImage"/>
    <dc:date>2026-06-25T02:57:15.515334</dc:date>
    <dc:format>image/svg+xml</dc:format>
    <dc:creator>
     <cc:Agent>
      <dc:title>Matplotlib v3.11.0, https://matplotlib.org/</dc:title>
     </cc:Agent>
    </dc:creator>
   </cc:Work>
  </rdf:RDF>
 </metadata>
 <defs>
  <style type="text/css">*{stroke-linejoin: round; stroke-linecap: butt}</style>
 </defs>
 <g id="figure_1">
  <g id="patch_1">
   <path d="M 0 474.799219 
L 540.346094 474.799219 
L 540.346094 0 
L 0 0 
z
" style="fill: #ffffff"/>
  </g>
  <g id="axes_1">
   <g id="patch_2">
    <path d="M 58.846094 436.598437 
L 533.146094 436.598437 
L 533.146094 20.798437 
L 58.846094 20.798437 
z
" style="fill: #faf8f2"/>
   </g>
   <g id="matplotlib.axis_1">
    <g id="xtick_1">
     <g id="line2d_1">
      <path d="M 71.931118 436.598437 
L 71.931118 20.798437 
" clip-path="url(#p786f0af95c)" style="fill: none; stroke: #eceadf; stroke-width: 0.3; stroke-linecap: square"/>
     </g>
     <g id="line2d_2">
      <defs>
       <path id="mf72eaae823" d="M 0 0 
L 0 3.5 
" style="stroke: #000000; stroke-width: 0.8"/>
      </defs>
      <g>
       <use xlink:href="#mf72eaae823" x="71.931118" y="436.598437" style="stroke: #000000; stroke-width: 0.8"/>
      </g>
     </g>
     <g id="text_1">
      <!-- −0.10 -->
      <g transform="translate(56.608462 451.196094) scale(0.1 -0.1)">
       <defs>
        <path id="DejaVuSans-c9c" d="M 678 2272 
L 4684 2272 
L 4684 1741 
L 678 1741 
L 678 2272 
z
" transform="scale(0.015625)"/>
        <path id="DejaVuSans-13" d="M 2034 4250 
Q 1547 4250 1301 3770 
Q 1056 3291 1056 2328 
Q 1056 1369 1301 889 
Q 1547 409 2034 409 
Q 2525 409 2770 889 
Q 3016 1369 3016 2328 
Q 3016 3291 2770 3770 
Q 2525 4250 2034 4250 
z
M 2034 4750 
Q 2819 4750 3233 4129 
Q 3647 3509 3647 2328 
Q 3647 1150 3233 529 
Q 2819 -91 2034 -91 
Q 1250 -91 836 529 
Q 422 1150 422 2328 
Q 422 3509 836 4129 
Q 1250 4750 2034 4750 
z
" transform="scale(0.015625)"/>
        <path id="DejaVuSans-11" d="M 684 794 
L 1344 794 
L 1344 0 
L 684 0 
L 684 794 
z
" transform="scale(0.015625)"/>
        <path id="DejaVuSans-14" d="M 794 531 
L 1825 531 
L 1825 4091 
L 703 3866 
L 703 4441 
L 1819 4666 
L 2450 4666 
L 2450 531 
L 3481 531 
L 3481 0 
L 794 0 
L 794 531 
z
" transform="scale(0.015625)"/>
       </defs>
       <use xlink:href="#DejaVuSans-c9c"/>
       <use xlink:href="#DejaVuSans-13" transform="translate(83.796875 0)"/>
       <use xlink:href="#DejaVuSans-11" transform="translate(147.421875 0)"/>
       <use xlink:href="#DejaVuSans-14" transform="translate(179.203125 0)"/>
       <use xlink:href="#DejaVuSans-13" transform="translate(242.828125 0)"/>
      </g>
     </g>
    </g>
    <g id="xtick_2">
     <g id="line2d_3">
      <path d="M 152.778122 436.598437 
L 152.778122 20.798437 
" clip-path="url(#p786f0af95c)" style="fill: none; stroke: #eceadf; stroke-width: 0.3; stroke-linecap: square"/>
     </g>
     <g id="line2d_4">
      <g>
       <use xlink:href="#mf72eaae823" x="152.778122" y="436.598437" style="stroke: #000000; stroke-width: 0.8"/>
      </g>
     </g>
     <g id="text_2">
      <!-- −0.05 -->
      <g transform="translate(137.455466 451.196094) scale(0.1 -0.1)">
       <defs>
        <path id="DejaVuSans-18" d="M 691 4666 
L 3169 4666 
L 3169 4134 
L 1269 4134 
L 1269 2991 
Q 1406 3038 1543 3061 
Q 1681 3084 1819 3084 
Q 2600 3084 3056 2656 
Q 3513 2228 3513 1497 
Q 3513 744 3044 326 
Q 2575 -91 1722 -91 
Q 1428 -91 1123 -41 
Q 819 9 494 109 
L 494 744 
Q 775 591 1075 516 
Q 1375 441 1709 441 
Q 2250 441 2565 725 
Q 2881 1009 2881 1497 
Q 2881 1984 2565 2268 
Q 2250 2553 1709 2553 
Q 1456 2553 1204 2497 
Q 953 2441 691 2322 
L 691 4666 
z
" transform="scale(0.015625)"/>
       </defs>
       <use xlink:href="#DejaVuSans-c9c"/>
       <use xlink:href="#DejaVuSans-13" transform="translate(83.796875 0)"/>
       <use xlink:href="#DejaVuSans-11" transform="translate(147.421875 0)"/>
       <use xlink:href="#DejaVuSans-13" transform="translate(179.203125 0)"/>
       <use xlink:href="#DejaVuSans-18" transform="translate(242.828125 0)"/>
      </g>
     </g>
    </g>
    <g id="xtick_3">
     <g id="line2d_5">
      <path d="M 233.625126 436.598437 
L 233.625126 20.798437 
" clip-path="url(#p786f0af95c)" style="fill: none; stroke: #eceadf; stroke-width: 0.3; stroke-linecap: square"/>
     </g>
     <g id="line2d_6">
      <g>
       <use xlink:href="#mf72eaae823" x="233.625126" y="436.598437" style="stroke: #000000; stroke-width: 0.8"/>
      </g>
     </g>
     <g id="text_3">
      <!-- 0.00 -->
      <g transform="translate(222.492313 451.196094) scale(0.1 -0.1)">
       <use xlink:href="#DejaVuSans-13"/>
       <use xlink:href="#DejaVuSans-11" transform="translate(63.625 0)"/>
       <use xlink:href="#DejaVuSans-13" transform="translate(95.40625 0)"/>
       <use xlink:href="#DejaVuSans-13" transform="translate(159.03125 0)"/>
      </g>
     </g>
    </g>
    <g id="xtick_4">
     <g id="line2d_7">
      <path d="M 314.47213 436.598437 
L 314.47213 20.798437 
" clip-path="url(#p786f0af95c)" style="fill: none; stroke: #eceadf; stroke-width: 0.3; stroke-linecap: square"/>
     </g>
     <g id="line2d_8">
      <g>
       <use xlink:href="#mf72eaae823" x="314.47213" y="436.598437" style="stroke: #000000; stroke-width: 0.8"/>
      </g>
     </g>
     <g id="text_4">
      <!-- 0.05 -->
      <g transform="translate(303.339317 451.196094) scale(0.1 -0.1)">
       <use xlink:href="#DejaVuSans-13"/>
       <use xlink:href="#DejaVuSans-11" transform="translate(63.625 0)"/>
       <use xlink:href="#DejaVuSans-13" transform="translate(95.40625 0)"/>
       <use xlink:href="#DejaVuSans-18" transform="translate(159.03125 0)"/>
      </g>
     </g>
    </g>
    <g id="xtick_5">
     <g id="line2d_9">
      <path d="M 395.319133 436.598437 
L 395.319133 20.798437 
" clip-path="url(#p786f0af95c)" style="fill: none; stroke: #eceadf; stroke-width: 0.3; stroke-linecap: square"/>
     </g>
     <g id="line2d_10">
      <g>
       <use xlink:href="#mf72eaae823" x="395.319133" y="436.598437" style="stroke: #000000; stroke-width: 0.8"/>
      </g>
     </g>
     <g id="text_5">
      <!-- 0.10 -->
      <g transform="translate(384.186321 451.196094) scale(0.1 -0.1)">
       <use xlink:href="#DejaVuSans-13"/>
       <use xlink:href="#DejaVuSans-11" transform="translate(63.625 0)"/>
       <use xlink:href="#DejaVuSans-14" transform="translate(95.40625 0)"/>
       <use xlink:href="#DejaVuSans-13" transform="translate(159.03125 0)"/>
      </g>
     </g>
    </g>
    <g id="xtick_6">
     <g id="line2d_11">
      <path d="M 476.166137 436.598437 
L 476.166137 20.798437 
" clip-path="url(#p786f0af95c)" style="fill: none; stroke: #eceadf; stroke-width: 0.3; stroke-linecap: square"/>
     </g>
     <g id="line2d_12">
      <g>
       <use xlink:href="#mf72eaae823" x="476.166137" y="436.598437" style="stroke: #000000; stroke-width: 0.8"/>
      </g>
     </g>
     <g id="text_6">
      <!-- 0.15 -->
      <g transform="translate(465.033325 451.196094) scale(0.1 -0.1)">
       <use xlink:href="#DejaVuSans-13"/>
       <use xlink:href="#DejaVuSans-11" transform="translate(63.625 0)"/>
       <use xlink:href="#DejaVuSans-14" transform="translate(95.40625 0)"/>
       <use xlink:href="#DejaVuSans-18" transform="translate(159.03125 0)"/>
      </g>
     </g>
    </g>
    <g id="text_7">
     <!-- PC1 (55% var) · openness/extraversion (+) vs neuroticism/conscientiousness (-) -->
     <g transform="translate(95.925 465.196875) scale(0.1 -0.1)">
      <defs>
       <path id="DejaVuSans-33" d="M 1259 4147 
L 1259 2394 
L 2053 2394 
Q 2494 2394 2734 2622 
Q 2975 2850 2975 3272 
Q 2975 3691 2734 3919 
Q 2494 4147 2053 4147 
L 1259 4147 
z
M 628 4666 
L 2053 4666 
Q 2838 4666 3239 4311 
Q 3641 3956 3641 3272 
Q 3641 2581 3239 2228 
Q 2838 1875 2053 1875 
L 1259 1875 
L 1259 0 
L 628 0 
L 628 4666 
z
" transform="scale(0.015625)"/>
       <path id="DejaVuSans-26" d="M 4122 4306 
L 4122 3641 
Q 3803 3938 3442 4084 
Q 3081 4231 2675 4231 
Q 1875 4231 1450 3742 
Q 1025 3253 1025 2328 
Q 1025 1406 1450 917 
Q 1875 428 2675 428 
Q 3081 428 3442 575 
Q 3803 722 4122 1019 
L 4122 359 
Q 3791 134 3420 21 
Q 3050 -91 2638 -91 
Q 1578 -91 968 557 
Q 359 1206 359 2328 
Q 359 3453 968 4101 
Q 1578 4750 2638 4750 
Q 3056 4750 3426 4639 
Q 3797 4528 4122 4306 
z
" transform="scale(0.015625)"/>
       <path id="DejaVuSans-3" transform="scale(0.015625)"/>
       <path id="DejaVuSans-b" d="M 1984 4856 
Q 1566 4138 1362 3434 
Q 1159 2731 1159 2009 
Q 1159 1288 1364 580 
Q 1569 -128 1984 -844 
L 1484 -844 
Q 1016 -109 783 600 
Q 550 1309 550 2009 
Q 550 2706 781 3412 
Q 1013 4119 1484 4856 
L 1984 4856 
z
" transform="scale(0.015625)"/>
       <path id="DejaVuSans-8" d="M 4653 2053 
Q 4381 2053 4226 1822 
Q 4072 1591 4072 1178 
Q 4072 772 4226 539 
Q 4381 306 4653 306 
Q 4919 306 5073 539 
Q 5228 772 5228 1178 
Q 5228 1588 5073 1820 
Q 4919 2053 4653 2053 
z
M 4653 2450 
Q 5147 2450 5437 2106 
Q 5728 1763 5728 1178 
Q 5728 594 5436 251 
Q 5144 -91 4653 -91 
Q 4153 -91 3862 251 
Q 3572 594 3572 1178 
Q 3572 1766 3864 2108 
Q 4156 2450 4653 2450 
z
M 1428 4353 
Q 1159 4353 1004 4120 
Q 850 3888 850 3481 
Q 850 3069 1003 2837 
Q 1156 2606 1428 2606 
Q 1700 2606 1854 2837 
Q 2009 3069 2009 3481 
Q 2009 3884 1853 4118 
Q 1697 4353 1428 4353 
z
M 4250 4750 
L 4750 4750 
L 1831 -91 
L 1331 -91 
L 4250 4750 
z
M 1428 4750 
Q 1922 4750 2215 4408 
Q 2509 4066 2509 3481 
Q 2509 2891 2217 2550 
Q 1925 2209 1428 2209 
Q 931 2209 642 2551 
Q 353 2894 353 3481 
Q 353 4063 643 4406 
Q 934 4750 1428 4750 
z
" transform="scale(0.015625)"/>
       <path id="DejaVuSans-59" d="M 191 3500 
L 800 3500 
L 1894 563 
L 2988 3500 
L 3597 3500 
L 2284 0 
L 1503 0 
L 191 3500 
z
" transform="scale(0.015625)"/>
       <path id="DejaVuSans-44" d="M 2194 1759 
Q 1497 1759 1228 1600 
Q 959 1441 959 1056 
Q 959 750 1161 570 
Q 1363 391 1709 391 
Q 2188 391 2477 730 
Q 2766 1069 2766 1631 
L 2766 1759 
L 2194 1759 
z
M 3341 1997 
L 3341 0 
L 2766 0 
L 2766 531 
Q 2569 213 2275 61 
Q 1981 -91 1556 -91 
Q 1019 -91 701 211 
Q 384 513 384 1019 
Q 384 1609 779 1909 
Q 1175 2209 1959 2209 
L 2766 2209 
L 2766 2266 
Q 2766 2663 2505 2880 
Q 2244 3097 1772 3097 
Q 1472 3097 1187 3025 
Q 903 2953 641 2809 
L 641 3341 
Q 956 3463 1253 3523 
Q 1550 3584 1831 3584 
Q 2591 3584 2966 3190 
Q 3341 2797 3341 1997 
z
" transform="scale(0.015625)"/>
       <path id="DejaVuSans-55" d="M 2631 2963 
Q 2534 3019 2420 3045 
Q 2306 3072 2169 3072 
Q 1681 3072 1420 2755 
Q 1159 2438 1159 1844 
L 1159 0 
L 581 0 
L 581 3500 
L 1159 3500 
L 1159 2956 
Q 1341 3275 1631 3429 
Q 1922 3584 2338 3584 
Q 2397 3584 2469 3576 
Q 2541 3569 2628 3553 
L 2631 2963 
z
" transform="scale(0.015625)"/>
       <path id="DejaVuSans-c" d="M 513 4856 
L 1013 4856 
Q 1481 4119 1714 3412 
Q 1947 2706 1947 2009 
Q 1947 1309 1714 600 
Q 1481 -109 1013 -844 
L 513 -844 
Q 928 -128 1133 580 
Q 1338 1288 1338 2009 
Q 1338 2731 1133 3434 
Q 928 4138 513 4856 
z
" transform="scale(0.015625)"/>
       <path id="DejaVuSans-79" d="M 684 2619 
L 1344 2619 
L 1344 1825 
L 684 1825 
L 684 2619 
z
" transform="scale(0.015625)"/>
       <path id="DejaVuSans-52" d="M 1959 3097 
Q 1497 3097 1228 2736 
Q 959 2375 959 1747 
Q 959 1119 1226 758 
Q 1494 397 1959 397 
Q 2419 397 2687 759 
Q 2956 1122 2956 1747 
Q 2956 2369 2687 2733 
Q 2419 3097 1959 3097 
z
M 1959 3584 
Q 2709 3584 3137 3096 
Q 3566 2609 3566 1747 
Q 3566 888 3137 398 
Q 2709 -91 1959 -91 
Q 1206 -91 779 398 
Q 353 888 353 1747 
Q 353 2609 779 3096 
Q 1206 3584 1959 3584 
z
" transform="scale(0.015625)"/>
       <path id="DejaVuSans-53" d="M 1159 525 
L 1159 -1331 
L 581 -1331 
L 581 3500 
L 1159 3500 
L 1159 2969 
Q 1341 3281 1617 3432 
Q 1894 3584 2278 3584 
Q 2916 3584 3314 3078 
Q 3713 2572 3713 1747 
Q 3713 922 3314 415 
Q 2916 -91 2278 -91 
Q 1894 -91 1617 61 
Q 1341 213 1159 525 
z
M 3116 1747 
Q 3116 2381 2855 2742 
Q 2594 3103 2138 3103 
Q 1681 3103 1420 2742 
Q 1159 2381 1159 1747 
Q 1159 1113 1420 752 
Q 1681 391 2138 391 
Q 2594 391 2855 752 
Q 3116 1113 3116 1747 
z
" transform="scale(0.015625)"/>
       <path id="DejaVuSans-48" d="M 3597 1894 
L 3597 1613 
L 953 1613 
Q 991 1019 1311 708 
Q 1631 397 2203 397 
Q 2534 397 2845 478 
Q 3156 559 3463 722 
L 3463 178 
Q 3153 47 2828 -22 
Q 2503 -91 2169 -91 
Q 1331 -91 842 396 
Q 353 884 353 1716 
Q 353 2575 817 3079 
Q 1281 3584 2069 3584 
Q 2775 3584 3186 3129 
Q 3597 2675 3597 1894 
z
M 3022 2063 
Q 3016 2534 2758 2815 
Q 2500 3097 2075 3097 
Q 1594 3097 1305 2825 
Q 1016 2553 972 2059 
L 3022 2063 
z
" transform="scale(0.015625)"/>
       <path id="DejaVuSans-51" d="M 3513 2113 
L 3513 0 
L 2938 0 
L 2938 2094 
Q 2938 2591 2744 2837 
Q 2550 3084 2163 3084 
Q 1697 3084 1428 2787 
Q 1159 2491 1159 1978 
L 1159 0 
L 581 0 
L 581 3500 
L 1159 3500 
L 1159 2956 
Q 1366 3272 1645 3428 
Q 1925 3584 2291 3584 
Q 2894 3584 3203 3211 
Q 3513 2838 3513 2113 
z
" transform="scale(0.015625)"/>
       <path id="DejaVuSans-56" d="M 2834 3397 
L 2834 2853 
Q 2591 2978 2328 3040 
Q 2066 3103 1784 3103 
Q 1356 3103 1142 2972 
Q 928 2841 928 2578 
Q 928 2378 1081 2264 
Q 1234 2150 1697 2047 
L 1894 2003 
Q 2506 1872 2764 1633 
Q 3022 1394 3022 966 
Q 3022 478 2636 193 
Q 2250 -91 1575 -91 
Q 1294 -91 989 -36 
Q 684 19 347 128 
L 347 722 
Q 666 556 975 473 
Q 1284 391 1588 391 
Q 1994 391 2212 530 
Q 2431 669 2431 922 
Q 2431 1156 2273 1281 
Q 2116 1406 1581 1522 
L 1381 1569 
Q 847 1681 609 1914 
Q 372 2147 372 2553 
Q 372 3047 722 3315 
Q 1072 3584 1716 3584 
Q 2034 3584 2315 3537 
Q 2597 3491 2834 3397 
z
" transform="scale(0.015625)"/>
       <path id="DejaVuSans-12" d="M 1625 4666 
L 2156 4666 
L 531 -594 
L 0 -594 
L 1625 4666 
z
" transform="scale(0.015625)"/>
       <path id="DejaVuSans-5b" d="M 3513 3500 
L 2247 1797 
L 3578 0 
L 2900 0 
L 1881 1375 
L 863 0 
L 184 0 
L 1544 1831 
L 300 3500 
L 978 3500 
L 1906 2253 
L 2834 3500 
L 3513 3500 
z
" transform="scale(0.015625)"/>
       <path id="DejaVuSans-57" d="M 1172 4494 
L 1172 3500 
L 2356 3500 
L 2356 3053 
L 1172 3053 
L 1172 1153 
Q 1172 725 1289 603 
Q 1406 481 1766 481 
L 2356 481 
L 2356 0 
L 1766 0 
Q 1100 0 847 248 
Q 594 497 594 1153 
L 594 3053 
L 172 3053 
L 172 3500 
L 594 3500 
L 594 4494 
L 1172 4494 
z
" transform="scale(0.015625)"/>
       <path id="DejaVuSans-4c" d="M 603 3500 
L 1178 3500 
L 1178 0 
L 603 0 
L 603 3500 
z
M 603 4863 
L 1178 4863 
L 1178 4134 
L 603 4134 
L 603 4863 
z
" transform="scale(0.015625)"/>
       <path id="DejaVuSans-e" d="M 2944 4013 
L 2944 2272 
L 4684 2272 
L 4684 1741 
L 2944 1741 
L 2944 0 
L 2419 0 
L 2419 1741 
L 678 1741 
L 678 2272 
L 2419 2272 
L 2419 4013 
L 2944 4013 
z
" transform="scale(0.015625)"/>
       <path id="DejaVuSans-58" d="M 544 1381 
L 544 3500 
L 1119 3500 
L 1119 1403 
Q 1119 906 1312 657 
Q 1506 409 1894 409 
Q 2359 409 2629 706 
Q 2900 1003 2900 1516 
L 2900 3500 
L 3475 3500 
L 3475 0 
L 2900 0 
L 2900 538 
Q 2691 219 2414 64 
Q 2138 -91 1772 -91 
Q 1169 -91 856 284 
Q 544 659 544 1381 
z
M 1991 3584 
L 1991 3584 
z
" transform="scale(0.015625)"/>
       <path id="DejaVuSans-46" d="M 3122 3366 
L 3122 2828 
Q 2878 2963 2633 3030 
Q 2388 3097 2138 3097 
Q 1578 3097 1268 2742 
Q 959 2388 959 1747 
Q 959 1106 1268 751 
Q 1578 397 2138 397 
Q 2388 397 2633 464 
Q 2878 531 3122 666 
L 3122 134 
Q 2881 22 2623 -34 
Q 2366 -91 2075 -91 
Q 1284 -91 818 406 
Q 353 903 353 1747 
Q 353 2603 823 3093 
Q 1294 3584 2113 3584 
Q 2378 3584 2631 3529 
Q 2884 3475 3122 3366 
z
" transform="scale(0.015625)"/>
       <path id="DejaVuSans-50" d="M 3328 2828 
Q 3544 3216 3844 3400 
Q 4144 3584 4550 3584 
Q 5097 3584 5394 3201 
Q 5691 2819 5691 2113 
L 5691 0 
L 5113 0 
L 5113 2094 
Q 5113 2597 4934 2840 
Q 4756 3084 4391 3084 
Q 3944 3084 3684 2787 
Q 3425 2491 3425 1978 
L 3425 0 
L 2847 0 
L 2847 2094 
Q 2847 2600 2669 2842 
Q 2491 3084 2119 3084 
Q 1678 3084 1418 2786 
Q 1159 2488 1159 1978 
L 1159 0 
L 581 0 
L 581 3500 
L 1159 3500 
L 1159 2956 
Q 1356 3278 1631 3431 
Q 1906 3584 2284 3584 
Q 2666 3584 2933 3390 
Q 3200 3197 3328 2828 
z
" transform="scale(0.015625)"/>
       <path id="DejaVuSans-10" d="M 313 2009 
L 1997 2009 
L 1997 1497 
L 313 1497 
L 313 2009 
z
" transform="scale(0.015625)"/>
      </defs>
      <use xlink:href="#DejaVuSans-33"/>
      <use xlink:href="#DejaVuSans-26" transform="translate(60.296875 0)"/>
      <use xlink:href="#DejaVuSans-14" transform="translate(130.125 0)"/>
      <use xlink:href="#DejaVuSans-3" transform="translate(193.75 0)"/>
      <use xlink:href="#DejaVuSans-b" transform="translate(225.53125 0)"/>
      <use xlink:href="#DejaVuSans-18" transform="translate(264.546875 0)"/>
      <use xlink:href="#DejaVuSans-18" transform="translate(328.171875 0)"/>
      <use xlink:href="#DejaVuSans-8" transform="translate(391.796875 0)"/>
      <use xlink:href="#DejaVuSans-3" transform="translate(486.8125 0)"/>
      <use xlink:href="#DejaVuSans-59" transform="translate(518.59375 0)"/>
      <use xlink:href="#DejaVuSans-44" transform="translate(577.78125 0)"/>
      <use xlink:href="#DejaVuSans-55" transform="translate(639.0625 0)"/>
      <use xlink:href="#DejaVuSans-c" transform="translate(680.171875 0)"/>
      <use xlink:href="#DejaVuSans-3" transform="translate(719.1875 0)"/>
      <use xlink:href="#DejaVuSans-79" transform="translate(750.96875 0)"/>
      <use xlink:href="#DejaVuSans-3" transform="translate(782.75 0)"/>
      <use xlink:href="#DejaVuSans-52" transform="translate(814.53125 0)"/>
      <use xlink:href="#DejaVuSans-53" transform="translate(875.71875 0)"/>
      <use xlink:href="#DejaVuSans-48" transform="translate(939.203125 0)"/>
      <use xlink:href="#DejaVuSans-51" transform="translate(1000.734375 0)"/>
      <use xlink:href="#DejaVuSans-51" transform="translate(1064.109375 0)"/>
      <use xlink:href="#DejaVuSans-48" transform="translate(1127.484375 0)"/>
      <use xlink:href="#DejaVuSans-56" transform="translate(1189.015625 0)"/>
      <use xlink:href="#DejaVuSans-56" transform="translate(1241.109375 0)"/>
      <use xlink:href="#DejaVuSans-12" transform="translate(1293.203125 0)"/>
      <use xlink:href="#DejaVuSans-48" transform="translate(1326.890625 0)"/>
      <use xlink:href="#DejaVuSans-5b" transform="translate(1386.671875 0)"/>
      <use xlink:href="#DejaVuSans-57" transform="translate(1445.859375 0)"/>
      <use xlink:href="#DejaVuSans-55" transform="translate(1485.0625 0)"/>
      <use xlink:href="#DejaVuSans-44" transform="translate(1526.171875 0)"/>
      <use xlink:href="#DejaVuSans-59" transform="translate(1587.453125 0)"/>
      <use xlink:href="#DejaVuSans-48" transform="translate(1646.640625 0)"/>
      <use xlink:href="#DejaVuSans-55" transform="translate(1708.171875 0)"/>
      <use xlink:href="#DejaVuSans-56" transform="translate(1749.28125 0)"/>
      <use xlink:href="#DejaVuSans-4c" transform="translate(1801.375 0)"/>
      <use xlink:href="#DejaVuSans-52" transform="translate(1829.15625 0)"/>
      <use xlink:href="#DejaVuSans-51" transform="translate(1890.34375 0)"/>
      <use xlink:href="#DejaVuSans-3" transform="translate(1953.71875 0)"/>
      <use xlink:href="#DejaVuSans-b" transform="translate(1985.5 0)"/>
      <use xlink:href="#DejaVuSans-e" transform="translate(2024.515625 0)"/>
      <use xlink:href="#DejaVuSans-c" transform="translate(2108.3125 0)"/>
      <use xlink:href="#DejaVuSans-3" transform="translate(2147.328125 0)"/>
      <use xlink:href="#DejaVuSans-59" transform="translate(2179.109375 0)"/>
      <use xlink:href="#DejaVuSans-56" transform="translate(2238.296875 0)"/>
      <use xlink:href="#DejaVuSans-3" transform="translate(2290.390625 0)"/>
      <use xlink:href="#DejaVuSans-51" transform="translate(2322.171875 0)"/>
      <use xlink:href="#DejaVuSans-48" transform="translate(2385.546875 0)"/>
      <use xlink:href="#DejaVuSans-58" transform="translate(2447.078125 0)"/>
      <use xlink:href="#DejaVuSans-55" transform="translate(2510.453125 0)"/>
      <use xlink:href="#DejaVuSans-52" transform="translate(2549.359375 0)"/>
      <use xlink:href="#DejaVuSans-57" transform="translate(2610.546875 0)"/>
      <use xlink:href="#DejaVuSans-4c" transform="translate(2649.75 0)"/>
      <use xlink:href="#DejaVuSans-46" transform="translate(2677.53125 0)"/>
      <use xlink:href="#DejaVuSans-4c" transform="translate(2732.515625 0)"/>
      <use xlink:href="#DejaVuSans-56" transform="translate(2760.296875 0)"/>
      <use xlink:href="#DejaVuSans-50" transform="translate(2812.390625 0)"/>
      <use xlink:href="#DejaVuSans-12" transform="translate(2909.796875 0)"/>
      <use xlink:href="#DejaVuSans-46" transform="translate(2943.484375 0)"/>
      <use xlink:href="#DejaVuSans-52" transform="translate(2998.46875 0)"/>
      <use xlink:href="#DejaVuSans-51" transform="translate(3059.65625 0)"/>
      <use xlink:href="#DejaVuSans-56" transform="translate(3123.03125 0)"/>
      <use xlink:href="#DejaVuSans-46" transform="translate(3175.125 0)"/>
      <use xlink:href="#DejaVuSans-4c" transform="translate(3230.109375 0)"/>
      <use xlink:href="#DejaVuSans-48" transform="translate(3257.890625 0)"/>
      <use xlink:href="#DejaVuSans-51" transform="translate(3319.421875 0)"/>
      <use xlink:href="#DejaVuSans-57" transform="translate(3382.796875 0)"/>
      <use xlink:href="#DejaVuSans-4c" transform="translate(3422 0)"/>
      <use xlink:href="#DejaVuSans-52" transform="translate(3449.78125 0)"/>
      <use xlink:href="#DejaVuSans-58" transform="translate(3510.96875 0)"/>
      <use xlink:href="#DejaVuSans-56" transform="translate(3574.34375 0)"/>
      <use xlink:href="#DejaVuSans-51" transform="translate(3626.4375 0)"/>
      <use xlink:href="#DejaVuSans-48" transform="translate(3689.8125 0)"/>
      <use xlink:href="#DejaVuSans-56" transform="translate(3751.34375 0)"/>
      <use xlink:href="#DejaVuSans-56" transform="translate(3803.4375 0)"/>
      <use xlink:href="#DejaVuSans-3" transform="translate(3855.53125 0)"/>
      <use xlink:href="#DejaVuSans-b" transform="translate(3887.3125 0)"/>
      <use xlink:href="#DejaVuSans-10" transform="translate(3926.328125 0)"/>
      <use xlink:href="#DejaVuSans-c" transform="translate(3962.40625 0)"/>
     </g>
    </g>
   </g>
   <g id="matplotlib.axis_2">
    <g id="ytick_1">
     <g id="line2d_13">
      <path d="M 58.846094 406.374449 
L 533.146094 406.374449 
" clip-path="url(#p786f0af95c)" style="fill: none; stroke: #eceadf; stroke-width: 0.3; stroke-linecap: square"/>
     </g>
     <g id="line2d_14">
      <defs>
       <path id="m7e26e35bb3" d="M 0 0 
L -3.5 0 
" style="stroke: #000000; stroke-width: 0.8"/>
      </defs>
      <g>
       <use xlink:href="#m7e26e35bb3" x="58.846094" y="406.374449" style="stroke: #000000; stroke-width: 0.8"/>
      </g>
     </g>
     <g id="text_8">
      <!-- −0.15 -->
      <g transform="translate(21.200781 410.173277) scale(0.1 -0.1)">
       <use xlink:href="#DejaVuSans-c9c"/>
       <use xlink:href="#DejaVuSans-13" transform="translate(83.796875 0)"/>
       <use xlink:href="#DejaVuSans-11" transform="translate(147.421875 0)"/>
       <use xlink:href="#DejaVuSans-14" transform="translate(179.203125 0)"/>
       <use xlink:href="#DejaVuSans-18" transform="translate(242.828125 0)"/>
      </g>
     </g>
    </g>
    <g id="ytick_2">
     <g id="line2d_15">
      <path d="M 58.846094 351.917985 
L 533.146094 351.917985 
" clip-path="url(#p786f0af95c)" style="fill: none; stroke: #eceadf; stroke-width: 0.3; stroke-linecap: square"/>
     </g>
     <g id="line2d_16">
      <g>
       <use xlink:href="#m7e26e35bb3" x="58.846094" y="351.917985" style="stroke: #000000; stroke-width: 0.8"/>
      </g>
     </g>
     <g id="text_9">
      <!-- −0.10 -->
      <g transform="translate(21.200781 355.716813) scale(0.1 -0.1)">
       <use xlink:href="#DejaVuSans-c9c"/>
       <use xlink:href="#DejaVuSans-13" transform="translate(83.796875 0)"/>
       <use xlink:href="#DejaVuSans-11" transform="translate(147.421875 0)"/>
       <use xlink:href="#DejaVuSans-14" transform="translate(179.203125 0)"/>
       <use xlink:href="#DejaVuSans-13" transform="translate(242.828125 0)"/>
      </g>
     </g>
    </g>
    <g id="ytick_3">
     <g id="line2d_17">
      <path d="M 58.846094 297.461522 
L 533.146094 297.461522 
" clip-path="url(#p786f0af95c)" style="fill: none; stroke: #eceadf; stroke-width: 0.3; stroke-linecap: square"/>
     </g>
     <g id="line2d_18">
      <g>
       <use xlink:href="#m7e26e35bb3" x="58.846094" y="297.461522" style="stroke: #000000; stroke-width: 0.8"/>
      </g>
     </g>
     <g id="text_10">
      <!-- −0.05 -->
      <g transform="translate(21.200781 301.26035) scale(0.1 -0.1)">
       <use xlink:href="#DejaVuSans-c9c"/>
       <use xlink:href="#DejaVuSans-13" transform="translate(83.796875 0)"/>
       <use xlink:href="#DejaVuSans-11" transform="translate(147.421875 0)"/>
       <use xlink:href="#DejaVuSans-13" transform="translate(179.203125 0)"/>
       <use xlink:href="#DejaVuSans-18" transform="translate(242.828125 0)"/>
      </g>
     </g>
    </g>
    <g id="ytick_4">
     <g id="line2d_19">
      <path d="M 58.846094 243.005058 
L 533.146094 243.005058 
" clip-path="url(#p786f0af95c)" style="fill: none; stroke: #eceadf; stroke-width: 0.3; stroke-linecap: square"/>
     </g>
     <g id="line2d_20">
      <g>
       <use xlink:href="#m7e26e35bb3" x="58.846094" y="243.005058" style="stroke: #000000; stroke-width: 0.8"/>
      </g>
     </g>
     <g id="text_11">
      <!-- 0.00 -->
      <g transform="translate(29.580469 246.803886) scale(0.1 -0.1)">
       <use xlink:href="#DejaVuSans-13"/>
       <use xlink:href="#DejaVuSans-11" transform="translate(63.625 0)"/>
       <use xlink:href="#DejaVuSans-13" transform="translate(95.40625 0)"/>
       <use xlink:href="#DejaVuSans-13" transform="translate(159.03125 0)"/>
      </g>
     </g>
    </g>
    <g id="ytick_5">
     <g id="line2d_21">
      <path d="M 58.846094 188.548594 
L 533.146094 188.548594 
" clip-path="url(#p786f0af95c)" style="fill: none; stroke: #eceadf; stroke-width: 0.3; stroke-linecap: square"/>
     </g>
     <g id="line2d_22">
      <g>
       <use xlink:href="#m7e26e35bb3" x="58.846094" y="188.548594" style="stroke: #000000; stroke-width: 0.8"/>
      </g>
     </g>
     <g id="text_12">
      <!-- 0.05 -->
      <g transform="translate(29.580469 192.347423) scale(0.1 -0.1)">
       <use xlink:href="#DejaVuSans-13"/>
       <use xlink:href="#DejaVuSans-11" transform="translate(63.625 0)"/>
       <use xlink:href="#DejaVuSans-13" transform="translate(95.40625 0)"/>
       <use xlink:href="#DejaVuSans-18" transform="translate(159.03125 0)"/>
      </g>
     </g>
    </g>
    <g id="ytick_6">
     <g id="line2d_23">
      <path d="M 58.846094 134.092131 
L 533.146094 134.092131 
" clip-path="url(#p786f0af95c)" style="fill: none; stroke: #eceadf; stroke-width: 0.3; stroke-linecap: square"/>
     </g>
     <g id="line2d_24">
      <g>
       <use xlink:href="#m7e26e35bb3" x="58.846094" y="134.092131" style="stroke: #000000; stroke-width: 0.8"/>
      </g>
     </g>
     <g id="text_13">
      <!-- 0.10 -->
      <g transform="translate(29.580469 137.890959) scale(0.1 -0.1)">
       <use xlink:href="#DejaVuSans-13"/>
       <use xlink:href="#DejaVuSans-11" transform="translate(63.625 0)"/>
       <use xlink:href="#DejaVuSans-14" transform="translate(95.40625 0)"/>
       <use xlink:href="#DejaVuSans-13" transform="translate(159.03125 0)"/>
      </g>
     </g>
    </g>
    <g id="ytick_7">
     <g id="line2d_25">
      <path d="M 58.846094 79.635667 
L 533.146094 79.635667 
" clip-path="url(#p786f0af95c)" style="fill: none; stroke: #eceadf; stroke-width: 0.3; stroke-linecap: square"/>
     </g>
     <g id="line2d_26">
      <g>
       <use xlink:href="#m7e26e35bb3" x="58.846094" y="79.635667" style="stroke: #000000; stroke-width: 0.8"/>
      </g>
     </g>
     <g id="text_14">
      <!-- 0.15 -->
      <g transform="translate(29.580469 83.434495) scale(0.1 -0.1)">
       <use xlink:href="#DejaVuSans-13"/>
       <use xlink:href="#DejaVuSans-11" transform="translate(63.625 0)"/>
       <use xlink:href="#DejaVuSans-14" transform="translate(95.40625 0)"/>
       <use xlink:href="#DejaVuSans-18" transform="translate(159.03125 0)"/>
      </g>
     </g>
    </g>
    <g id="ytick_8">
     <g id="line2d_27">
      <path d="M 58.846094 25.179204 
L 533.146094 25.179204 
" clip-path="url(#p786f0af95c)" style="fill: none; stroke: #eceadf; stroke-width: 0.3; stroke-linecap: square"/>
     </g>
     <g id="line2d_28">
      <g>
       <use xlink:href="#m7e26e35bb3" x="58.846094" y="25.179204" style="stroke: #000000; stroke-width: 0.8"/>
      </g>
     </g>
     <g id="text_15">
      <!-- 0.20 -->
      <g transform="translate(29.580469 28.978032) scale(0.1 -0.1)">
       <defs>
        <path id="DejaVuSans-15" d="M 1228 531 
L 3431 531 
L 3431 0 
L 469 0 
L 469 531 
Q 828 903 1448 1529 
Q 2069 2156 2228 2338 
Q 2531 2678 2651 2914 
Q 2772 3150 2772 3378 
Q 2772 3750 2511 3984 
Q 2250 4219 1831 4219 
Q 1534 4219 1204 4116 
Q 875 4013 500 3803 
L 500 4441 
Q 881 4594 1212 4672 
Q 1544 4750 1819 4750 
Q 2544 4750 2975 4387 
Q 3406 4025 3406 3419 
Q 3406 3131 3298 2873 
Q 3191 2616 2906 2266 
Q 2828 2175 2409 1742 
Q 1991 1309 1228 531 
z
" transform="scale(0.015625)"/>
       </defs>
       <use xlink:href="#DejaVuSans-13"/>
       <use xlink:href="#DejaVuSans-11" transform="translate(63.625 0)"/>
       <use xlink:href="#DejaVuSans-15" transform="translate(95.40625 0)"/>
       <use xlink:href="#DejaVuSans-13" transform="translate(159.03125 0)"/>
      </g>
     </g>
    </g>
    <g id="text_16">
     <!-- PC2 (34% var) · openness/neuroticism (+) vs agreeableness/extraversion (-) -->
     <g transform="translate(14.798438 419.6625) rotate(-90) scale(0.1 -0.1)">
      <defs>
       <path id="DejaVuSans-16" d="M 2597 2516 
Q 3050 2419 3304 2112 
Q 3559 1806 3559 1356 
Q 3559 666 3084 287 
Q 2609 -91 1734 -91 
Q 1441 -91 1130 -33 
Q 819 25 488 141 
L 488 750 
Q 750 597 1062 519 
Q 1375 441 1716 441 
Q 2309 441 2620 675 
Q 2931 909 2931 1356 
Q 2931 1769 2642 2001 
Q 2353 2234 1838 2234 
L 1294 2234 
L 1294 2753 
L 1863 2753 
Q 2328 2753 2575 2939 
Q 2822 3125 2822 3475 
Q 2822 3834 2567 4026 
Q 2313 4219 1838 4219 
Q 1578 4219 1281 4162 
Q 984 4106 628 3988 
L 628 4550 
Q 988 4650 1302 4700 
Q 1616 4750 1894 4750 
Q 2613 4750 3031 4423 
Q 3450 4097 3450 3541 
Q 3450 3153 3228 2886 
Q 3006 2619 2597 2516 
z
" transform="scale(0.015625)"/>
       <path id="DejaVuSans-17" d="M 2419 4116 
L 825 1625 
L 2419 1625 
L 2419 4116 
z
M 2253 4666 
L 3047 4666 
L 3047 1625 
L 3713 1625 
L 3713 1100 
L 3047 1100 
L 3047 0 
L 2419 0 
L 2419 1100 
L 313 1100 
L 313 1709 
L 2253 4666 
z
" transform="scale(0.015625)"/>
       <path id="DejaVuSans-4a" d="M 2906 1791 
Q 2906 2416 2648 2759 
Q 2391 3103 1925 3103 
Q 1463 3103 1205 2759 
Q 947 2416 947 1791 
Q 947 1169 1205 825 
Q 1463 481 1925 481 
Q 2391 481 2648 825 
Q 2906 1169 2906 1791 
z
M 3481 434 
Q 3481 -459 3084 -895 
Q 2688 -1331 1869 -1331 
Q 1566 -1331 1297 -1286 
Q 1028 -1241 775 -1147 
L 775 -588 
Q 1028 -725 1275 -790 
Q 1522 -856 1778 -856 
Q 2344 -856 2625 -561 
Q 2906 -266 2906 331 
L 2906 616 
Q 2728 306 2450 153 
Q 2172 0 1784 0 
Q 1141 0 747 490 
Q 353 981 353 1791 
Q 353 2603 747 3093 
Q 1141 3584 1784 3584 
Q 2172 3584 2450 3431 
Q 2728 3278 2906 2969 
L 2906 3500 
L 3481 3500 
L 3481 434 
z
" transform="scale(0.015625)"/>
       <path id="DejaVuSans-45" d="M 3116 1747 
Q 3116 2381 2855 2742 
Q 2594 3103 2138 3103 
Q 1681 3103 1420 2742 
Q 1159 2381 1159 1747 
Q 1159 1113 1420 752 
Q 1681 391 2138 391 
Q 2594 391 2855 752 
Q 3116 1113 3116 1747 
z
M 1159 2969 
Q 1341 3281 1617 3432 
Q 1894 3584 2278 3584 
Q 2916 3584 3314 3078 
Q 3713 2572 3713 1747 
Q 3713 922 3314 415 
Q 2916 -91 2278 -91 
Q 1894 -91 1617 61 
Q 1341 213 1159 525 
L 1159 0 
L 581 0 
L 581 4863 
L 1159 4863 
L 1159 2969 
z
" transform="scale(0.015625)"/>
       <path id="DejaVuSans-4f" d="M 603 4863 
L 1178 4863 
L 1178 0 
L 603 0 
L 603 4863 
z
" transform="scale(0.015625)"/>
      </defs>
      <use xlink:href="#DejaVuSans-33"/>
      <use xlink:href="#DejaVuSans-26" transform="translate(60.296875 0)"/>
      <use xlink:href="#DejaVuSans-15" transform="translate(130.125 0)"/>
      <use xlink:href="#DejaVuSans-3" transform="translate(193.75 0)"/>
      <use xlink:href="#DejaVuSans-b" transform="translate(225.53125 0)"/>
      <use xlink:href="#DejaVuSans-16" transform="translate(264.546875 0)"/>
      <use xlink:href="#DejaVuSans-17" transform="translate(328.171875 0)"/>
      <use xlink:href="#DejaVuSans-8" transform="translate(391.796875 0)"/>
      <use xlink:href="#DejaVuSans-3" transform="translate(486.8125 0)"/>
      <use xlink:href="#DejaVuSans-59" transform="translate(518.59375 0)"/>
      <use xlink:href="#DejaVuSans-44" transform="translate(577.78125 0)"/>
      <use xlink:href="#DejaVuSans-55" transform="translate(639.0625 0)"/>
      <use xlink:href="#DejaVuSans-c" transform="translate(680.171875 0)"/>
      <use xlink:href="#DejaVuSans-3" transform="translate(719.1875 0)"/>
      <use xlink:href="#DejaVuSans-79" transform="translate(750.96875 0)"/>
      <use xlink:href="#DejaVuSans-3" transform="translate(782.75 0)"/>
      <use xlink:href="#DejaVuSans-52" transform="translate(814.53125 0)"/>
      <use xlink:href="#DejaVuSans-53" transform="translate(875.71875 0)"/>
      <use xlink:href="#DejaVuSans-48" transform="translate(939.203125 0)"/>
      <use xlink:href="#DejaVuSans-51" transform="translate(1000.734375 0)"/>
      <use xlink:href="#DejaVuSans-51" transform="translate(1064.109375 0)"/>
      <use xlink:href="#DejaVuSans-48" transform="translate(1127.484375 0)"/>
      <use xlink:href="#DejaVuSans-56" transform="translate(1189.015625 0)"/>
      <use xlink:href="#DejaVuSans-56" transform="translate(1241.109375 0)"/>
      <use xlink:href="#DejaVuSans-12" transform="translate(1293.203125 0)"/>
      <use xlink:href="#DejaVuSans-51" transform="translate(1326.890625 0)"/>
      <use xlink:href="#DejaVuSans-48" transform="translate(1390.265625 0)"/>
      <use xlink:href="#DejaVuSans-58" transform="translate(1451.796875 0)"/>
      <use xlink:href="#DejaVuSans-55" transform="translate(1515.171875 0)"/>
      <use xlink:href="#DejaVuSans-52" transform="translate(1554.078125 0)"/>
      <use xlink:href="#DejaVuSans-57" transform="translate(1615.265625 0)"/>
      <use xlink:href="#DejaVuSans-4c" transform="translate(1654.46875 0)"/>
      <use xlink:href="#DejaVuSans-46" transform="translate(1682.25 0)"/>
      <use xlink:href="#DejaVuSans-4c" transform="translate(1737.234375 0)"/>
      <use xlink:href="#DejaVuSans-56" transform="translate(1765.015625 0)"/>
      <use xlink:href="#DejaVuSans-50" transform="translate(1817.109375 0)"/>
      <use xlink:href="#DejaVuSans-3" transform="translate(1914.515625 0)"/>
      <use xlink:href="#DejaVuSans-b" transform="translate(1946.296875 0)"/>
      <use xlink:href="#DejaVuSans-e" transform="translate(1985.3125 0)"/>
      <use xlink:href="#DejaVuSans-c" transform="translate(2069.109375 0)"/>
      <use xlink:href="#DejaVuSans-3" transform="translate(2108.125 0)"/>
      <use xlink:href="#DejaVuSans-59" transform="translate(2139.90625 0)"/>
      <use xlink:href="#DejaVuSans-56" transform="translate(2199.09375 0)"/>
      <use xlink:href="#DejaVuSans-3" transform="translate(2251.1875 0)"/>
      <use xlink:href="#DejaVuSans-44" transform="translate(2282.96875 0)"/>
      <use xlink:href="#DejaVuSans-4a" transform="translate(2344.25 0)"/>
      <use xlink:href="#DejaVuSans-55" transform="translate(2407.734375 0)"/>
      <use xlink:href="#DejaVuSans-48" transform="translate(2446.640625 0)"/>
      <use xlink:href="#DejaVuSans-48" transform="translate(2508.171875 0)"/>
      <use xlink:href="#DejaVuSans-44" transform="translate(2569.703125 0)"/>
      <use xlink:href="#DejaVuSans-45" transform="translate(2630.984375 0)"/>
      <use xlink:href="#DejaVuSans-4f" transform="translate(2694.46875 0)"/>
      <use xlink:href="#DejaVuSans-48" transform="translate(2722.25 0)"/>
      <use xlink:href="#DejaVuSans-51" transform="translate(2783.78125 0)"/>
      <use xlink:href="#DejaVuSans-48" transform="translate(2847.15625 0)"/>
      <use xlink:href="#DejaVuSans-56" transform="translate(2908.6875 0)"/>
      <use xlink:href="#DejaVuSans-56" transform="translate(2960.78125 0)"/>
      <use xlink:href="#DejaVuSans-12" transform="translate(3012.875 0)"/>
      <use xlink:href="#DejaVuSans-48" transform="translate(3046.5625 0)"/>
      <use xlink:href="#DejaVuSans-5b" transform="translate(3106.34375 0)"/>
      <use xlink:href="#DejaVuSans-57" transform="translate(3165.53125 0)"/>
      <use xlink:href="#DejaVuSans-55" transform="translate(3204.734375 0)"/>
      <use xlink:href="#DejaVuSans-44" transform="translate(3245.84375 0)"/>
      <use xlink:href="#DejaVuSans-59" transform="translate(3307.125 0)"/>
      <use xlink:href="#DejaVuSans-48" transform="translate(3366.3125 0)"/>
      <use xlink:href="#DejaVuSans-55" transform="translate(3427.84375 0)"/>
      <use xlink:href="#DejaVuSans-56" transform="translate(3468.953125 0)"/>
      <use xlink:href="#DejaVuSans-4c" transform="translate(3521.046875 0)"/>
      <use xlink:href="#DejaVuSans-52" transform="translate(3548.828125 0)"/>
      <use xlink:href="#DejaVuSans-51" transform="translate(3610.015625 0)"/>
      <use xlink:href="#DejaVuSans-3" transform="translate(3673.390625 0)"/>
      <use xlink:href="#DejaVuSans-b" transform="translate(3705.171875 0)"/>
      <use xlink:href="#DejaVuSans-10" transform="translate(3744.1875 0)"/>
      <use xlink:href="#DejaVuSans-c" transform="translate(3780.265625 0)"/>
     </g>
    </g>
   </g>
   <g id="line2d_29">
    <path d="M 224.039531 242.229668 
L 218.887861 245.597848 
" clip-path="url(#p786f0af95c)" style="fill: none; stroke: #c2bca8; stroke-width: 0.5; stroke-linecap: square"/>
   </g>
   <g id="line2d_30">
    <path d="M 141.596428 299.826652 
L 136.444758 303.194833 
" clip-path="url(#p786f0af95c)" style="fill: none; stroke: #c2bca8; stroke-width: 0.5; stroke-linecap: square"/>
   </g>
   <g id="line2d_31">
    <path d="M 261.72806 248.132878 
L 266.87973 251.501059 
" clip-path="url(#p786f0af95c)" style="fill: none; stroke: #c2bca8; stroke-width: 0.5; stroke-linecap: square"/>
   </g>
   <g id="line2d_32">
    <path d="M 141.154764 94.443265 
L 136.003094 97.811446 
" clip-path="url(#p786f0af95c)" style="fill: none; stroke: #c2bca8; stroke-width: 0.5; stroke-linecap: square"/>
   </g>
   <g id="line2d_33">
    <path d="M 283.792455 242.94702 
L 278.640785 246.3152 
" clip-path="url(#p786f0af95c)" style="fill: none; stroke: #c2bca8; stroke-width: 0.5; stroke-linecap: square"/>
   </g>
   <g id="line2d_34">
    <path d="M 319.60047 182.777752 
L 314.4488 186.145932 
" clip-path="url(#p786f0af95c)" style="fill: none; stroke: #c2bca8; stroke-width: 0.5; stroke-linecap: square"/>
   </g>
   <g id="line2d_35">
    <path d="M 442.52483 269.637048 
L 437.37316 273.005229 
" clip-path="url(#p786f0af95c)" style="fill: none; stroke: #c2bca8; stroke-width: 0.5; stroke-linecap: square"/>
   </g>
   <g id="line2d_36">
    <path d="M 218.275793 170.044142 
L 213.124123 173.412322 
" clip-path="url(#p786f0af95c)" style="fill: none; stroke: #c2bca8; stroke-width: 0.5; stroke-linecap: square"/>
   </g>
   <g id="line2d_37">
    <path d="M 207.067069 226.357921 
L 201.915399 229.726101 
" clip-path="url(#p786f0af95c)" style="fill: none; stroke: #c2bca8; stroke-width: 0.5; stroke-linecap: square"/>
   </g>
   <g id="line2d_38">
    <path d="M 150.457195 262.752549 
L 145.305525 266.12073 
" clip-path="url(#p786f0af95c)" style="fill: none; stroke: #c2bca8; stroke-width: 0.5; stroke-linecap: square"/>
   </g>
   <g id="line2d_39">
    <path d="M 299.948827 280.555826 
L 294.797157 283.924007 
" clip-path="url(#p786f0af95c)" style="fill: none; stroke: #c2bca8; stroke-width: 0.5; stroke-linecap: square"/>
   </g>
   <g id="line2d_40">
    <path d="M 169.337753 277.83054 
L 164.186083 281.19872 
" clip-path="url(#p786f0af95c)" style="fill: none; stroke: #c2bca8; stroke-width: 0.5; stroke-linecap: square"/>
   </g>
   <g id="line2d_41">
    <path d="M 246.757208 199.883443 
L 241.605538 203.251624 
" clip-path="url(#p786f0af95c)" style="fill: none; stroke: #c2bca8; stroke-width: 0.5; stroke-linecap: square"/>
   </g>
   <g id="line2d_42">
    <path d="M 152.751623 300.464125 
L 147.599953 303.832305 
" clip-path="url(#p786f0af95c)" style="fill: none; stroke: #c2bca8; stroke-width: 0.5; stroke-linecap: square"/>
   </g>
   <g id="line2d_43">
    <path d="M 344.729733 240.395203 
L 339.578063 243.763384 
" clip-path="url(#p786f0af95c)" style="fill: none; stroke: #c2bca8; stroke-width: 0.5; stroke-linecap: square"/>
   </g>
   <g id="line2d_44">
    <path d="M 363.867141 256.093803 
L 358.715471 259.461984 
" clip-path="url(#p786f0af95c)" style="fill: none; stroke: #c2bca8; stroke-width: 0.5; stroke-linecap: square"/>
   </g>
   <g id="line2d_45">
    <path d="M 295.259899 256.956272 
L 290.108229 260.324453 
" clip-path="url(#p786f0af95c)" style="fill: none; stroke: #c2bca8; stroke-width: 0.5; stroke-linecap: square"/>
   </g>
   <g id="line2d_46">
    <path d="M 118.192135 250.420701 
L 113.040464 253.788881 
" clip-path="url(#p786f0af95c)" style="fill: none; stroke: #c2bca8; stroke-width: 0.5; stroke-linecap: square"/>
   </g>
   <g id="line2d_47">
    <path d="M 82.26818 302.270115 
L 77.11651 305.638295 
" clip-path="url(#p786f0af95c)" style="fill: none; stroke: #c2bca8; stroke-width: 0.5; stroke-linecap: square"/>
   </g>
   <g id="line2d_48">
    <path d="M 228.084432 192.383708 
L 222.932762 195.751888 
" clip-path="url(#p786f0af95c)" style="fill: none; stroke: #c2bca8; stroke-width: 0.5; stroke-linecap: square"/>
   </g>
   <g id="line2d_49">
    <path d="M 286.427111 216.876342 
L 281.275441 220.244523 
" clip-path="url(#p786f0af95c)" style="fill: none; stroke: #c2bca8; stroke-width: 0.5; stroke-linecap: square"/>
   </g>
   <g id="line2d_50">
    <path d="M 149.21956 218.386859 
L 144.06789 221.755039 
" clip-path="url(#p786f0af95c)" style="fill: none; stroke: #c2bca8; stroke-width: 0.5; stroke-linecap: square"/>
   </g>
   <g id="line2d_51">
    <path d="M 276.106654 260.161341 
L 270.954984 263.529521 
" clip-path="url(#p786f0af95c)" style="fill: none; stroke: #c2bca8; stroke-width: 0.5; stroke-linecap: square"/>
   </g>
   <g id="line2d_52">
    <path d="M 317.152905 259.45789 
L 312.001235 262.82607 
" clip-path="url(#p786f0af95c)" style="fill: none; stroke: #c2bca8; stroke-width: 0.5; stroke-linecap: square"/>
   </g>
   <g id="patch_3">
    <path d="M 58.846094 436.598437 
L 58.846094 20.798437 
" style="fill: none; stroke: #000000; stroke-width: 0.8; stroke-linejoin: miter; stroke-linecap: square"/>
   </g>
   <g id="patch_4">
    <path d="M 533.146094 436.598437 
L 533.146094 20.798437 
" style="fill: none; stroke: #000000; stroke-width: 0.8; stroke-linejoin: miter; stroke-linecap: square"/>
   </g>
   <g id="patch_5">
    <path d="M 58.846094 436.598437 
L 533.146094 436.598437 
" style="fill: none; stroke: #000000; stroke-width: 0.8; stroke-linejoin: miter; stroke-linecap: square"/>
   </g>
   <g id="patch_6">
    <path d="M 58.846094 20.798437 
L 533.146094 20.798437 
" style="fill: none; stroke: #000000; stroke-width: 0.8; stroke-linejoin: miter; stroke-linecap: square"/>
   </g>
   <g id="PathCollection_1">
    <defs>
     <path id="m73272b9311" d="M 0 2.54951 
C 0.676138 2.54951 1.324674 2.280877 1.802776 1.802776 
C 2.280877 1.324674 2.54951 0.676138 2.54951 0 
C 2.54951 -0.676138 2.280877 -1.324674 1.802776 -1.802776 
C 1.324674 -2.280877 0.676138 -2.54951 0 -2.54951 
C -0.676138 -2.54951 -1.324674 -2.280877 -1.802776 -1.802776 
C -2.280877 -1.324674 -2.54951 -0.676138 -2.54951 0 
C -2.54951 0.676138 -2.280877 1.324674 -1.802776 1.802776 
C -1.324674 2.280877 -0.676138 2.54951 0 2.54951 
z
" style="stroke: #ffffff; stroke-opacity: 0.7; stroke-width: 0.5"/>
    </defs>
    <g clip-path="url(#p786f0af95c)">
     <use xlink:href="#m73272b9311" x="218.887861" y="245.597848" style="fill: #888888; fill-opacity: 0.7; stroke: #ffffff; stroke-opacity: 0.7; stroke-width: 0.5"/>
     <use xlink:href="#m73272b9311" x="136.444758" y="303.194833" style="fill: #888888; fill-opacity: 0.7; stroke: #ffffff; stroke-opacity: 0.7; stroke-width: 0.5"/>
     <use xlink:href="#m73272b9311" x="266.87973" y="251.501059" style="fill: #888888; fill-opacity: 0.7; stroke: #ffffff; stroke-opacity: 0.7; stroke-width: 0.5"/>
     <use xlink:href="#m73272b9311" x="136.003094" y="97.811446" style="fill: #888888; fill-opacity: 0.7; stroke: #ffffff; stroke-opacity: 0.7; stroke-width: 0.5"/>
     <use xlink:href="#m73272b9311" x="278.640785" y="246.3152" style="fill: #888888; fill-opacity: 0.7; stroke: #ffffff; stroke-opacity: 0.7; stroke-width: 0.5"/>
     <use xlink:href="#m73272b9311" x="314.4488" y="186.145932" style="fill: #888888; fill-opacity: 0.7; stroke: #ffffff; stroke-opacity: 0.7; stroke-width: 0.5"/>
     <use xlink:href="#m73272b9311" x="437.37316" y="273.005229" style="fill: #888888; fill-opacity: 0.7; stroke: #ffffff; stroke-opacity: 0.7; stroke-width: 0.5"/>
     <use xlink:href="#m73272b9311" x="213.124123" y="173.412322" style="fill: #888888; fill-opacity: 0.7; stroke: #ffffff; stroke-opacity: 0.7; stroke-width: 0.5"/>
     <use xlink:href="#m73272b9311" x="201.915399" y="229.726101" style="fill: #888888; fill-opacity: 0.7; stroke: #ffffff; stroke-opacity: 0.7; stroke-width: 0.5"/>
     <use xlink:href="#m73272b9311" x="145.305525" y="266.12073" style="fill: #888888; fill-opacity: 0.7; stroke: #ffffff; stroke-opacity: 0.7; stroke-width: 0.5"/>
     <use xlink:href="#m73272b9311" x="294.797157" y="283.924007" style="fill: #888888; fill-opacity: 0.7; stroke: #ffffff; stroke-opacity: 0.7; stroke-width: 0.5"/>
     <use xlink:href="#m73272b9311" x="164.186083" y="281.19872" style="fill: #888888; fill-opacity: 0.7; stroke: #ffffff; stroke-opacity: 0.7; stroke-width: 0.5"/>
     <use xlink:href="#m73272b9311" x="241.605538" y="203.251624" style="fill: #888888; fill-opacity: 0.7; stroke: #ffffff; stroke-opacity: 0.7; stroke-width: 0.5"/>
     <use xlink:href="#m73272b9311" x="147.599953" y="303.832305" style="fill: #888888; fill-opacity: 0.7; stroke: #ffffff; stroke-opacity: 0.7; stroke-width: 0.5"/>
     <use xlink:href="#m73272b9311" x="339.578063" y="243.763384" style="fill: #888888; fill-opacity: 0.7; stroke: #ffffff; stroke-opacity: 0.7; stroke-width: 0.5"/>
     <use xlink:href="#m73272b9311" x="358.715471" y="259.461984" style="fill: #888888; fill-opacity: 0.7; stroke: #ffffff; stroke-opacity: 0.7; stroke-width: 0.5"/>
     <use xlink:href="#m73272b9311" x="290.108229" y="260.324453" style="fill: #888888; fill-opacity: 0.7; stroke: #ffffff; stroke-opacity: 0.7; stroke-width: 0.5"/>
     <use xlink:href="#m73272b9311" x="113.040464" y="253.788881" style="fill: #888888; fill-opacity: 0.7; stroke: #ffffff; stroke-opacity: 0.7; stroke-width: 0.5"/>
     <use xlink:href="#m73272b9311" x="77.11651" y="305.638295" style="fill: #888888; fill-opacity: 0.7; stroke: #ffffff; stroke-opacity: 0.7; stroke-width: 0.5"/>
     <use xlink:href="#m73272b9311" x="222.932762" y="195.751888" style="fill: #888888; fill-opacity: 0.7; stroke: #ffffff; stroke-opacity: 0.7; stroke-width: 0.5"/>
     <use xlink:href="#m73272b9311" x="281.275441" y="220.244523" style="fill: #888888; fill-opacity: 0.7; stroke: #ffffff; stroke-opacity: 0.7; stroke-width: 0.5"/>
     <use xlink:href="#m73272b9311" x="144.06789" y="221.755039" style="fill: #888888; fill-opacity: 0.7; stroke: #ffffff; stroke-opacity: 0.7; stroke-width: 0.5"/>
     <use xlink:href="#m73272b9311" x="270.954984" y="263.529521" style="fill: #888888; fill-opacity: 0.7; stroke: #ffffff; stroke-opacity: 0.7; stroke-width: 0.5"/>
     <use xlink:href="#m73272b9311" x="312.001235" y="262.82607" style="fill: #888888; fill-opacity: 0.7; stroke: #ffffff; stroke-opacity: 0.7; stroke-width: 0.5"/>
    </g>
   </g>
   <g id="text_17">
    <!-- (nu -->
    <g style="fill: #555555" transform="translate(224.039531 242.229668) scale(0.075 -0.075)">
     <use xlink:href="#DejaVuSans-b"/>
     <use xlink:href="#DejaVuSans-51" transform="translate(39.015625 0)"/>
     <use xlink:href="#DejaVuSans-58" transform="translate(102.390625 0)"/>
    </g>
   </g>
   <g id="text_18">
    <!-- AE -->
    <g style="fill: #555555" transform="translate(141.596428 299.826652) scale(0.075 -0.075)">
     <defs>
      <path id="DejaVuSans-24" d="M 2188 4044 
L 1331 1722 
L 3047 1722 
L 2188 4044 
z
M 1831 4666 
L 2547 4666 
L 4325 0 
L 3669 0 
L 3244 1197 
L 1141 1197 
L 716 0 
L 50 0 
L 1831 4666 
z
" transform="scale(0.015625)"/>
      <path id="DejaVuSans-28" d="M 628 4666 
L 3578 4666 
L 3578 4134 
L 1259 4134 
L 1259 2753 
L 3481 2753 
L 3481 2222 
L 1259 2222 
L 1259 531 
L 3634 531 
L 3634 0 
L 628 0 
L 628 4666 
z
" transform="scale(0.015625)"/>
     </defs>
     <use xlink:href="#DejaVuSans-24"/>
     <use xlink:href="#DejaVuSans-28" transform="translate(68.40625 0)"/>
    </g>
   </g>
   <g id="text_19">
    <!-- AU -->
    <g style="fill: #555555" transform="translate(251.108529 248.132878) scale(0.075 -0.075)">
     <defs>
      <path id="DejaVuSans-38" d="M 556 4666 
L 1191 4666 
L 1191 1831 
Q 1191 1081 1462 751 
Q 1734 422 2344 422 
Q 2950 422 3222 751 
Q 3494 1081 3494 1831 
L 3494 4666 
L 4128 4666 
L 4128 1753 
Q 4128 841 3676 375 
Q 3225 -91 2344 -91 
Q 1459 -91 1007 375 
Q 556 841 556 1753 
L 556 4666 
z
" transform="scale(0.015625)"/>
     </defs>
     <use xlink:href="#DejaVuSans-24"/>
     <use xlink:href="#DejaVuSans-38" transform="translate(68.40625 0)"/>
    </g>
   </g>
   <g id="text_20">
    <!-- BR -->
    <g style="fill: #555555" transform="translate(141.154764 94.443265) scale(0.075 -0.075)">
     <defs>
      <path id="DejaVuSans-25" d="M 1259 2228 
L 1259 519 
L 2272 519 
Q 2781 519 3026 730 
Q 3272 941 3272 1375 
Q 3272 1813 3026 2020 
Q 2781 2228 2272 2228 
L 1259 2228 
z
M 1259 4147 
L 1259 2741 
L 2194 2741 
Q 2656 2741 2882 2914 
Q 3109 3088 3109 3444 
Q 3109 3797 2882 3972 
Q 2656 4147 2194 4147 
L 1259 4147 
z
M 628 4666 
L 2241 4666 
Q 2963 4666 3353 4366 
Q 3744 4066 3744 3513 
Q 3744 3084 3544 2831 
Q 3344 2578 2956 2516 
Q 3422 2416 3680 2098 
Q 3938 1781 3938 1306 
Q 3938 681 3513 340 
Q 3088 0 2303 0 
L 628 0 
L 628 4666 
z
" transform="scale(0.015625)"/>
      <path id="DejaVuSans-35" d="M 2841 2188 
Q 3044 2119 3236 1894 
Q 3428 1669 3622 1275 
L 4263 0 
L 3584 0 
L 2988 1197 
Q 2756 1666 2539 1819 
Q 2322 1972 1947 1972 
L 1259 1972 
L 1259 0 
L 628 0 
L 628 4666 
L 2053 4666 
Q 2853 4666 3247 4331 
Q 3641 3997 3641 3322 
Q 3641 2881 3436 2590 
Q 3231 2300 2841 2188 
z
M 1259 4147 
L 1259 2491 
L 2053 2491 
Q 2509 2491 2742 2702 
Q 2975 2913 2975 3322 
Q 2975 3731 2742 3939 
Q 2509 4147 2053 4147 
L 1259 4147 
z
" transform="scale(0.015625)"/>
     </defs>
     <use xlink:href="#DejaVuSans-25"/>
     <use xlink:href="#DejaVuSans-35" transform="translate(68.609375 0)"/>
    </g>
   </g>
   <g id="text_21">
    <!-- CA -->
    <g style="fill: #555555" transform="translate(283.792455 242.94702) scale(0.075 -0.075)">
     <use xlink:href="#DejaVuSans-26"/>
     <use xlink:href="#DejaVuSans-24" transform="translate(69.828125 0)"/>
    </g>
   </g>
   <g id="text_22">
    <!-- DE -->
    <g style="fill: #555555" transform="translate(319.60047 182.777752) scale(0.075 -0.075)">
     <defs>
      <path id="DejaVuSans-27" d="M 1259 4147 
L 1259 519 
L 2022 519 
Q 2988 519 3436 956 
Q 3884 1394 3884 2338 
Q 3884 3275 3436 3711 
Q 2988 4147 2022 4147 
L 1259 4147 
z
M 628 4666 
L 1925 4666 
Q 3281 4666 3915 4102 
Q 4550 3538 4550 2338 
Q 4550 1131 3912 565 
Q 3275 0 1925 0 
L 628 0 
L 628 4666 
z
" transform="scale(0.015625)"/>
     </defs>
     <use xlink:href="#DejaVuSans-27"/>
     <use xlink:href="#DejaVuSans-28" transform="translate(77 0)"/>
    </g>
   </g>
   <g id="text_23">
    <!-- DK -->
    <g style="fill: #555555" transform="translate(442.52483 269.637048) scale(0.075 -0.075)">
     <defs>
      <path id="DejaVuSans-2e" d="M 628 4666 
L 1259 4666 
L 1259 2694 
L 3353 4666 
L 4166 4666 
L 1850 2491 
L 4331 0 
L 3500 0 
L 1259 2247 
L 1259 0 
L 628 0 
L 628 4666 
z
" transform="scale(0.015625)"/>
     </defs>
     <use xlink:href="#DejaVuSans-27"/>
     <use xlink:href="#DejaVuSans-2e" transform="translate(77 0)"/>
    </g>
   </g>
   <g id="text_24">
    <!-- FR -->
    <g style="fill: #555555" transform="translate(218.275793 170.044142) scale(0.075 -0.075)">
     <defs>
      <path id="DejaVuSans-29" d="M 628 4666 
L 3309 4666 
L 3309 4134 
L 1259 4134 
L 1259 2759 
L 3109 2759 
L 3109 2228 
L 1259 2228 
L 1259 0 
L 628 0 
L 628 4666 
z
" transform="scale(0.015625)"/>
     </defs>
     <use xlink:href="#DejaVuSans-29"/>
     <use xlink:href="#DejaVuSans-35" transform="translate(57.515625 0)"/>
    </g>
   </g>
   <g id="text_25">
    <!-- GB -->
    <g style="fill: #555555" transform="translate(207.067069 226.357921) scale(0.075 -0.075)">
     <defs>
      <path id="DejaVuSans-2a" d="M 3809 666 
L 3809 1919 
L 2778 1919 
L 2778 2438 
L 4434 2438 
L 4434 434 
Q 4069 175 3628 42 
Q 3188 -91 2688 -91 
Q 1594 -91 976 548 
Q 359 1188 359 2328 
Q 359 3472 976 4111 
Q 1594 4750 2688 4750 
Q 3144 4750 3555 4637 
Q 3966 4525 4313 4306 
L 4313 3634 
Q 3963 3931 3569 4081 
Q 3175 4231 2741 4231 
Q 1884 4231 1454 3753 
Q 1025 3275 1025 2328 
Q 1025 1384 1454 906 
Q 1884 428 2741 428 
Q 3075 428 3337 486 
Q 3600 544 3809 666 
z
" transform="scale(0.015625)"/>
     </defs>
     <use xlink:href="#DejaVuSans-2a"/>
     <use xlink:href="#DejaVuSans-25" transform="translate(77.484375 0)"/>
    </g>
   </g>
   <g id="text_26">
    <!-- ID -->
    <g style="fill: #555555" transform="translate(150.457195 262.752549) scale(0.075 -0.075)">
     <defs>
      <path id="DejaVuSans-2c" d="M 628 4666 
L 1259 4666 
L 1259 0 
L 628 0 
L 628 4666 
z
" transform="scale(0.015625)"/>
     </defs>
     <use xlink:href="#DejaVuSans-2c"/>
     <use xlink:href="#DejaVuSans-27" transform="translate(29.5 0)"/>
    </g>
   </g>
   <g id="text_27">
    <!-- IE -->
    <g style="fill: #555555" transform="translate(299.948827 280.555826) scale(0.075 -0.075)">
     <use xlink:href="#DejaVuSans-2c"/>
     <use xlink:href="#DejaVuSans-28" transform="translate(29.5 0)"/>
    </g>
   </g>
   <g id="text_28">
    <!-- IN -->
    <g style="fill: #555555" transform="translate(169.337753 277.83054) scale(0.075 -0.075)">
     <defs>
      <path id="DejaVuSans-31" d="M 628 4666 
L 1478 4666 
L 3547 763 
L 3547 4666 
L 4159 4666 
L 4159 0 
L 3309 0 
L 1241 3903 
L 1241 0 
L 628 0 
L 628 4666 
z
" transform="scale(0.015625)"/>
     </defs>
     <use xlink:href="#DejaVuSans-2c"/>
     <use xlink:href="#DejaVuSans-31" transform="translate(29.5 0)"/>
    </g>
   </g>
   <g id="text_29">
    <!-- IT -->
    <g style="fill: #555555" transform="translate(246.757208 199.883443) scale(0.075 -0.075)">
     <defs>
      <path id="DejaVuSans-37" d="M -19 4666 
L 3928 4666 
L 3928 4134 
L 2272 4134 
L 2272 0 
L 1638 0 
L 1638 4134 
L -19 4134 
L -19 4666 
z
" transform="scale(0.015625)"/>
     </defs>
     <use xlink:href="#DejaVuSans-2c"/>
     <use xlink:href="#DejaVuSans-37" transform="translate(29.5 0)"/>
    </g>
   </g>
   <g id="text_30">
    <!-- MY -->
    <g style="fill: #555555" transform="translate(152.751623 300.464125) scale(0.075 -0.075)">
     <defs>
      <path id="DejaVuSans-30" d="M 628 4666 
L 1569 4666 
L 2759 1491 
L 3956 4666 
L 4897 4666 
L 4897 0 
L 4281 0 
L 4281 4097 
L 3078 897 
L 2444 897 
L 1241 4097 
L 1241 0 
L 628 0 
L 628 4666 
z
" transform="scale(0.015625)"/>
      <path id="DejaVuSans-3c" d="M -13 4666 
L 666 4666 
L 1959 2747 
L 3244 4666 
L 3922 4666 
L 2272 2222 
L 2272 0 
L 1638 0 
L 1638 2222 
L -13 4666 
z
" transform="scale(0.015625)"/>
     </defs>
     <use xlink:href="#DejaVuSans-30"/>
     <use xlink:href="#DejaVuSans-3c" transform="translate(86.28125 0)"/>
    </g>
   </g>
   <g id="text_31">
    <!-- NL -->
    <g style="fill: #555555" transform="translate(344.729733 240.395203) scale(0.075 -0.075)">
     <defs>
      <path id="DejaVuSans-2f" d="M 628 4666 
L 1259 4666 
L 1259 531 
L 3531 531 
L 3531 0 
L 628 0 
L 628 4666 
z
" transform="scale(0.015625)"/>
     </defs>
     <use xlink:href="#DejaVuSans-31"/>
     <use xlink:href="#DejaVuSans-2f" transform="translate(74.8125 0)"/>
    </g>
   </g>
   <g id="text_32">
    <!-- NO -->
    <g style="fill: #555555" transform="translate(363.867141 256.093803) scale(0.075 -0.075)">
     <defs>
      <path id="DejaVuSans-32" d="M 2522 4238 
Q 1834 4238 1429 3725 
Q 1025 3213 1025 2328 
Q 1025 1447 1429 934 
Q 1834 422 2522 422 
Q 3209 422 3611 934 
Q 4013 1447 4013 2328 
Q 4013 3213 3611 3725 
Q 3209 4238 2522 4238 
z
M 2522 4750 
Q 3503 4750 4090 4092 
Q 4678 3434 4678 2328 
Q 4678 1225 4090 567 
Q 3503 -91 2522 -91 
Q 1538 -91 948 565 
Q 359 1222 359 2328 
Q 359 3434 948 4092 
Q 1538 4750 2522 4750 
z
" transform="scale(0.015625)"/>
     </defs>
     <use xlink:href="#DejaVuSans-31"/>
     <use xlink:href="#DejaVuSans-32" transform="translate(74.8125 0)"/>
    </g>
   </g>
   <g id="text_33">
    <!-- NZ -->
    <g style="fill: #555555" transform="translate(295.259899 256.956272) scale(0.075 -0.075)">
     <defs>
      <path id="DejaVuSans-3d" d="M 359 4666 
L 4025 4666 
L 4025 4184 
L 1075 531 
L 4097 531 
L 4097 0 
L 288 0 
L 288 481 
L 3238 4134 
L 359 4134 
L 359 4666 
z
" transform="scale(0.015625)"/>
     </defs>
     <use xlink:href="#DejaVuSans-31"/>
     <use xlink:href="#DejaVuSans-3d" transform="translate(74.8125 0)"/>
    </g>
   </g>
   <g id="text_34">
    <!-- PH -->
    <g style="fill: #555555" transform="translate(118.192135 250.420701) scale(0.075 -0.075)">
     <defs>
      <path id="DejaVuSans-2b" d="M 628 4666 
L 1259 4666 
L 1259 2753 
L 3553 2753 
L 3553 4666 
L 4184 4666 
L 4184 0 
L 3553 0 
L 3553 2222 
L 1259 2222 
L 1259 0 
L 628 0 
L 628 4666 
z
" transform="scale(0.015625)"/>
     </defs>
     <use xlink:href="#DejaVuSans-33"/>
     <use xlink:href="#DejaVuSans-2b" transform="translate(60.296875 0)"/>
    </g>
   </g>
   <g id="text_35">
    <!-- PK -->
    <g style="fill: #555555" transform="translate(82.26818 302.270115) scale(0.075 -0.075)">
     <use xlink:href="#DejaVuSans-33"/>
     <use xlink:href="#DejaVuSans-2e" transform="translate(60.296875 0)"/>
    </g>
   </g>
   <g id="text_36">
    <!-- RO -->
    <g style="fill: #555555" transform="translate(228.084432 192.383708) scale(0.075 -0.075)">
     <use xlink:href="#DejaVuSans-35"/>
     <use xlink:href="#DejaVuSans-32" transform="translate(69.484375 0)"/>
    </g>
   </g>
   <g id="text_37">
    <!-- SE -->
    <g style="fill: #555555" transform="translate(286.427111 216.876342) scale(0.075 -0.075)">
     <defs>
      <path id="DejaVuSans-36" d="M 3425 4513 
L 3425 3897 
Q 3066 4069 2747 4153 
Q 2428 4238 2131 4238 
Q 1616 4238 1336 4038 
Q 1056 3838 1056 3469 
Q 1056 3159 1242 3001 
Q 1428 2844 1947 2747 
L 2328 2669 
Q 3034 2534 3370 2195 
Q 3706 1856 3706 1288 
Q 3706 609 3251 259 
Q 2797 -91 1919 -91 
Q 1588 -91 1214 -16 
Q 841 59 441 206 
L 441 856 
Q 825 641 1194 531 
Q 1563 422 1919 422 
Q 2459 422 2753 634 
Q 3047 847 3047 1241 
Q 3047 1584 2836 1778 
Q 2625 1972 2144 2069 
L 1759 2144 
Q 1053 2284 737 2584 
Q 422 2884 422 3419 
Q 422 4038 858 4394 
Q 1294 4750 2059 4750 
Q 2388 4750 2728 4690 
Q 3069 4631 3425 4513 
z
" transform="scale(0.015625)"/>
     </defs>
     <use xlink:href="#DejaVuSans-36"/>
     <use xlink:href="#DejaVuSans-28" transform="translate(63.484375 0)"/>
    </g>
   </g>
   <g id="text_38">
    <!-- SG -->
    <g style="fill: #555555" transform="translate(149.21956 218.386859) scale(0.075 -0.075)">
     <use xlink:href="#DejaVuSans-36"/>
     <use xlink:href="#DejaVuSans-2a" transform="translate(63.484375 0)"/>
    </g>
   </g>
   <g id="text_39">
    <!-- US -->
    <g style="fill: #555555" transform="translate(276.106654 260.161341) scale(0.075 -0.075)">
     <use xlink:href="#DejaVuSans-38"/>
     <use xlink:href="#DejaVuSans-36" transform="translate(73.1875 0)"/>
    </g>
   </g>
   <g id="text_40">
    <!-- ZA -->
    <g style="fill: #555555" transform="translate(317.152905 259.45789) scale(0.075 -0.075)">
     <use xlink:href="#DejaVuSans-3d"/>
     <use xlink:href="#DejaVuSans-24" transform="translate(68.5 0)"/>
    </g>
   </g>
   <g id="text_41">
    <!-- big5: ipsative culture map (24 societies) -->
    <g transform="translate(195.090625 14.798437) scale(0.1 -0.1)">
     <defs>
      <path id="DejaVuSans-1d" d="M 750 794 
L 1409 794 
L 1409 0 
L 750 0 
L 750 794 
z
M 750 3309 
L 1409 3309 
L 1409 2516 
L 750 2516 
L 750 3309 
z
" transform="scale(0.015625)"/>
     </defs>
     <use xlink:href="#DejaVuSans-45"/>
     <use xlink:href="#DejaVuSans-4c" transform="translate(63.484375 0)"/>
     <use xlink:href="#DejaVuSans-4a" transform="translate(91.265625 0)"/>
     <use xlink:href="#DejaVuSans-18" transform="translate(154.75 0)"/>
     <use xlink:href="#DejaVuSans-1d" transform="translate(218.375 0)"/>
     <use xlink:href="#DejaVuSans-3" transform="translate(252.0625 0)"/>
     <use xlink:href="#DejaVuSans-4c" transform="translate(283.84375 0)"/>
     <use xlink:href="#DejaVuSans-53" transform="translate(311.625 0)"/>
     <use xlink:href="#DejaVuSans-56" transform="translate(375.109375 0)"/>
     <use xlink:href="#DejaVuSans-44" transform="translate(427.203125 0)"/>
     <use xlink:href="#DejaVuSans-57" transform="translate(488.484375 0)"/>
     <use xlink:href="#DejaVuSans-4c" transform="translate(527.6875 0)"/>
     <use xlink:href="#DejaVuSans-59" transform="translate(555.46875 0)"/>
     <use xlink:href="#DejaVuSans-48" transform="translate(614.65625 0)"/>
     <use xlink:href="#DejaVuSans-3" transform="translate(676.1875 0)"/>
     <use xlink:href="#DejaVuSans-46" transform="translate(707.96875 0)"/>
     <use xlink:href="#DejaVuSans-58" transform="translate(762.953125 0)"/>
     <use xlink:href="#DejaVuSans-4f" transform="translate(826.328125 0)"/>
     <use xlink:href="#DejaVuSans-57" transform="translate(854.109375 0)"/>
     <use xlink:href="#DejaVuSans-58" transform="translate(893.3125 0)"/>
     <use xlink:href="#DejaVuSans-55" transform="translate(956.6875 0)"/>
     <use xlink:href="#DejaVuSans-48" transform="translate(995.59375 0)"/>
     <use xlink:href="#DejaVuSans-3" transform="translate(1057.125 0)"/>
     <use xlink:href="#DejaVuSans-50" transform="translate(1088.90625 0)"/>
     <use xlink:href="#DejaVuSans-44" transform="translate(1186.3125 0)"/>
     <use xlink:href="#DejaVuSans-53" transform="translate(1247.59375 0)"/>
     <use xlink:href="#DejaVuSans-3" transform="translate(1311.078125 0)"/>
     <use xlink:href="#DejaVuSans-b" transform="translate(1342.859375 0)"/>
     <use xlink:href="#DejaVuSans-15" transform="translate(1381.875 0)"/>
     <use xlink:href="#DejaVuSans-17" transform="translate(1445.5 0)"/>
     <use xlink:href="#DejaVuSans-3" transform="translate(1509.125 0)"/>
     <use xlink:href="#DejaVuSans-56" transform="translate(1540.90625 0)"/>
     <use xlink:href="#DejaVuSans-52" transform="translate(1593 0)"/>
     <use xlink:href="#DejaVuSans-46" transform="translate(1654.1875 0)"/>
     <use xlink:href="#DejaVuSans-4c" transform="translate(1709.171875 0)"/>
     <use xlink:href="#DejaVuSans-48" transform="translate(1736.953125 0)"/>
     <use xlink:href="#DejaVuSans-57" transform="translate(1798.484375 0)"/>
     <use xlink:href="#DejaVuSans-4c" transform="translate(1837.6875 0)"/>
     <use xlink:href="#DejaVuSans-48" transform="translate(1865.46875 0)"/>
     <use xlink:href="#DejaVuSans-56" transform="translate(1927 0)"/>
     <use xlink:href="#DejaVuSans-c" transform="translate(1979.09375 0)"/>
    </g>
   </g>
   <g id="patch_7">
    <path d="M 87.059989 360.933437 
Q 125.619411 390.016933 162.393628 417.753936 
" style="fill: none; stroke: #c2702f; stroke-width: 2; stroke-linecap: round"/>
    <path d="M 160.404496 413.74852 
L 162.393628 417.753936 
L 157.995816 416.941992 
z
" style="fill: #c2702f; stroke: #c2702f; stroke-width: 2; stroke-linecap: round"/>
   </g>
   <g id="patch_8">
    <path d="M 85.435153 357.727716 
Q 85.24907 345.004842 85.095689 334.517796 
" style="fill: none; stroke: #8a5a9c; stroke-width: 2; stroke-linecap: round"/>
    <path d="M 83.1544 338.546617 
L 85.095689 334.517796 
L 87.153972 338.48812 
z
" style="fill: #8a5a9c; stroke: #8a5a9c; stroke-width: 2; stroke-linecap: round"/>
   </g>
   <g id="axes_2">
    <g id="patch_9">
     <path d="M 424.057094 100.433974 
C 426.981896 100.433974 429.787299 99.271938 431.855447 97.203791 
C 433.923594 95.135643 435.08563 92.33024 435.08563 89.405437 
C 435.08563 86.480635 433.923594 83.675232 431.855447 81.607084 
C 429.787299 79.538937 426.981896 78.376901 424.057094 78.376901 
C 421.132292 78.376901 418.326888 79.538937 416.258741 81.607084 
C 414.190593 83.675232 413.028557 86.480635 413.028557 89.405437 
C 413.028557 92.33024 414.190593 95.135643 416.258741 97.203791 
C 418.326888 99.271938 421.132292 100.433974 424.057094 100.433974 
L 424.057094 100.433974 
z
" clip-path="url(#p63ad764548)" style="fill: none; stroke: #bbbbbb; stroke-width: 0.7; stroke-linejoin: miter"/>
    </g>
    <g id="patch_10">
     <path d="M 425.498207 90.790206 
Q 431.832882 96.877204 437.280767 102.112084 
" style="fill: none; stroke: #3a6b35; stroke-width: 1.1; stroke-linecap: round"/>
     <path d="M 435.782257 97.898479 
L 437.280767 102.112084 
L 433.010777 100.782729 
" style="fill: none; stroke: #3a6b35; stroke-width: 1.1; stroke-linecap: round"/>
    </g>
    <g id="text_42">
     <!-- Extraversion -->
     <g style="fill: #3a6b35" transform="translate(441.500101 112.245198) scale(0.08 -0.08)">
      <defs>
       <path id="DejaVuSans-Bold-28" d="M 588 4666 
L 3834 4666 
L 3834 3756 
L 1791 3756 
L 1791 2888 
L 3713 2888 
L 3713 1978 
L 1791 1978 
L 1791 909 
L 3903 909 
L 3903 0 
L 588 0 
L 588 4666 
z
" transform="scale(0.015625)"/>
       <path id="DejaVuSans-Bold-5b" d="M 1422 1791 
L 159 3500 
L 1344 3500 
L 2059 2463 
L 2784 3500 
L 3969 3500 
L 2706 1797 
L 4031 0 
L 2847 0 
L 2059 1106 
L 1281 0 
L 97 0 
L 1422 1791 
z
" transform="scale(0.015625)"/>
       <path id="DejaVuSans-Bold-57" d="M 1759 4494 
L 1759 3500 
L 2913 3500 
L 2913 2700 
L 1759 2700 
L 1759 1216 
Q 1759 972 1856 886 
Q 1953 800 2241 800 
L 2816 800 
L 2816 0 
L 1856 0 
Q 1194 0 917 276 
Q 641 553 641 1216 
L 641 2700 
L 84 2700 
L 84 3500 
L 641 3500 
L 641 4494 
L 1759 4494 
z
" transform="scale(0.015625)"/>
       <path id="DejaVuSans-Bold-55" d="M 3138 2547 
Q 2991 2616 2845 2648 
Q 2700 2681 2553 2681 
Q 2122 2681 1889 2404 
Q 1656 2128 1656 1613 
L 1656 0 
L 538 0 
L 538 3500 
L 1656 3500 
L 1656 2925 
Q 1872 3269 2151 3426 
Q 2431 3584 2822 3584 
Q 2878 3584 2943 3579 
Q 3009 3575 3134 3559 
L 3138 2547 
z
" transform="scale(0.015625)"/>
       <path id="DejaVuSans-Bold-44" d="M 2106 1575 
Q 1756 1575 1579 1456 
Q 1403 1338 1403 1106 
Q 1403 894 1545 773 
Q 1688 653 1941 653 
Q 2256 653 2472 879 
Q 2688 1106 2688 1447 
L 2688 1575 
L 2106 1575 
z
M 3816 1997 
L 3816 0 
L 2688 0 
L 2688 519 
Q 2463 200 2181 54 
Q 1900 -91 1497 -91 
Q 953 -91 614 226 
Q 275 544 275 1050 
Q 275 1666 698 1953 
Q 1122 2241 2028 2241 
L 2688 2241 
L 2688 2328 
Q 2688 2594 2478 2717 
Q 2269 2841 1825 2841 
Q 1466 2841 1156 2769 
Q 847 2697 581 2553 
L 581 3406 
Q 941 3494 1303 3539 
Q 1666 3584 2028 3584 
Q 2975 3584 3395 3211 
Q 3816 2838 3816 1997 
z
" transform="scale(0.015625)"/>
       <path id="DejaVuSans-Bold-59" d="M 97 3500 
L 1216 3500 
L 2088 1081 
L 2956 3500 
L 4078 3500 
L 2700 0 
L 1472 0 
L 97 3500 
z
" transform="scale(0.015625)"/>
       <path id="DejaVuSans-Bold-48" d="M 4031 1759 
L 4031 1441 
L 1416 1441 
Q 1456 1047 1700 850 
Q 1944 653 2381 653 
Q 2734 653 3104 758 
Q 3475 863 3866 1075 
L 3866 213 
Q 3469 63 3072 -14 
Q 2675 -91 2278 -91 
Q 1328 -91 801 392 
Q 275 875 275 1747 
Q 275 2603 792 3093 
Q 1309 3584 2216 3584 
Q 3041 3584 3536 3087 
Q 4031 2591 4031 1759 
z
M 2881 2131 
Q 2881 2450 2695 2645 
Q 2509 2841 2209 2841 
Q 1884 2841 1681 2658 
Q 1478 2475 1428 2131 
L 2881 2131 
z
" transform="scale(0.015625)"/>
       <path id="DejaVuSans-Bold-56" d="M 3272 3391 
L 3272 2541 
Q 2913 2691 2578 2766 
Q 2244 2841 1947 2841 
Q 1628 2841 1473 2761 
Q 1319 2681 1319 2516 
Q 1319 2381 1436 2309 
Q 1553 2238 1856 2203 
L 2053 2175 
Q 2913 2066 3209 1816 
Q 3506 1566 3506 1031 
Q 3506 472 3093 190 
Q 2681 -91 1863 -91 
Q 1516 -91 1145 -36 
Q 775 19 384 128 
L 384 978 
Q 719 816 1070 734 
Q 1422 653 1784 653 
Q 2113 653 2278 743 
Q 2444 834 2444 1013 
Q 2444 1163 2330 1236 
Q 2216 1309 1875 1350 
L 1678 1375 
Q 931 1469 631 1722 
Q 331 1975 331 2491 
Q 331 3047 712 3315 
Q 1094 3584 1881 3584 
Q 2191 3584 2531 3537 
Q 2872 3491 3272 3391 
z
" transform="scale(0.015625)"/>
       <path id="DejaVuSans-Bold-4c" d="M 538 3500 
L 1656 3500 
L 1656 0 
L 538 0 
L 538 3500 
z
M 538 4863 
L 1656 4863 
L 1656 3950 
L 538 3950 
L 538 4863 
z
" transform="scale(0.015625)"/>
       <path id="DejaVuSans-Bold-52" d="M 2203 2784 
Q 1831 2784 1636 2517 
Q 1441 2250 1441 1747 
Q 1441 1244 1636 976 
Q 1831 709 2203 709 
Q 2569 709 2762 976 
Q 2956 1244 2956 1747 
Q 2956 2250 2762 2517 
Q 2569 2784 2203 2784 
z
M 2203 3584 
Q 3106 3584 3614 3096 
Q 4122 2609 4122 1747 
Q 4122 884 3614 396 
Q 3106 -91 2203 -91 
Q 1297 -91 786 396 
Q 275 884 275 1747 
Q 275 2609 786 3096 
Q 1297 3584 2203 3584 
z
" transform="scale(0.015625)"/>
       <path id="DejaVuSans-Bold-51" d="M 4056 2131 
L 4056 0 
L 2931 0 
L 2931 347 
L 2931 1631 
Q 2931 2084 2911 2256 
Q 2891 2428 2841 2509 
Q 2775 2619 2662 2680 
Q 2550 2741 2406 2741 
Q 2056 2741 1856 2470 
Q 1656 2200 1656 1722 
L 1656 0 
L 538 0 
L 538 3500 
L 1656 3500 
L 1656 2988 
Q 1909 3294 2193 3439 
Q 2478 3584 2822 3584 
Q 3428 3584 3742 3212 
Q 4056 2841 4056 2131 
z
" transform="scale(0.015625)"/>
      </defs>
      <use xlink:href="#DejaVuSans-Bold-28"/>
      <use xlink:href="#DejaVuSans-Bold-5b" transform="translate(68.3125 0)"/>
      <use xlink:href="#DejaVuSans-Bold-57" transform="translate(132.8125 0)"/>
      <use xlink:href="#DejaVuSans-Bold-55" transform="translate(180.609375 0)"/>
      <use xlink:href="#DejaVuSans-Bold-44" transform="translate(229.921875 0)"/>
      <use xlink:href="#DejaVuSans-Bold-59" transform="translate(297.40625 0)"/>
      <use xlink:href="#DejaVuSans-Bold-48" transform="translate(362.59375 0)"/>
      <use xlink:href="#DejaVuSans-Bold-55" transform="translate(430.421875 0)"/>
      <use xlink:href="#DejaVuSans-Bold-56" transform="translate(479.734375 0)"/>
      <use xlink:href="#DejaVuSans-Bold-4c" transform="translate(539.25 0)"/>
      <use xlink:href="#DejaVuSans-Bold-52" transform="translate(573.53125 0)"/>
      <use xlink:href="#DejaVuSans-Bold-51" transform="translate(642.234375 0)"/>
     </g>
    </g>
    <g id="patch_11">
     <path d="M 422.163114 88.769757 
Q 407.302223 83.781962 393.607251 79.185487 
" style="fill: none; stroke: #3a6b35; stroke-width: 1.1; stroke-linecap: round"/>
     <path d="M 396.762984 82.354296 
L 393.607251 79.185487 
L 398.035738 78.562186 
" style="fill: none; stroke: #3a6b35; stroke-width: 1.1; stroke-linecap: round"/>
    </g>
    <g id="text_43">
     <!-- Neuroticism -->
     <g style="fill: #3a6b35" transform="translate(333.656686 75.40276) scale(0.08 -0.08)">
      <defs>
       <path id="DejaVuSans-Bold-31" d="M 588 4666 
L 1931 4666 
L 3628 1466 
L 3628 4666 
L 4769 4666 
L 4769 0 
L 3425 0 
L 1728 3200 
L 1728 0 
L 588 0 
L 588 4666 
z
" transform="scale(0.015625)"/>
       <path id="DejaVuSans-Bold-58" d="M 500 1363 
L 500 3500 
L 1625 3500 
L 1625 3150 
Q 1625 2866 1622 2436 
Q 1619 2006 1619 1863 
Q 1619 1441 1641 1255 
Q 1663 1069 1716 984 
Q 1784 875 1895 815 
Q 2006 756 2150 756 
Q 2500 756 2700 1025 
Q 2900 1294 2900 1772 
L 2900 3500 
L 4019 3500 
L 4019 0 
L 2900 0 
L 2900 506 
Q 2647 200 2364 54 
Q 2081 -91 1741 -91 
Q 1134 -91 817 281 
Q 500 653 500 1363 
z
" transform="scale(0.015625)"/>
       <path id="DejaVuSans-Bold-46" d="M 3366 3391 
L 3366 2478 
Q 3138 2634 2908 2709 
Q 2678 2784 2431 2784 
Q 1963 2784 1702 2511 
Q 1441 2238 1441 1747 
Q 1441 1256 1702 982 
Q 1963 709 2431 709 
Q 2694 709 2930 787 
Q 3166 866 3366 1019 
L 3366 103 
Q 3103 6 2833 -42 
Q 2563 -91 2291 -91 
Q 1344 -91 809 395 
Q 275 881 275 1747 
Q 275 2613 809 3098 
Q 1344 3584 2291 3584 
Q 2566 3584 2833 3536 
Q 3100 3488 3366 3391 
z
" transform="scale(0.015625)"/>
       <path id="DejaVuSans-Bold-50" d="M 3781 2919 
Q 3994 3244 4286 3414 
Q 4578 3584 4928 3584 
Q 5531 3584 5847 3212 
Q 6163 2841 6163 2131 
L 6163 0 
L 5038 0 
L 5038 1825 
Q 5041 1866 5042 1909 
Q 5044 1953 5044 2034 
Q 5044 2406 4934 2573 
Q 4825 2741 4581 2741 
Q 4263 2741 4089 2478 
Q 3916 2216 3909 1719 
L 3909 0 
L 2784 0 
L 2784 1825 
Q 2784 2406 2684 2573 
Q 2584 2741 2328 2741 
Q 2006 2741 1831 2477 
Q 1656 2213 1656 1722 
L 1656 0 
L 531 0 
L 531 3500 
L 1656 3500 
L 1656 2988 
Q 1863 3284 2130 3434 
Q 2397 3584 2719 3584 
Q 3081 3584 3359 3409 
Q 3638 3234 3781 2919 
z
" transform="scale(0.015625)"/>
      </defs>
      <use xlink:href="#DejaVuSans-Bold-31"/>
      <use xlink:href="#DejaVuSans-Bold-48" transform="translate(83.6875 0)"/>
      <use xlink:href="#DejaVuSans-Bold-58" transform="translate(151.515625 0)"/>
      <use xlink:href="#DejaVuSans-Bold-55" transform="translate(222.703125 0)"/>
      <use xlink:href="#DejaVuSans-Bold-52" transform="translate(272.015625 0)"/>
      <use xlink:href="#DejaVuSans-Bold-57" transform="translate(340.71875 0)"/>
      <use xlink:href="#DejaVuSans-Bold-4c" transform="translate(388.515625 0)"/>
      <use xlink:href="#DejaVuSans-Bold-46" transform="translate(422.796875 0)"/>
      <use xlink:href="#DejaVuSans-Bold-4c" transform="translate(482.078125 0)"/>
      <use xlink:href="#DejaVuSans-Bold-56" transform="translate(516.359375 0)"/>
      <use xlink:href="#DejaVuSans-Bold-50" transform="translate(575.875 0)"/>
     </g>
    </g>
    <g id="patch_12">
     <path d="M 424.660594 91.308837 
Q 426.626676 97.509726 428.221056 102.538293 
" style="fill: none; stroke: #3a6b35; stroke-width: 1.1; stroke-linecap: round"/>
     <path d="M 428.918577 98.120888 
L 428.221056 102.538293 
L 425.105644 99.329833 
" style="fill: none; stroke: #3a6b35; stroke-width: 1.1; stroke-linecap: round"/>
    </g>
    <g id="text_44">
     <!-- Agreeableness -->
     <g style="fill: #3a6b35" transform="translate(429.987978 114.189795) scale(0.08 -0.08)">
      <defs>
       <path id="DejaVuSans-Bold-24" d="M 3419 850 
L 1538 850 
L 1241 0 
L 31 0 
L 1759 4666 
L 3194 4666 
L 4922 0 
L 3713 0 
L 3419 850 
z
M 1838 1716 
L 3116 1716 
L 2478 3572 
L 1838 1716 
z
" transform="scale(0.015625)"/>
       <path id="DejaVuSans-Bold-4a" d="M 2919 594 
Q 2688 288 2409 144 
Q 2131 0 1766 0 
Q 1125 0 706 504 
Q 288 1009 288 1791 
Q 288 2575 706 3076 
Q 1125 3578 1766 3578 
Q 2131 3578 2409 3434 
Q 2688 3291 2919 2981 
L 2919 3500 
L 4044 3500 
L 4044 353 
Q 4044 -491 3511 -936 
Q 2978 -1381 1966 -1381 
Q 1638 -1381 1331 -1331 
Q 1025 -1281 716 -1178 
L 716 -306 
Q 1009 -475 1290 -558 
Q 1572 -641 1856 -641 
Q 2406 -641 2662 -400 
Q 2919 -159 2919 353 
L 2919 594 
z
M 2181 2772 
Q 1834 2772 1640 2515 
Q 1447 2259 1447 1791 
Q 1447 1309 1634 1061 
Q 1822 813 2181 813 
Q 2531 813 2725 1069 
Q 2919 1325 2919 1791 
Q 2919 2259 2725 2515 
Q 2531 2772 2181 2772 
z
" transform="scale(0.015625)"/>
       <path id="DejaVuSans-Bold-45" d="M 2400 722 
Q 2759 722 2948 984 
Q 3138 1247 3138 1747 
Q 3138 2247 2948 2509 
Q 2759 2772 2400 2772 
Q 2041 2772 1848 2508 
Q 1656 2244 1656 1747 
Q 1656 1250 1848 986 
Q 2041 722 2400 722 
z
M 1656 2988 
Q 1888 3294 2169 3439 
Q 2450 3584 2816 3584 
Q 3463 3584 3878 3070 
Q 4294 2556 4294 1747 
Q 4294 938 3878 423 
Q 3463 -91 2816 -91 
Q 2450 -91 2169 54 
Q 1888 200 1656 506 
L 1656 0 
L 538 0 
L 538 4863 
L 1656 4863 
L 1656 2988 
z
" transform="scale(0.015625)"/>
       <path id="DejaVuSans-Bold-4f" d="M 538 4863 
L 1656 4863 
L 1656 0 
L 538 0 
L 538 4863 
z
" transform="scale(0.015625)"/>
      </defs>
      <use xlink:href="#DejaVuSans-Bold-24"/>
      <use xlink:href="#DejaVuSans-Bold-4a" transform="translate(77.390625 0)"/>
      <use xlink:href="#DejaVuSans-Bold-55" transform="translate(148.96875 0)"/>
      <use xlink:href="#DejaVuSans-Bold-48" transform="translate(198.28125 0)"/>
      <use xlink:href="#DejaVuSans-Bold-48" transform="translate(266.109375 0)"/>
      <use xlink:href="#DejaVuSans-Bold-44" transform="translate(333.9375 0)"/>
      <use xlink:href="#DejaVuSans-Bold-45" transform="translate(401.421875 0)"/>
      <use xlink:href="#DejaVuSans-Bold-4f" transform="translate(473 0)"/>
      <use xlink:href="#DejaVuSans-Bold-48" transform="translate(507.28125 0)"/>
      <use xlink:href="#DejaVuSans-Bold-51" transform="translate(575.109375 0)"/>
      <use xlink:href="#DejaVuSans-Bold-48" transform="translate(646.296875 0)"/>
      <use xlink:href="#DejaVuSans-Bold-56" transform="translate(714.125 0)"/>
      <use xlink:href="#DejaVuSans-Bold-56" transform="translate(773.640625 0)"/>
     </g>
    </g>
    <g id="patch_13">
     <path d="M 423.139924 91.185616 
Q 420.899443 95.534275 419.222225 98.789667 
" style="fill: none; stroke: #3a6b35; stroke-width: 1.1; stroke-linecap: round"/>
     <path d="M 422.832127 96.149855 
L 419.222225 98.789667 
L 419.276316 94.317858 
" style="fill: none; stroke: #3a6b35; stroke-width: 1.1; stroke-linecap: round"/>
    </g>
    <g id="text_45">
     <!-- Conscientiousness -->
     <g style="fill: #3a6b35" transform="translate(332.951021 110.067643) scale(0.08 -0.08)">
      <defs>
       <path id="DejaVuSans-Bold-26" d="M 4288 256 
Q 3956 84 3597 -3 
Q 3238 -91 2847 -91 
Q 1681 -91 1000 561 
Q 319 1213 319 2328 
Q 319 3447 1000 4098 
Q 1681 4750 2847 4750 
Q 3238 4750 3597 4662 
Q 3956 4575 4288 4403 
L 4288 3438 
Q 3953 3666 3628 3772 
Q 3303 3878 2944 3878 
Q 2300 3878 1931 3465 
Q 1563 3053 1563 2328 
Q 1563 1606 1931 1193 
Q 2300 781 2944 781 
Q 3303 781 3628 887 
Q 3953 994 4288 1222 
L 4288 256 
z
" transform="scale(0.015625)"/>
      </defs>
      <use xlink:href="#DejaVuSans-Bold-26"/>
      <use xlink:href="#DejaVuSans-Bold-52" transform="translate(73.390625 0)"/>
      <use xlink:href="#DejaVuSans-Bold-51" transform="translate(142.09375 0)"/>
      <use xlink:href="#DejaVuSans-Bold-56" transform="translate(213.28125 0)"/>
      <use xlink:href="#DejaVuSans-Bold-46" transform="translate(272.796875 0)"/>
      <use xlink:href="#DejaVuSans-Bold-4c" transform="translate(332.078125 0)"/>
      <use xlink:href="#DejaVuSans-Bold-48" transform="translate(366.359375 0)"/>
      <use xlink:href="#DejaVuSans-Bold-51" transform="translate(434.1875 0)"/>
      <use xlink:href="#DejaVuSans-Bold-57" transform="translate(505.375 0)"/>
      <use xlink:href="#DejaVuSans-Bold-4c" transform="translate(553.171875 0)"/>
      <use xlink:href="#DejaVuSans-Bold-52" transform="translate(587.453125 0)"/>
      <use xlink:href="#DejaVuSans-Bold-58" transform="translate(656.15625 0)"/>
      <use xlink:href="#DejaVuSans-Bold-56" transform="translate(727.34375 0)"/>
      <use xlink:href="#DejaVuSans-Bold-51" transform="translate(786.859375 0)"/>
      <use xlink:href="#DejaVuSans-Bold-48" transform="translate(858.046875 0)"/>
      <use xlink:href="#DejaVuSans-Bold-56" transform="translate(925.875 0)"/>
      <use xlink:href="#DejaVuSans-Bold-56" transform="translate(985.390625 0)"/>
     </g>
    </g>
    <g id="patch_14">
     <path d="M 425.077646 87.689759 
Q 433.621208 73.326942 441.53604 60.021102 
" style="fill: none; stroke: #3a6b35; stroke-width: 1.1; stroke-linecap: round"/>
     <path d="M 437.772231 62.436415 
L 441.53604 60.021102 
L 441.210006 64.481337 
" style="fill: none; stroke: #3a6b35; stroke-width: 1.1; stroke-linecap: round"/>
    </g>
    <g id="text_46">
     <!-- Openness -->
     <g style="fill: #3a6b35" transform="translate(444.527551 53.070116) scale(0.08 -0.08)">
      <defs>
       <path id="DejaVuSans-Bold-32" d="M 2719 3878 
Q 2169 3878 1866 3472 
Q 1563 3066 1563 2328 
Q 1563 1594 1866 1187 
Q 2169 781 2719 781 
Q 3272 781 3575 1187 
Q 3878 1594 3878 2328 
Q 3878 3066 3575 3472 
Q 3272 3878 2719 3878 
z
M 2719 4750 
Q 3844 4750 4481 4106 
Q 5119 3463 5119 2328 
Q 5119 1197 4481 553 
Q 3844 -91 2719 -91 
Q 1597 -91 958 553 
Q 319 1197 319 2328 
Q 319 3463 958 4106 
Q 1597 4750 2719 4750 
z
" transform="scale(0.015625)"/>
       <path id="DejaVuSans-Bold-53" d="M 1656 506 
L 1656 -1331 
L 538 -1331 
L 538 3500 
L 1656 3500 
L 1656 2988 
Q 1888 3294 2169 3439 
Q 2450 3584 2816 3584 
Q 3463 3584 3878 3070 
Q 4294 2556 4294 1747 
Q 4294 938 3878 423 
Q 3463 -91 2816 -91 
Q 2450 -91 2169 54 
Q 1888 200 1656 506 
z
M 2400 2772 
Q 2041 2772 1848 2508 
Q 1656 2244 1656 1747 
Q 1656 1250 1848 986 
Q 2041 722 2400 722 
Q 2759 722 2948 984 
Q 3138 1247 3138 1747 
Q 3138 2247 2948 2509 
Q 2759 2772 2400 2772 
z
" transform="scale(0.015625)"/>
      </defs>
      <use xlink:href="#DejaVuSans-Bold-32"/>
      <use xlink:href="#DejaVuSans-Bold-53" transform="translate(85.015625 0)"/>
      <use xlink:href="#DejaVuSans-Bold-48" transform="translate(156.59375 0)"/>
      <use xlink:href="#DejaVuSans-Bold-51" transform="translate(224.421875 0)"/>
      <use xlink:href="#DejaVuSans-Bold-51" transform="translate(295.609375 0)"/>
      <use xlink:href="#DejaVuSans-Bold-48" transform="translate(366.796875 0)"/>
      <use xlink:href="#DejaVuSans-Bold-56" transform="translate(434.625 0)"/>
      <use xlink:href="#DejaVuSans-Bold-56" transform="translate(494.140625 0)"/>
     </g>
    </g>
    <g id="text_47">
     <!-- Big Five compass -->
     <g style="fill: #3a6b35" transform="translate(375.177406 30.272437) scale(0.1 -0.1)">
      <defs>
       <path id="DejaVuSans-Bold-25" d="M 2456 2859 
Q 2741 2859 2887 2984 
Q 3034 3109 3034 3353 
Q 3034 3594 2887 3720 
Q 2741 3847 2456 3847 
L 1791 3847 
L 1791 2859 
L 2456 2859 
z
M 2497 819 
Q 2859 819 3042 972 
Q 3225 1125 3225 1434 
Q 3225 1738 3044 1889 
Q 2863 2041 2497 2041 
L 1791 2041 
L 1791 819 
L 2497 819 
z
M 3616 2497 
Q 4003 2384 4215 2081 
Q 4428 1778 4428 1338 
Q 4428 663 3972 331 
Q 3516 0 2584 0 
L 588 0 
L 588 4666 
L 2394 4666 
Q 3366 4666 3802 4372 
Q 4238 4078 4238 3431 
Q 4238 3091 4078 2852 
Q 3919 2613 3616 2497 
z
" transform="scale(0.015625)"/>
       <path id="DejaVuSans-Bold-3" transform="scale(0.015625)"/>
       <path id="DejaVuSans-Bold-29" d="M 588 4666 
L 3834 4666 
L 3834 3756 
L 1791 3756 
L 1791 2888 
L 3713 2888 
L 3713 1978 
L 1791 1978 
L 1791 0 
L 588 0 
L 588 4666 
z
" transform="scale(0.015625)"/>
      </defs>
      <use xlink:href="#DejaVuSans-Bold-25"/>
      <use xlink:href="#DejaVuSans-Bold-4c" transform="translate(76.21875 0)"/>
      <use xlink:href="#DejaVuSans-Bold-4a" transform="translate(110.5 0)"/>
      <use xlink:href="#DejaVuSans-Bold-3" transform="translate(182.078125 0)"/>
      <use xlink:href="#DejaVuSans-Bold-29" transform="translate(216.890625 0)"/>
      <use xlink:href="#DejaVuSans-Bold-4c" transform="translate(285.203125 0)"/>
      <use xlink:href="#DejaVuSans-Bold-59" transform="translate(319.484375 0)"/>
      <use xlink:href="#DejaVuSans-Bold-48" transform="translate(384.671875 0)"/>
      <use xlink:href="#DejaVuSans-Bold-3" transform="translate(452.5 0)"/>
      <use xlink:href="#DejaVuSans-Bold-46" transform="translate(487.3125 0)"/>
      <use xlink:href="#DejaVuSans-Bold-52" transform="translate(546.59375 0)"/>
      <use xlink:href="#DejaVuSans-Bold-50" transform="translate(615.296875 0)"/>
      <use xlink:href="#DejaVuSans-Bold-53" transform="translate(719.5 0)"/>
      <use xlink:href="#DejaVuSans-Bold-44" transform="translate(791.078125 0)"/>
      <use xlink:href="#DejaVuSans-Bold-56" transform="translate(858.5625 0)"/>
      <use xlink:href="#DejaVuSans-Bold-56" transform="translate(918.078125 0)"/>
     </g>
    </g>
   </g>
   <g id="PathCollection_2">
    <defs>
     <path id="m226e9556f1" d="M -5.477226 5.477226 
L 5.477226 5.477226 
L 5.477226 -5.477226 
L -5.477226 -5.477226 
z
" style="stroke: #ffffff; stroke-width: 1.2"/>
    </defs>
    <g clip-path="url(#p786f0af95c)">
     <use xlink:href="#m226e9556f1" x="165.776316" y="420.305334" style="fill: #c2702f; stroke: #ffffff; stroke-width: 1.2"/>
    </g>
   </g>
   <g id="PathCollection_3">
    <defs>
     <path id="m05979b7340" d="M 0 -5.477226 
L -5.477226 5.477226 
L 5.477226 5.477226 
z
" style="stroke: #ffffff; stroke-width: 1.2"/>
    </defs>
    <g clip-path="url(#p786f0af95c)">
     <use xlink:href="#m05979b7340" x="85.033734" y="330.281821" style="fill: #8a5a9c; stroke: #ffffff; stroke-width: 1.2"/>
    </g>
   </g>
   <g id="PathCollection_4">
    <defs>
     <path id="ma8ca122203" d="M 0 5.477226 
C 1.452577 5.477226 2.845856 4.900111 3.872983 3.872983 
C 4.900111 2.845856 5.477226 1.452577 5.477226 0 
C 5.477226 -1.452577 4.900111 -2.845856 3.872983 -3.872983 
C 2.845856 -4.900111 1.452577 -5.477226 0 -5.477226 
C -1.452577 -5.477226 -2.845856 -4.900111 -3.872983 -3.872983 
C -4.900111 -2.845856 -5.477226 -1.452577 -5.477226 0 
C -5.477226 1.452577 -4.900111 2.845856 -3.872983 3.872983 
C -2.845856 4.900111 -1.452577 5.477226 0 5.477226 
z
" style="stroke: #ffffff; stroke-width: 1.2"/>
    </defs>
    <g clip-path="url(#p786f0af95c)">
     <use xlink:href="#ma8ca122203" x="85.464438" y="359.72999" style="fill: #33688f; stroke: #ffffff; stroke-width: 1.2"/>
    </g>
   </g>
   <g id="text_48">
    <!-- +C=+1.00 -->
    <g style="fill: #c2702f" transform="translate(174.776316 413.643225) scale(0.09 -0.09)">
     <defs>
      <path id="DejaVuSans-Bold-e" d="M 3053 4013 
L 3053 2375 
L 4684 2375 
L 4684 1638 
L 3053 1638 
L 3053 0 
L 2309 0 
L 2309 1638 
L 678 1638 
L 678 2375 
L 2309 2375 
L 2309 4013 
L 3053 4013 
z
" transform="scale(0.015625)"/>
      <path id="DejaVuSans-Bold-20" d="M 678 3084 
L 4684 3084 
L 4684 2350 
L 678 2350 
L 678 3084 
z
M 678 1663 
L 4684 1663 
L 4684 922 
L 678 922 
L 678 1663 
z
" transform="scale(0.015625)"/>
      <path id="DejaVuSans-Bold-14" d="M 750 831 
L 1813 831 
L 1813 3847 
L 722 3622 
L 722 4441 
L 1806 4666 
L 2950 4666 
L 2950 831 
L 4013 831 
L 4013 0 
L 750 0 
L 750 831 
z
" transform="scale(0.015625)"/>
      <path id="DejaVuSans-Bold-11" d="M 653 1209 
L 1778 1209 
L 1778 0 
L 653 0 
L 653 1209 
z
" transform="scale(0.015625)"/>
      <path id="DejaVuSans-Bold-13" d="M 2944 2338 
Q 2944 3213 2780 3570 
Q 2616 3928 2228 3928 
Q 1841 3928 1675 3570 
Q 1509 3213 1509 2338 
Q 1509 1453 1675 1090 
Q 1841 728 2228 728 
Q 2613 728 2778 1090 
Q 2944 1453 2944 2338 
z
M 4147 2328 
Q 4147 1169 3647 539 
Q 3147 -91 2228 -91 
Q 1306 -91 806 539 
Q 306 1169 306 2328 
Q 306 3491 806 4120 
Q 1306 4750 2228 4750 
Q 3147 4750 3647 4120 
Q 4147 3491 4147 2328 
z
" transform="scale(0.015625)"/>
     </defs>
     <use xlink:href="#DejaVuSans-Bold-e"/>
     <use xlink:href="#DejaVuSans-Bold-26" transform="translate(83.796875 0)"/>
     <use xlink:href="#DejaVuSans-Bold-20" transform="translate(157.1875 0)"/>
     <use xlink:href="#DejaVuSans-Bold-e" transform="translate(240.984375 0)"/>
     <use xlink:href="#DejaVuSans-Bold-14" transform="translate(324.78125 0)"/>
     <use xlink:href="#DejaVuSans-Bold-11" transform="translate(394.359375 0)"/>
     <use xlink:href="#DejaVuSans-Bold-13" transform="translate(432.34375 0)"/>
     <use xlink:href="#DejaVuSans-Bold-13" transform="translate(501.921875 0)"/>
    </g>
   </g>
   <g id="text_49">
    <!-- -C=-1.00 -->
    <g style="fill: #8a5a9c" transform="translate(32.212172 333.619711) scale(0.09 -0.09)">
     <defs>
      <path id="DejaVuSans-Bold-10" d="M 347 2297 
L 2309 2297 
L 2309 1388 
L 347 1388 
L 347 2297 
z
" transform="scale(0.015625)"/>
     </defs>
     <use xlink:href="#DejaVuSans-Bold-10"/>
     <use xlink:href="#DejaVuSans-Bold-26" transform="translate(41.5 0)"/>
     <use xlink:href="#DejaVuSans-Bold-20" transform="translate(114.890625 0)"/>
     <use xlink:href="#DejaVuSans-Bold-10" transform="translate(198.6875 0)"/>
     <use xlink:href="#DejaVuSans-Bold-14" transform="translate(240.1875 0)"/>
     <use xlink:href="#DejaVuSans-Bold-11" transform="translate(309.765625 0)"/>
     <use xlink:href="#DejaVuSans-Bold-13" transform="translate(347.75 0)"/>
     <use xlink:href="#DejaVuSans-Bold-13" transform="translate(417.328125 0)"/>
    </g>
   </g>
   <g id="text_50">
    <!-- base (c=0) -->
    <g style="fill: #33688f" transform="translate(94.464438 375.068232) scale(0.09 -0.09)">
     <defs>
      <path id="DejaVuSans-Bold-b" d="M 2413 -844 
L 1484 -844 
Q 1006 -72 778 623 
Q 550 1319 550 2003 
Q 550 2688 779 3389 
Q 1009 4091 1484 4856 
L 2413 4856 
Q 2013 4116 1813 3408 
Q 1613 2700 1613 2009 
Q 1613 1319 1811 609 
Q 2009 -100 2413 -844 
z
" transform="scale(0.015625)"/>
      <path id="DejaVuSans-Bold-c" d="M 513 -844 
Q 913 -100 1113 609 
Q 1313 1319 1313 2009 
Q 1313 2700 1113 3408 
Q 913 4116 513 4856 
L 1441 4856 
Q 1916 4091 2145 3389 
Q 2375 2688 2375 2003 
Q 2375 1319 2147 623 
Q 1919 -72 1441 -844 
L 513 -844 
z
" transform="scale(0.015625)"/>
     </defs>
     <use xlink:href="#DejaVuSans-Bold-45"/>
     <use xlink:href="#DejaVuSans-Bold-44" transform="translate(71.578125 0)"/>
     <use xlink:href="#DejaVuSans-Bold-56" transform="translate(139.0625 0)"/>
     <use xlink:href="#DejaVuSans-Bold-48" transform="translate(198.578125 0)"/>
     <use xlink:href="#DejaVuSans-Bold-3" transform="translate(266.40625 0)"/>
     <use xlink:href="#DejaVuSans-Bold-b" transform="translate(301.21875 0)"/>
     <use xlink:href="#DejaVuSans-Bold-46" transform="translate(346.921875 0)"/>
     <use xlink:href="#DejaVuSans-Bold-20" transform="translate(406.203125 0)"/>
     <use xlink:href="#DejaVuSans-Bold-13" transform="translate(490 0)"/>
     <use xlink:href="#DejaVuSans-Bold-c" transform="translate(559.578125 0)"/>
    </g>
   </g>
  </g>
 </g>
 <defs>
  <clipPath id="p786f0af95c">
   <rect x="58.846094" y="20.798437" width="474.3" height="415.8"/>
  </clipPath>
  <clipPath id="p63ad764548">
   <rect x="367.924094" y="33.272437" width="112.266" height="112.266"/>
  </clipPath>
 </defs>
</svg>
