<?xml version="1.0" encoding="utf-8" standalone="no"?>
<!DOCTYPE svg PUBLIC "-//W3C//DTD SVG 1.1//EN"
  "http://www.w3.org/Graphics/SVG/1.1/DTD/svg11.dtd">
<svg xmlns:xlink="http://www.w3.org/1999/xlink" width="452.134063pt" height="294.879297pt" viewBox="0 0 452.134063 294.879297" xmlns="http://www.w3.org/2000/svg" version="1.1">
 <metadata>
  <rdf:RDF xmlns:dc="http://purl.org/dc/elements/1.1/" xmlns:cc="http://creativecommons.org/ns#" xmlns:rdf="http://www.w3.org/1999/02/22-rdf-syntax-ns#">
   <cc:Work>
    <dc:type rdf:resource="http://purl.org/dc/dcmitype/StillImage"/>
    <dc:date>2026-06-25T02:57:23.678021</dc:date>
    <dc:format>image/svg+xml</dc:format>
    <dc:creator>
     <cc:Agent>
      <dc:title>Matplotlib v3.11.0, https://matplotlib.org/</dc:title>
     </cc:Agent>
    </dc:creator>
   </cc:Work>
  </rdf:RDF>
 </metadata>
 <defs>
  <style type="text/css">*{stroke-linejoin: round; stroke-linecap: butt}</style>
 </defs>
 <g id="figure_1">
  <g id="patch_1">
   <path d="M 0 294.879297 
L 452.134063 294.879297 
L 452.134063 0 
L 0 0 
z
" style="fill: #ffffff"/>
  </g>
  <g id="axes_1">
   <g id="patch_2">
    <path d="M 79.514063 256.678516 
L 444.934062 256.678516 
L 444.934062 21.558281 
L 79.514063 21.558281 
z
" style="fill: #ffffff"/>
   </g>
   <g id="line2d_1">
    <path d="M 200.18035 256.678516 
L 200.18035 21.558281 
" clip-path="url(#p36aa73580d)" style="fill: none; stroke: #999999; stroke-width: 0.8; stroke-linecap: square"/>
   </g>
   <g id="PathCollection_1"/>
   <g id="PathCollection_2"/>
   <g id="matplotlib.axis_1">
    <g id="xtick_1">
     <g id="line2d_2">
      <defs>
       <path id="m1437f3366d" d="M 0 0 
L 0 3.5 
" style="stroke: #000000; stroke-width: 0.8"/>
      </defs>
      <g>
       <use xlink:href="#m1437f3366d" x="96.126069" y="256.678516" style="stroke: #000000; stroke-width: 0.8"/>
      </g>
     </g>
     <g id="text_1">
      <!-- −1.0 -->
      <g transform="translate(83.984662 271.276172) scale(0.1 -0.1)">
       <defs>
        <path id="DejaVuSans-c9c" d="M 678 2272 
L 4684 2272 
L 4684 1741 
L 678 1741 
L 678 2272 
z
" transform="scale(0.015625)"/>
        <path id="DejaVuSans-14" d="M 794 531 
L 1825 531 
L 1825 4091 
L 703 3866 
L 703 4441 
L 1819 4666 
L 2450 4666 
L 2450 531 
L 3481 531 
L 3481 0 
L 794 0 
L 794 531 
z
" transform="scale(0.015625)"/>
        <path id="DejaVuSans-11" d="M 684 794 
L 1344 794 
L 1344 0 
L 684 0 
L 684 794 
z
" transform="scale(0.015625)"/>
        <path id="DejaVuSans-13" d="M 2034 4250 
Q 1547 4250 1301 3770 
Q 1056 3291 1056 2328 
Q 1056 1369 1301 889 
Q 1547 409 2034 409 
Q 2525 409 2770 889 
Q 3016 1369 3016 2328 
Q 3016 3291 2770 3770 
Q 2525 4250 2034 4250 
z
M 2034 4750 
Q 2819 4750 3233 4129 
Q 3647 3509 3647 2328 
Q 3647 1150 3233 529 
Q 2819 -91 2034 -91 
Q 1250 -91 836 529 
Q 422 1150 422 2328 
Q 422 3509 836 4129 
Q 1250 4750 2034 4750 
z
" transform="scale(0.015625)"/>
       </defs>
       <use xlink:href="#DejaVuSans-c9c"/>
       <use xlink:href="#DejaVuSans-14" transform="translate(83.796875 0)"/>
       <use xlink:href="#DejaVuSans-11" transform="translate(147.421875 0)"/>
       <use xlink:href="#DejaVuSans-13" transform="translate(179.203125 0)"/>
      </g>
     </g>
    </g>
    <g id="xtick_2">
     <g id="line2d_3">
      <g>
       <use xlink:href="#m1437f3366d" x="148.153209" y="256.678516" style="stroke: #000000; stroke-width: 0.8"/>
      </g>
     </g>
     <g id="text_2">
      <!-- −0.5 -->
      <g transform="translate(136.011803 271.276172) scale(0.1 -0.1)">
       <defs>
        <path id="DejaVuSans-18" d="M 691 4666 
L 3169 4666 
L 3169 4134 
L 1269 4134 
L 1269 2991 
Q 1406 3038 1543 3061 
Q 1681 3084 1819 3084 
Q 2600 3084 3056 2656 
Q 3513 2228 3513 1497 
Q 3513 744 3044 326 
Q 2575 -91 1722 -91 
Q 1428 -91 1123 -41 
Q 819 9 494 109 
L 494 744 
Q 775 591 1075 516 
Q 1375 441 1709 441 
Q 2250 441 2565 725 
Q 2881 1009 2881 1497 
Q 2881 1984 2565 2268 
Q 2250 2553 1709 2553 
Q 1456 2553 1204 2497 
Q 953 2441 691 2322 
L 691 4666 
z
" transform="scale(0.015625)"/>
       </defs>
       <use xlink:href="#DejaVuSans-c9c"/>
       <use xlink:href="#DejaVuSans-13" transform="translate(83.796875 0)"/>
       <use xlink:href="#DejaVuSans-11" transform="translate(147.421875 0)"/>
       <use xlink:href="#DejaVuSans-18" transform="translate(179.203125 0)"/>
      </g>
     </g>
    </g>
    <g id="xtick_3">
     <g id="line2d_4">
      <g>
       <use xlink:href="#m1437f3366d" x="200.18035" y="256.678516" style="stroke: #000000; stroke-width: 0.8"/>
      </g>
     </g>
     <g id="text_3">
      <!-- 0.0 -->
      <g transform="translate(192.228787 271.276172) scale(0.1 -0.1)">
       <use xlink:href="#DejaVuSans-13"/>
       <use xlink:href="#DejaVuSans-11" transform="translate(63.625 0)"/>
       <use xlink:href="#DejaVuSans-13" transform="translate(95.40625 0)"/>
      </g>
     </g>
    </g>
    <g id="xtick_4">
     <g id="line2d_5">
      <g>
       <use xlink:href="#m1437f3366d" x="252.20749" y="256.678516" style="stroke: #000000; stroke-width: 0.8"/>
      </g>
     </g>
     <g id="text_4">
      <!-- 0.5 -->
      <g transform="translate(244.255928 271.276172) scale(0.1 -0.1)">
       <use xlink:href="#DejaVuSans-13"/>
       <use xlink:href="#DejaVuSans-11" transform="translate(63.625 0)"/>
       <use xlink:href="#DejaVuSans-18" transform="translate(95.40625 0)"/>
      </g>
     </g>
    </g>
    <g id="xtick_5">
     <g id="line2d_6">
      <g>
       <use xlink:href="#m1437f3366d" x="304.234631" y="256.678516" style="stroke: #000000; stroke-width: 0.8"/>
      </g>
     </g>
     <g id="text_5">
      <!-- 1.0 -->
      <g transform="translate(296.283068 271.276172) scale(0.1 -0.1)">
       <use xlink:href="#DejaVuSans-14"/>
       <use xlink:href="#DejaVuSans-11" transform="translate(63.625 0)"/>
       <use xlink:href="#DejaVuSans-13" transform="translate(95.40625 0)"/>
      </g>
     </g>
    </g>
    <g id="xtick_6">
     <g id="line2d_7">
      <g>
       <use xlink:href="#m1437f3366d" x="356.261771" y="256.678516" style="stroke: #000000; stroke-width: 0.8"/>
      </g>
     </g>
     <g id="text_6">
      <!-- 1.5 -->
      <g transform="translate(348.310209 271.276172) scale(0.1 -0.1)">
       <use xlink:href="#DejaVuSans-14"/>
       <use xlink:href="#DejaVuSans-11" transform="translate(63.625 0)"/>
       <use xlink:href="#DejaVuSans-18" transform="translate(95.40625 0)"/>
      </g>
     </g>
    </g>
    <g id="xtick_7">
     <g id="line2d_8">
      <g>
       <use xlink:href="#m1437f3366d" x="408.288912" y="256.678516" style="stroke: #000000; stroke-width: 0.8"/>
      </g>
     </g>
     <g id="text_7">
      <!-- 2.0 -->
      <g transform="translate(400.337349 271.276172) scale(0.1 -0.1)">
       <defs>
        <path id="DejaVuSans-15" d="M 1228 531 
L 3431 531 
L 3431 0 
L 469 0 
L 469 531 
Q 828 903 1448 1529 
Q 2069 2156 2228 2338 
Q 2531 2678 2651 2914 
Q 2772 3150 2772 3378 
Q 2772 3750 2511 3984 
Q 2250 4219 1831 4219 
Q 1534 4219 1204 4116 
Q 875 4013 500 3803 
L 500 4441 
Q 881 4594 1212 4672 
Q 1544 4750 1819 4750 
Q 2544 4750 2975 4387 
Q 3406 4025 3406 3419 
Q 3406 3131 3298 2873 
Q 3191 2616 2906 2266 
Q 2828 2175 2409 1742 
Q 1991 1309 1228 531 
z
" transform="scale(0.015625)"/>
       </defs>
       <use xlink:href="#DejaVuSans-15"/>
       <use xlink:href="#DejaVuSans-11" transform="translate(63.625 0)"/>
       <use xlink:href="#DejaVuSans-13" transform="translate(95.40625 0)"/>
      </g>
     </g>
    </g>
    <g id="text_8">
     <!-- Delta logit(violation) vs bare  (nats) -->
     <g transform="translate(173.10375 285.276953) scale(0.1 -0.1)">
      <defs>
       <path id="DejaVuSans-27" d="M 1259 4147 
L 1259 519 
L 2022 519 
Q 2988 519 3436 956 
Q 3884 1394 3884 2338 
Q 3884 3275 3436 3711 
Q 2988 4147 2022 4147 
L 1259 4147 
z
M 628 4666 
L 1925 4666 
Q 3281 4666 3915 4102 
Q 4550 3538 4550 2338 
Q 4550 1131 3912 565 
Q 3275 0 1925 0 
L 628 0 
L 628 4666 
z
" transform="scale(0.015625)"/>
       <path id="DejaVuSans-48" d="M 3597 1894 
L 3597 1613 
L 953 1613 
Q 991 1019 1311 708 
Q 1631 397 2203 397 
Q 2534 397 2845 478 
Q 3156 559 3463 722 
L 3463 178 
Q 3153 47 2828 -22 
Q 2503 -91 2169 -91 
Q 1331 -91 842 396 
Q 353 884 353 1716 
Q 353 2575 817 3079 
Q 1281 3584 2069 3584 
Q 2775 3584 3186 3129 
Q 3597 2675 3597 1894 
z
M 3022 2063 
Q 3016 2534 2758 2815 
Q 2500 3097 2075 3097 
Q 1594 3097 1305 2825 
Q 1016 2553 972 2059 
L 3022 2063 
z
" transform="scale(0.015625)"/>
       <path id="DejaVuSans-4f" d="M 603 4863 
L 1178 4863 
L 1178 0 
L 603 0 
L 603 4863 
z
" transform="scale(0.015625)"/>
       <path id="DejaVuSans-57" d="M 1172 4494 
L 1172 3500 
L 2356 3500 
L 2356 3053 
L 1172 3053 
L 1172 1153 
Q 1172 725 1289 603 
Q 1406 481 1766 481 
L 2356 481 
L 2356 0 
L 1766 0 
Q 1100 0 847 248 
Q 594 497 594 1153 
L 594 3053 
L 172 3053 
L 172 3500 
L 594 3500 
L 594 4494 
L 1172 4494 
z
" transform="scale(0.015625)"/>
       <path id="DejaVuSans-44" d="M 2194 1759 
Q 1497 1759 1228 1600 
Q 959 1441 959 1056 
Q 959 750 1161 570 
Q 1363 391 1709 391 
Q 2188 391 2477 730 
Q 2766 1069 2766 1631 
L 2766 1759 
L 2194 1759 
z
M 3341 1997 
L 3341 0 
L 2766 0 
L 2766 531 
Q 2569 213 2275 61 
Q 1981 -91 1556 -91 
Q 1019 -91 701 211 
Q 384 513 384 1019 
Q 384 1609 779 1909 
Q 1175 2209 1959 2209 
L 2766 2209 
L 2766 2266 
Q 2766 2663 2505 2880 
Q 2244 3097 1772 3097 
Q 1472 3097 1187 3025 
Q 903 2953 641 2809 
L 641 3341 
Q 956 3463 1253 3523 
Q 1550 3584 1831 3584 
Q 2591 3584 2966 3190 
Q 3341 2797 3341 1997 
z
" transform="scale(0.015625)"/>
       <path id="DejaVuSans-3" transform="scale(0.015625)"/>
       <path id="DejaVuSans-52" d="M 1959 3097 
Q 1497 3097 1228 2736 
Q 959 2375 959 1747 
Q 959 1119 1226 758 
Q 1494 397 1959 397 
Q 2419 397 2687 759 
Q 2956 1122 2956 1747 
Q 2956 2369 2687 2733 
Q 2419 3097 1959 3097 
z
M 1959 3584 
Q 2709 3584 3137 3096 
Q 3566 2609 3566 1747 
Q 3566 888 3137 398 
Q 2709 -91 1959 -91 
Q 1206 -91 779 398 
Q 353 888 353 1747 
Q 353 2609 779 3096 
Q 1206 3584 1959 3584 
z
" transform="scale(0.015625)"/>
       <path id="DejaVuSans-4a" d="M 2906 1791 
Q 2906 2416 2648 2759 
Q 2391 3103 1925 3103 
Q 1463 3103 1205 2759 
Q 947 2416 947 1791 
Q 947 1169 1205 825 
Q 1463 481 1925 481 
Q 2391 481 2648 825 
Q 2906 1169 2906 1791 
z
M 3481 434 
Q 3481 -459 3084 -895 
Q 2688 -1331 1869 -1331 
Q 1566 -1331 1297 -1286 
Q 1028 -1241 775 -1147 
L 775 -588 
Q 1028 -725 1275 -790 
Q 1522 -856 1778 -856 
Q 2344 -856 2625 -561 
Q 2906 -266 2906 331 
L 2906 616 
Q 2728 306 2450 153 
Q 2172 0 1784 0 
Q 1141 0 747 490 
Q 353 981 353 1791 
Q 353 2603 747 3093 
Q 1141 3584 1784 3584 
Q 2172 3584 2450 3431 
Q 2728 3278 2906 2969 
L 2906 3500 
L 3481 3500 
L 3481 434 
z
" transform="scale(0.015625)"/>
       <path id="DejaVuSans-4c" d="M 603 3500 
L 1178 3500 
L 1178 0 
L 603 0 
L 603 3500 
z
M 603 4863 
L 1178 4863 
L 1178 4134 
L 603 4134 
L 603 4863 
z
" transform="scale(0.015625)"/>
       <path id="DejaVuSans-b" d="M 1984 4856 
Q 1566 4138 1362 3434 
Q 1159 2731 1159 2009 
Q 1159 1288 1364 580 
Q 1569 -128 1984 -844 
L 1484 -844 
Q 1016 -109 783 600 
Q 550 1309 550 2009 
Q 550 2706 781 3412 
Q 1013 4119 1484 4856 
L 1984 4856 
z
" transform="scale(0.015625)"/>
       <path id="DejaVuSans-59" d="M 191 3500 
L 800 3500 
L 1894 563 
L 2988 3500 
L 3597 3500 
L 2284 0 
L 1503 0 
L 191 3500 
z
" transform="scale(0.015625)"/>
       <path id="DejaVuSans-51" d="M 3513 2113 
L 3513 0 
L 2938 0 
L 2938 2094 
Q 2938 2591 2744 2837 
Q 2550 3084 2163 3084 
Q 1697 3084 1428 2787 
Q 1159 2491 1159 1978 
L 1159 0 
L 581 0 
L 581 3500 
L 1159 3500 
L 1159 2956 
Q 1366 3272 1645 3428 
Q 1925 3584 2291 3584 
Q 2894 3584 3203 3211 
Q 3513 2838 3513 2113 
z
" transform="scale(0.015625)"/>
       <path id="DejaVuSans-c" d="M 513 4856 
L 1013 4856 
Q 1481 4119 1714 3412 
Q 1947 2706 1947 2009 
Q 1947 1309 1714 600 
Q 1481 -109 1013 -844 
L 513 -844 
Q 928 -128 1133 580 
Q 1338 1288 1338 2009 
Q 1338 2731 1133 3434 
Q 928 4138 513 4856 
z
" transform="scale(0.015625)"/>
       <path id="DejaVuSans-56" d="M 2834 3397 
L 2834 2853 
Q 2591 2978 2328 3040 
Q 2066 3103 1784 3103 
Q 1356 3103 1142 2972 
Q 928 2841 928 2578 
Q 928 2378 1081 2264 
Q 1234 2150 1697 2047 
L 1894 2003 
Q 2506 1872 2764 1633 
Q 3022 1394 3022 966 
Q 3022 478 2636 193 
Q 2250 -91 1575 -91 
Q 1294 -91 989 -36 
Q 684 19 347 128 
L 347 722 
Q 666 556 975 473 
Q 1284 391 1588 391 
Q 1994 391 2212 530 
Q 2431 669 2431 922 
Q 2431 1156 2273 1281 
Q 2116 1406 1581 1522 
L 1381 1569 
Q 847 1681 609 1914 
Q 372 2147 372 2553 
Q 372 3047 722 3315 
Q 1072 3584 1716 3584 
Q 2034 3584 2315 3537 
Q 2597 3491 2834 3397 
z
" transform="scale(0.015625)"/>
       <path id="DejaVuSans-45" d="M 3116 1747 
Q 3116 2381 2855 2742 
Q 2594 3103 2138 3103 
Q 1681 3103 1420 2742 
Q 1159 2381 1159 1747 
Q 1159 1113 1420 752 
Q 1681 391 2138 391 
Q 2594 391 2855 752 
Q 3116 1113 3116 1747 
z
M 1159 2969 
Q 1341 3281 1617 3432 
Q 1894 3584 2278 3584 
Q 2916 3584 3314 3078 
Q 3713 2572 3713 1747 
Q 3713 922 3314 415 
Q 2916 -91 2278 -91 
Q 1894 -91 1617 61 
Q 1341 213 1159 525 
L 1159 0 
L 581 0 
L 581 4863 
L 1159 4863 
L 1159 2969 
z
" transform="scale(0.015625)"/>
       <path id="DejaVuSans-55" d="M 2631 2963 
Q 2534 3019 2420 3045 
Q 2306 3072 2169 3072 
Q 1681 3072 1420 2755 
Q 1159 2438 1159 1844 
L 1159 0 
L 581 0 
L 581 3500 
L 1159 3500 
L 1159 2956 
Q 1341 3275 1631 3429 
Q 1922 3584 2338 3584 
Q 2397 3584 2469 3576 
Q 2541 3569 2628 3553 
L 2631 2963 
z
" transform="scale(0.015625)"/>
      </defs>
      <use xlink:href="#DejaVuSans-27"/>
      <use xlink:href="#DejaVuSans-48" transform="translate(77 0)"/>
      <use xlink:href="#DejaVuSans-4f" transform="translate(138.53125 0)"/>
      <use xlink:href="#DejaVuSans-57" transform="translate(166.3125 0)"/>
      <use xlink:href="#DejaVuSans-44" transform="translate(205.515625 0)"/>
      <use xlink:href="#DejaVuSans-3" transform="translate(266.796875 0)"/>
      <use xlink:href="#DejaVuSans-4f" transform="translate(298.578125 0)"/>
      <use xlink:href="#DejaVuSans-52" transform="translate(326.359375 0)"/>
      <use xlink:href="#DejaVuSans-4a" transform="translate(387.546875 0)"/>
      <use xlink:href="#DejaVuSans-4c" transform="translate(451.03125 0)"/>
      <use xlink:href="#DejaVuSans-57" transform="translate(478.8125 0)"/>
      <use xlink:href="#DejaVuSans-b" transform="translate(518.015625 0)"/>
      <use xlink:href="#DejaVuSans-59" transform="translate(557.03125 0)"/>
      <use xlink:href="#DejaVuSans-4c" transform="translate(616.21875 0)"/>
      <use xlink:href="#DejaVuSans-52" transform="translate(644 0)"/>
      <use xlink:href="#DejaVuSans-4f" transform="translate(705.1875 0)"/>
      <use xlink:href="#DejaVuSans-44" transform="translate(732.96875 0)"/>
      <use xlink:href="#DejaVuSans-57" transform="translate(794.25 0)"/>
      <use xlink:href="#DejaVuSans-4c" transform="translate(833.453125 0)"/>
      <use xlink:href="#DejaVuSans-52" transform="translate(861.234375 0)"/>
      <use xlink:href="#DejaVuSans-51" transform="translate(922.421875 0)"/>
      <use xlink:href="#DejaVuSans-c" transform="translate(985.796875 0)"/>
      <use xlink:href="#DejaVuSans-3" transform="translate(1024.8125 0)"/>
      <use xlink:href="#DejaVuSans-59" transform="translate(1056.59375 0)"/>
      <use xlink:href="#DejaVuSans-56" transform="translate(1115.78125 0)"/>
      <use xlink:href="#DejaVuSans-3" transform="translate(1167.875 0)"/>
      <use xlink:href="#DejaVuSans-45" transform="translate(1199.65625 0)"/>
      <use xlink:href="#DejaVuSans-44" transform="translate(1263.140625 0)"/>
      <use xlink:href="#DejaVuSans-55" transform="translate(1324.421875 0)"/>
      <use xlink:href="#DejaVuSans-48" transform="translate(1363.328125 0)"/>
      <use xlink:href="#DejaVuSans-3" transform="translate(1424.859375 0)"/>
      <use xlink:href="#DejaVuSans-3" transform="translate(1456.640625 0)"/>
      <use xlink:href="#DejaVuSans-b" transform="translate(1488.421875 0)"/>
      <use xlink:href="#DejaVuSans-51" transform="translate(1527.4375 0)"/>
      <use xlink:href="#DejaVuSans-44" transform="translate(1590.8125 0)"/>
      <use xlink:href="#DejaVuSans-57" transform="translate(1652.09375 0)"/>
      <use xlink:href="#DejaVuSans-56" transform="translate(1691.296875 0)"/>
      <use xlink:href="#DejaVuSans-c" transform="translate(1743.390625 0)"/>
     </g>
    </g>
   </g>
   <g id="matplotlib.axis_2">
    <g id="ytick_1">
     <g id="line2d_9">
      <defs>
       <path id="m9af9e4bafe" d="M 0 0 
L -3.5 0 
" style="stroke: #000000; stroke-width: 0.8"/>
      </defs>
      <g>
       <use xlink:href="#m9af9e4bafe" x="79.514063" y="32.245565" style="stroke: #000000; stroke-width: 0.8"/>
      </g>
     </g>
     <g id="text_9">
      <!-- Care -->
      <g transform="translate(49.359375 36.044393) scale(0.1 -0.1)">
       <defs>
        <path id="DejaVuSans-26" d="M 4122 4306 
L 4122 3641 
Q 3803 3938 3442 4084 
Q 3081 4231 2675 4231 
Q 1875 4231 1450 3742 
Q 1025 3253 1025 2328 
Q 1025 1406 1450 917 
Q 1875 428 2675 428 
Q 3081 428 3442 575 
Q 3803 722 4122 1019 
L 4122 359 
Q 3791 134 3420 21 
Q 3050 -91 2638 -91 
Q 1578 -91 968 557 
Q 359 1206 359 2328 
Q 359 3453 968 4101 
Q 1578 4750 2638 4750 
Q 3056 4750 3426 4639 
Q 3797 4528 4122 4306 
z
" transform="scale(0.015625)"/>
       </defs>
       <use xlink:href="#DejaVuSans-26"/>
       <use xlink:href="#DejaVuSans-44" transform="translate(69.828125 0)"/>
       <use xlink:href="#DejaVuSans-55" transform="translate(131.109375 0)"/>
       <use xlink:href="#DejaVuSans-48" transform="translate(170.015625 0)"/>
      </g>
     </g>
    </g>
    <g id="ytick_2">
     <g id="line2d_10">
      <g>
       <use xlink:href="#m9af9e4bafe" x="79.514063" y="67.869843" style="stroke: #000000; stroke-width: 0.8"/>
      </g>
     </g>
     <g id="text_10">
      <!-- Sanctity -->
      <g transform="translate(31.664063 71.669061) scale(0.1 -0.1)">
       <defs>
        <path id="DejaVuSans-36" d="M 3425 4513 
L 3425 3897 
Q 3066 4069 2747 4153 
Q 2428 4238 2131 4238 
Q 1616 4238 1336 4038 
Q 1056 3838 1056 3469 
Q 1056 3159 1242 3001 
Q 1428 2844 1947 2747 
L 2328 2669 
Q 3034 2534 3370 2195 
Q 3706 1856 3706 1288 
Q 3706 609 3251 259 
Q 2797 -91 1919 -91 
Q 1588 -91 1214 -16 
Q 841 59 441 206 
L 441 856 
Q 825 641 1194 531 
Q 1563 422 1919 422 
Q 2459 422 2753 634 
Q 3047 847 3047 1241 
Q 3047 1584 2836 1778 
Q 2625 1972 2144 2069 
L 1759 2144 
Q 1053 2284 737 2584 
Q 422 2884 422 3419 
Q 422 4038 858 4394 
Q 1294 4750 2059 4750 
Q 2388 4750 2728 4690 
Q 3069 4631 3425 4513 
z
" transform="scale(0.015625)"/>
        <path id="DejaVuSans-46" d="M 3122 3366 
L 3122 2828 
Q 2878 2963 2633 3030 
Q 2388 3097 2138 3097 
Q 1578 3097 1268 2742 
Q 959 2388 959 1747 
Q 959 1106 1268 751 
Q 1578 397 2138 397 
Q 2388 397 2633 464 
Q 2878 531 3122 666 
L 3122 134 
Q 2881 22 2623 -34 
Q 2366 -91 2075 -91 
Q 1284 -91 818 406 
Q 353 903 353 1747 
Q 353 2603 823 3093 
Q 1294 3584 2113 3584 
Q 2378 3584 2631 3529 
Q 2884 3475 3122 3366 
z
" transform="scale(0.015625)"/>
        <path id="DejaVuSans-5c" d="M 2059 -325 
Q 1816 -950 1584 -1140 
Q 1353 -1331 966 -1331 
L 506 -1331 
L 506 -850 
L 844 -850 
Q 1081 -850 1212 -737 
Q 1344 -625 1503 -206 
L 1606 56 
L 191 3500 
L 800 3500 
L 1894 763 
L 2988 3500 
L 3597 3500 
L 2059 -325 
z
" transform="scale(0.015625)"/>
       </defs>
       <use xlink:href="#DejaVuSans-36"/>
       <use xlink:href="#DejaVuSans-44" transform="translate(63.484375 0)"/>
       <use xlink:href="#DejaVuSans-51" transform="translate(124.765625 0)"/>
       <use xlink:href="#DejaVuSans-46" transform="translate(188.140625 0)"/>
       <use xlink:href="#DejaVuSans-57" transform="translate(243.125 0)"/>
       <use xlink:href="#DejaVuSans-4c" transform="translate(282.328125 0)"/>
       <use xlink:href="#DejaVuSans-57" transform="translate(310.109375 0)"/>
       <use xlink:href="#DejaVuSans-5c" transform="translate(349.3125 0)"/>
      </g>
     </g>
    </g>
    <g id="ytick_3">
     <g id="line2d_11">
      <g>
       <use xlink:href="#m9af9e4bafe" x="79.514063" y="103.494121" style="stroke: #000000; stroke-width: 0.8"/>
      </g>
     </g>
     <g id="text_11">
      <!-- Authority -->
      <g transform="translate(26.23125 107.293339) scale(0.1 -0.1)">
       <defs>
        <path id="DejaVuSans-24" d="M 2188 4044 
L 1331 1722 
L 3047 1722 
L 2188 4044 
z
M 1831 4666 
L 2547 4666 
L 4325 0 
L 3669 0 
L 3244 1197 
L 1141 1197 
L 716 0 
L 50 0 
L 1831 4666 
z
" transform="scale(0.015625)"/>
        <path id="DejaVuSans-58" d="M 544 1381 
L 544 3500 
L 1119 3500 
L 1119 1403 
Q 1119 906 1312 657 
Q 1506 409 1894 409 
Q 2359 409 2629 706 
Q 2900 1003 2900 1516 
L 2900 3500 
L 3475 3500 
L 3475 0 
L 2900 0 
L 2900 538 
Q 2691 219 2414 64 
Q 2138 -91 1772 -91 
Q 1169 -91 856 284 
Q 544 659 544 1381 
z
M 1991 3584 
L 1991 3584 
z
" transform="scale(0.015625)"/>
        <path id="DejaVuSans-4b" d="M 3513 2113 
L 3513 0 
L 2938 0 
L 2938 2094 
Q 2938 2591 2744 2837 
Q 2550 3084 2163 3084 
Q 1697 3084 1428 2787 
Q 1159 2491 1159 1978 
L 1159 0 
L 581 0 
L 581 4863 
L 1159 4863 
L 1159 2956 
Q 1366 3272 1645 3428 
Q 1925 3584 2291 3584 
Q 2894 3584 3203 3211 
Q 3513 2838 3513 2113 
z
" transform="scale(0.015625)"/>
       </defs>
       <use xlink:href="#DejaVuSans-24"/>
       <use xlink:href="#DejaVuSans-58" transform="translate(68.40625 0)"/>
       <use xlink:href="#DejaVuSans-57" transform="translate(131.78125 0)"/>
       <use xlink:href="#DejaVuSans-4b" transform="translate(170.984375 0)"/>
       <use xlink:href="#DejaVuSans-52" transform="translate(234.359375 0)"/>
       <use xlink:href="#DejaVuSans-55" transform="translate(295.546875 0)"/>
       <use xlink:href="#DejaVuSans-4c" transform="translate(336.65625 0)"/>
       <use xlink:href="#DejaVuSans-57" transform="translate(364.4375 0)"/>
       <use xlink:href="#DejaVuSans-5c" transform="translate(403.640625 0)"/>
      </g>
     </g>
    </g>
    <g id="ytick_4">
     <g id="line2d_12">
      <g>
       <use xlink:href="#m9af9e4bafe" x="79.514063" y="139.118398" style="stroke: #000000; stroke-width: 0.8"/>
      </g>
     </g>
     <g id="text_12">
      <!-- Loyalty -->
      <g transform="translate(36.334375 142.917617) scale(0.1 -0.1)">
       <defs>
        <path id="DejaVuSans-2f" d="M 628 4666 
L 1259 4666 
L 1259 531 
L 3531 531 
L 3531 0 
L 628 0 
L 628 4666 
z
" transform="scale(0.015625)"/>
       </defs>
       <use xlink:href="#DejaVuSans-2f"/>
       <use xlink:href="#DejaVuSans-52" transform="translate(53.96875 0)"/>
       <use xlink:href="#DejaVuSans-5c" transform="translate(115.15625 0)"/>
       <use xlink:href="#DejaVuSans-44" transform="translate(174.34375 0)"/>
       <use xlink:href="#DejaVuSans-4f" transform="translate(235.625 0)"/>
       <use xlink:href="#DejaVuSans-57" transform="translate(263.40625 0)"/>
       <use xlink:href="#DejaVuSans-5c" transform="translate(302.609375 0)"/>
      </g>
     </g>
    </g>
    <g id="ytick_5">
     <g id="line2d_13">
      <g>
       <use xlink:href="#m9af9e4bafe" x="79.514063" y="174.742676" style="stroke: #000000; stroke-width: 0.8"/>
      </g>
     </g>
     <g id="text_13">
      <!-- Fairness -->
      <g transform="translate(31.928125 178.541895) scale(0.1 -0.1)">
       <defs>
        <path id="DejaVuSans-29" d="M 628 4666 
L 3309 4666 
L 3309 4134 
L 1259 4134 
L 1259 2759 
L 3109 2759 
L 3109 2228 
L 1259 2228 
L 1259 0 
L 628 0 
L 628 4666 
z
" transform="scale(0.015625)"/>
       </defs>
       <use xlink:href="#DejaVuSans-29"/>
       <use xlink:href="#DejaVuSans-44" transform="translate(48.34375 0)"/>
       <use xlink:href="#DejaVuSans-4c" transform="translate(109.625 0)"/>
       <use xlink:href="#DejaVuSans-55" transform="translate(137.40625 0)"/>
       <use xlink:href="#DejaVuSans-51" transform="translate(176.765625 0)"/>
       <use xlink:href="#DejaVuSans-48" transform="translate(240.140625 0)"/>
       <use xlink:href="#DejaVuSans-56" transform="translate(301.671875 0)"/>
       <use xlink:href="#DejaVuSans-56" transform="translate(353.765625 0)"/>
      </g>
     </g>
    </g>
    <g id="ytick_6">
     <g id="line2d_14">
      <g>
       <use xlink:href="#m9af9e4bafe" x="79.514063" y="210.366954" style="stroke: #000000; stroke-width: 0.8"/>
      </g>
     </g>
     <g id="text_14">
      <!-- Liberty -->
      <g transform="translate(37.7125 214.166173) scale(0.1 -0.1)">
       <use xlink:href="#DejaVuSans-2f"/>
       <use xlink:href="#DejaVuSans-4c" transform="translate(55.71875 0)"/>
       <use xlink:href="#DejaVuSans-45" transform="translate(83.5 0)"/>
       <use xlink:href="#DejaVuSans-48" transform="translate(146.984375 0)"/>
       <use xlink:href="#DejaVuSans-55" transform="translate(208.515625 0)"/>
       <use xlink:href="#DejaVuSans-57" transform="translate(249.625 0)"/>
       <use xlink:href="#DejaVuSans-5c" transform="translate(288.828125 0)"/>
      </g>
     </g>
    </g>
    <g id="ytick_7">
     <g id="line2d_15">
      <g>
       <use xlink:href="#m9af9e4bafe" x="79.514063" y="245.991232" style="stroke: #000000; stroke-width: 0.8"/>
      </g>
     </g>
     <g id="text_15">
      <!-- Social Norms -->
      <g transform="translate(7.2 249.790451) scale(0.1 -0.1)">
       <defs>
        <path id="DejaVuSans-31" d="M 628 4666 
L 1478 4666 
L 3547 763 
L 3547 4666 
L 4159 4666 
L 4159 0 
L 3309 0 
L 1241 3903 
L 1241 0 
L 628 0 
L 628 4666 
z
" transform="scale(0.015625)"/>
        <path id="DejaVuSans-50" d="M 3328 2828 
Q 3544 3216 3844 3400 
Q 4144 3584 4550 3584 
Q 5097 3584 5394 3201 
Q 5691 2819 5691 2113 
L 5691 0 
L 5113 0 
L 5113 2094 
Q 5113 2597 4934 2840 
Q 4756 3084 4391 3084 
Q 3944 3084 3684 2787 
Q 3425 2491 3425 1978 
L 3425 0 
L 2847 0 
L 2847 2094 
Q 2847 2600 2669 2842 
Q 2491 3084 2119 3084 
Q 1678 3084 1418 2786 
Q 1159 2488 1159 1978 
L 1159 0 
L 581 0 
L 581 3500 
L 1159 3500 
L 1159 2956 
Q 1356 3278 1631 3431 
Q 1906 3584 2284 3584 
Q 2666 3584 2933 3390 
Q 3200 3197 3328 2828 
z
" transform="scale(0.015625)"/>
       </defs>
       <use xlink:href="#DejaVuSans-36"/>
       <use xlink:href="#DejaVuSans-52" transform="translate(63.484375 0)"/>
       <use xlink:href="#DejaVuSans-46" transform="translate(124.671875 0)"/>
       <use xlink:href="#DejaVuSans-4c" transform="translate(179.65625 0)"/>
       <use xlink:href="#DejaVuSans-44" transform="translate(207.4375 0)"/>
       <use xlink:href="#DejaVuSans-4f" transform="translate(268.71875 0)"/>
       <use xlink:href="#DejaVuSans-3" transform="translate(296.5 0)"/>
       <use xlink:href="#DejaVuSans-31" transform="translate(328.28125 0)"/>
       <use xlink:href="#DejaVuSans-52" transform="translate(403.09375 0)"/>
       <use xlink:href="#DejaVuSans-55" transform="translate(464.28125 0)"/>
       <use xlink:href="#DejaVuSans-50" transform="translate(503.640625 0)"/>
       <use xlink:href="#DejaVuSans-56" transform="translate(601.046875 0)"/>
      </g>
     </g>
    </g>
   </g>
   <g id="line2d_16">
    <path d="M 167.541863 32.245565 
L 267.803189 32.245565 
" clip-path="url(#p36aa73580d)" style="fill: none; stroke: #cccccc; stroke-linecap: square"/>
   </g>
   <g id="line2d_17">
    <path d="M 171.520198 67.869843 
L 237.144673 67.869843 
" clip-path="url(#p36aa73580d)" style="fill: none; stroke: #cccccc; stroke-linecap: square"/>
   </g>
   <g id="line2d_18">
    <path d="M 154.950955 103.494121 
L 203.075799 103.494121 
" clip-path="url(#p36aa73580d)" style="fill: none; stroke: #cccccc; stroke-linecap: square"/>
   </g>
   <g id="line2d_19">
    <path d="M 154.692964 139.118398 
L 242.643478 139.118398 
" clip-path="url(#p36aa73580d)" style="fill: none; stroke: #cccccc; stroke-linecap: square"/>
   </g>
   <g id="line2d_20">
    <path d="M 161.312237 174.742676 
L 212.80391 174.742676 
" clip-path="url(#p36aa73580d)" style="fill: none; stroke: #cccccc; stroke-linecap: square"/>
   </g>
   <g id="line2d_21">
    <path d="M 175.614366 210.366954 
L 238.564392 210.366954 
" clip-path="url(#p36aa73580d)" style="fill: none; stroke: #cccccc; stroke-linecap: square"/>
   </g>
   <g id="line2d_22">
    <path d="M 357.944003 245.991232 
L 175.387365 245.991232 
" clip-path="url(#p36aa73580d)" style="fill: none; stroke: #cccccc; stroke-linecap: square"/>
   </g>
   <g id="patch_3">
    <path d="M 79.514063 256.678516 
L 79.514063 21.558281 
" style="fill: none; stroke: #000000; stroke-width: 0.8; stroke-linejoin: miter; stroke-linecap: square"/>
   </g>
   <g id="patch_4">
    <path d="M 79.514063 256.678516 
L 444.934062 256.678516 
" style="fill: none; stroke: #000000; stroke-width: 0.8; stroke-linejoin: miter; stroke-linecap: square"/>
   </g>
   <g id="LineCollection_1">
    <path d="M 207.695329 32.245565 
L 327.911049 32.245565 
" clip-path="url(#p36aa73580d)" style="fill: none; stroke: #c0392b; stroke-width: 1.5"/>
   </g>
   <g id="line2d_23">
    <defs>
     <path id="m39a749f8b7" d="M 0 2 
L 0 -2 
" style="stroke: #c0392b"/>
    </defs>
    <g clip-path="url(#p36aa73580d)">
     <use xlink:href="#m39a749f8b7" x="207.695329" y="32.245565" style="fill: #c0392b; stroke: #c0392b"/>
    </g>
   </g>
   <g id="line2d_24">
    <g clip-path="url(#p36aa73580d)">
     <use xlink:href="#m39a749f8b7" x="327.911049" y="32.245565" style="fill: #c0392b; stroke: #c0392b"/>
    </g>
   </g>
   <g id="LineCollection_2">
    <path d="M 96.124063 32.245565 
L 238.959663 32.245565 
" clip-path="url(#p36aa73580d)" style="fill: none; stroke: #2c6fbb; stroke-width: 1.5"/>
   </g>
   <g id="line2d_25">
    <defs>
     <path id="mae633df076" d="M 0 2 
L 0 -2 
" style="stroke: #2c6fbb"/>
    </defs>
    <g clip-path="url(#p36aa73580d)">
     <use xlink:href="#mae633df076" x="96.124063" y="32.245565" style="fill: #2c6fbb; stroke: #2c6fbb"/>
    </g>
   </g>
   <g id="line2d_26">
    <g clip-path="url(#p36aa73580d)">
     <use xlink:href="#mae633df076" x="238.959663" y="32.245565" style="fill: #2c6fbb; stroke: #2c6fbb"/>
    </g>
   </g>
   <g id="LineCollection_3">
    <path d="M 184.490999 67.869843 
L 289.798346 67.869843 
" clip-path="url(#p36aa73580d)" style="fill: none; stroke: #c0392b; stroke-width: 1.5"/>
   </g>
   <g id="line2d_27">
    <g clip-path="url(#p36aa73580d)">
     <use xlink:href="#m39a749f8b7" x="184.490999" y="67.869843" style="fill: #c0392b; stroke: #c0392b"/>
    </g>
   </g>
   <g id="line2d_28">
    <g clip-path="url(#p36aa73580d)">
     <use xlink:href="#m39a749f8b7" x="289.798346" y="67.869843" style="fill: #c0392b; stroke: #c0392b"/>
    </g>
   </g>
   <g id="LineCollection_4">
    <path d="M 114.229292 67.869843 
L 228.811104 67.869843 
" clip-path="url(#p36aa73580d)" style="fill: none; stroke: #2c6fbb; stroke-width: 1.5"/>
   </g>
   <g id="line2d_29">
    <g clip-path="url(#p36aa73580d)">
     <use xlink:href="#mae633df076" x="114.229292" y="67.869843" style="fill: #2c6fbb; stroke: #2c6fbb"/>
    </g>
   </g>
   <g id="line2d_30">
    <g clip-path="url(#p36aa73580d)">
     <use xlink:href="#mae633df076" x="228.811104" y="67.869843" style="fill: #2c6fbb; stroke: #2c6fbb"/>
    </g>
   </g>
   <g id="LineCollection_5">
    <path d="M 149.73204 103.494121 
L 256.419558 103.494121 
" clip-path="url(#p36aa73580d)" style="fill: none; stroke: #c0392b; stroke-width: 1.5"/>
   </g>
   <g id="line2d_31">
    <g clip-path="url(#p36aa73580d)">
     <use xlink:href="#m39a749f8b7" x="149.73204" y="103.494121" style="fill: #c0392b; stroke: #c0392b"/>
    </g>
   </g>
   <g id="line2d_32">
    <g clip-path="url(#p36aa73580d)">
     <use xlink:href="#m39a749f8b7" x="256.419558" y="103.494121" style="fill: #c0392b; stroke: #c0392b"/>
    </g>
   </g>
   <g id="LineCollection_6">
    <path d="M 96.961873 103.494121 
L 212.940037 103.494121 
" clip-path="url(#p36aa73580d)" style="fill: none; stroke: #2c6fbb; stroke-width: 1.5"/>
   </g>
   <g id="line2d_33">
    <g clip-path="url(#p36aa73580d)">
     <use xlink:href="#mae633df076" x="96.961873" y="103.494121" style="fill: #2c6fbb; stroke: #2c6fbb"/>
    </g>
   </g>
   <g id="line2d_34">
    <g clip-path="url(#p36aa73580d)">
     <use xlink:href="#mae633df076" x="212.940037" y="103.494121" style="fill: #2c6fbb; stroke: #2c6fbb"/>
    </g>
   </g>
   <g id="LineCollection_7">
    <path d="M 191.029961 139.118398 
L 294.256995 139.118398 
" clip-path="url(#p36aa73580d)" style="fill: none; stroke: #c0392b; stroke-width: 1.5"/>
   </g>
   <g id="line2d_35">
    <g clip-path="url(#p36aa73580d)">
     <use xlink:href="#m39a749f8b7" x="191.029961" y="139.118398" style="fill: #c0392b; stroke: #c0392b"/>
    </g>
   </g>
   <g id="line2d_36">
    <g clip-path="url(#p36aa73580d)">
     <use xlink:href="#m39a749f8b7" x="294.256995" y="139.118398" style="fill: #c0392b; stroke: #c0392b"/>
    </g>
   </g>
   <g id="LineCollection_8">
    <path d="M 98.567831 139.118398 
L 210.818097 139.118398 
" clip-path="url(#p36aa73580d)" style="fill: none; stroke: #2c6fbb; stroke-width: 1.5"/>
   </g>
   <g id="line2d_37">
    <g clip-path="url(#p36aa73580d)">
     <use xlink:href="#mae633df076" x="98.567831" y="139.118398" style="fill: #2c6fbb; stroke: #2c6fbb"/>
    </g>
   </g>
   <g id="line2d_38">
    <g clip-path="url(#p36aa73580d)">
     <use xlink:href="#mae633df076" x="210.818097" y="139.118398" style="fill: #2c6fbb; stroke: #2c6fbb"/>
    </g>
   </g>
   <g id="LineCollection_9">
    <path d="M 163.671563 174.742676 
L 261.936257 174.742676 
" clip-path="url(#p36aa73580d)" style="fill: none; stroke: #c0392b; stroke-width: 1.5"/>
   </g>
   <g id="line2d_39">
    <g clip-path="url(#p36aa73580d)">
     <use xlink:href="#m39a749f8b7" x="163.671563" y="174.742676" style="fill: #c0392b; stroke: #c0392b"/>
    </g>
   </g>
   <g id="line2d_40">
    <g clip-path="url(#p36aa73580d)">
     <use xlink:href="#m39a749f8b7" x="261.936257" y="174.742676" style="fill: #c0392b; stroke: #c0392b"/>
    </g>
   </g>
   <g id="LineCollection_10">
    <path d="M 107.059365 174.742676 
L 215.565109 174.742676 
" clip-path="url(#p36aa73580d)" style="fill: none; stroke: #2c6fbb; stroke-width: 1.5"/>
   </g>
   <g id="line2d_41">
    <g clip-path="url(#p36aa73580d)">
     <use xlink:href="#mae633df076" x="107.059365" y="174.742676" style="fill: #2c6fbb; stroke: #2c6fbb"/>
    </g>
   </g>
   <g id="line2d_42">
    <g clip-path="url(#p36aa73580d)">
     <use xlink:href="#mae633df076" x="215.565109" y="174.742676" style="fill: #2c6fbb; stroke: #2c6fbb"/>
    </g>
   </g>
   <g id="LineCollection_11">
    <path d="M 181.056473 210.366954 
L 296.07231 210.366954 
" clip-path="url(#p36aa73580d)" style="fill: none; stroke: #c0392b; stroke-width: 1.5"/>
   </g>
   <g id="line2d_43">
    <g clip-path="url(#p36aa73580d)">
     <use xlink:href="#m39a749f8b7" x="181.056473" y="210.366954" style="fill: #c0392b; stroke: #c0392b"/>
    </g>
   </g>
   <g id="line2d_44">
    <g clip-path="url(#p36aa73580d)">
     <use xlink:href="#m39a749f8b7" x="296.07231" y="210.366954" style="fill: #c0392b; stroke: #c0392b"/>
    </g>
   </g>
   <g id="LineCollection_12">
    <path d="M 116.521263 210.366954 
L 234.70747 210.366954 
" clip-path="url(#p36aa73580d)" style="fill: none; stroke: #2c6fbb; stroke-width: 1.5"/>
   </g>
   <g id="line2d_45">
    <g clip-path="url(#p36aa73580d)">
     <use xlink:href="#mae633df076" x="116.521263" y="210.366954" style="fill: #2c6fbb; stroke: #2c6fbb"/>
    </g>
   </g>
   <g id="line2d_46">
    <g clip-path="url(#p36aa73580d)">
     <use xlink:href="#mae633df076" x="234.70747" y="210.366954" style="fill: #2c6fbb; stroke: #2c6fbb"/>
    </g>
   </g>
   <g id="LineCollection_13">
    <path d="M 108.414296 245.991232 
L 242.360434 245.991232 
" clip-path="url(#p36aa73580d)" style="fill: none; stroke: #c0392b; stroke-width: 1.5"/>
   </g>
   <g id="line2d_47">
    <g clip-path="url(#p36aa73580d)">
     <use xlink:href="#m39a749f8b7" x="108.414296" y="245.991232" style="fill: #c0392b; stroke: #c0392b"/>
    </g>
   </g>
   <g id="line2d_48">
    <g clip-path="url(#p36aa73580d)">
     <use xlink:href="#m39a749f8b7" x="242.360434" y="245.991232" style="fill: #c0392b; stroke: #c0392b"/>
    </g>
   </g>
   <g id="LineCollection_14">
    <path d="M 287.563944 245.991232 
L 428.324062 245.991232 
" clip-path="url(#p36aa73580d)" style="fill: none; stroke: #2c6fbb; stroke-width: 1.5"/>
   </g>
   <g id="line2d_49">
    <g clip-path="url(#p36aa73580d)">
     <use xlink:href="#mae633df076" x="287.563944" y="245.991232" style="fill: #2c6fbb; stroke: #2c6fbb"/>
    </g>
   </g>
   <g id="line2d_50">
    <g clip-path="url(#p36aa73580d)">
     <use xlink:href="#mae633df076" x="428.324062" y="245.991232" style="fill: #2c6fbb; stroke: #2c6fbb"/>
    </g>
   </g>
   <g id="text_16">
    <!-- Steered MFV vignettes: mean_diff (Authority/Care axis) -->
    <g transform="translate(110.311484 15.558281) scale(0.11 -0.11)">
     <defs>
      <path id="DejaVuSans-47" d="M 2906 2969 
L 2906 4863 
L 3481 4863 
L 3481 0 
L 2906 0 
L 2906 525 
Q 2725 213 2448 61 
Q 2172 -91 1784 -91 
Q 1150 -91 751 415 
Q 353 922 353 1747 
Q 353 2572 751 3078 
Q 1150 3584 1784 3584 
Q 2172 3584 2448 3432 
Q 2725 3281 2906 2969 
z
M 947 1747 
Q 947 1113 1208 752 
Q 1469 391 1925 391 
Q 2381 391 2643 752 
Q 2906 1113 2906 1747 
Q 2906 2381 2643 2742 
Q 2381 3103 1925 3103 
Q 1469 3103 1208 2742 
Q 947 2381 947 1747 
z
" transform="scale(0.015625)"/>
      <path id="DejaVuSans-30" d="M 628 4666 
L 1569 4666 
L 2759 1491 
L 3956 4666 
L 4897 4666 
L 4897 0 
L 4281 0 
L 4281 4097 
L 3078 897 
L 2444 897 
L 1241 4097 
L 1241 0 
L 628 0 
L 628 4666 
z
" transform="scale(0.015625)"/>
      <path id="DejaVuSans-39" d="M 1831 0 
L 50 4666 
L 709 4666 
L 2188 738 
L 3669 4666 
L 4325 4666 
L 2547 0 
L 1831 0 
z
" transform="scale(0.015625)"/>
      <path id="DejaVuSans-1d" d="M 750 794 
L 1409 794 
L 1409 0 
L 750 0 
L 750 794 
z
M 750 3309 
L 1409 3309 
L 1409 2516 
L 750 2516 
L 750 3309 
z
" transform="scale(0.015625)"/>
      <path id="DejaVuSans-42" d="M 3263 -1063 
L 3263 -1509 
L -63 -1509 
L -63 -1063 
L 3263 -1063 
z
" transform="scale(0.015625)"/>
      <path id="DejaVuSans-13ae" d="M 4531 4863 
L 4531 4384 
L 3981 4384 
Q 3672 4384 3551 4259 
Q 3431 4134 3431 3809 
L 3431 3500 
L 4378 3500 
L 4378 3053 
L 3431 3053 
L 3431 0 
L 2853 0 
L 2853 3053 
L 1275 3053 
L 1275 0 
L 697 0 
L 697 3053 
L 147 3053 
L 147 3500 
L 697 3500 
L 697 3744 
Q 697 4328 969 4595 
Q 1241 4863 1831 4863 
L 2375 4863 
L 2375 4384 
L 1825 4384 
Q 1516 4384 1394 4259 
Q 1275 4134 1275 3809 
L 1275 3500 
L 2853 3500 
L 2853 3744 
Q 2853 4328 3125 4595 
Q 3397 4863 3988 4863 
L 4531 4863 
z
" transform="scale(0.015625)"/>
      <path id="DejaVuSans-12" d="M 1625 4666 
L 2156 4666 
L 531 -594 
L 0 -594 
L 1625 4666 
z
" transform="scale(0.015625)"/>
      <path id="DejaVuSans-5b" d="M 3513 3500 
L 2247 1797 
L 3578 0 
L 2900 0 
L 1881 1375 
L 863 0 
L 184 0 
L 1544 1831 
L 300 3500 
L 978 3500 
L 1906 2253 
L 2834 3500 
L 3513 3500 
z
" transform="scale(0.015625)"/>
     </defs>
     <use xlink:href="#DejaVuSans-36"/>
     <use xlink:href="#DejaVuSans-57" transform="translate(63.484375 0)"/>
     <use xlink:href="#DejaVuSans-48" transform="translate(102.6875 0)"/>
     <use xlink:href="#DejaVuSans-48" transform="translate(164.21875 0)"/>
     <use xlink:href="#DejaVuSans-55" transform="translate(225.75 0)"/>
     <use xlink:href="#DejaVuSans-48" transform="translate(264.65625 0)"/>
     <use xlink:href="#DejaVuSans-47" transform="translate(326.1875 0)"/>
     <use xlink:href="#DejaVuSans-3" transform="translate(389.671875 0)"/>
     <use xlink:href="#DejaVuSans-30" transform="translate(421.453125 0)"/>
     <use xlink:href="#DejaVuSans-29" transform="translate(507.734375 0)"/>
     <use xlink:href="#DejaVuSans-39" transform="translate(565.25 0)"/>
     <use xlink:href="#DejaVuSans-3" transform="translate(633.65625 0)"/>
     <use xlink:href="#DejaVuSans-59" transform="translate(665.4375 0)"/>
     <use xlink:href="#DejaVuSans-4c" transform="translate(724.625 0)"/>
     <use xlink:href="#DejaVuSans-4a" transform="translate(752.40625 0)"/>
     <use xlink:href="#DejaVuSans-51" transform="translate(815.890625 0)"/>
     <use xlink:href="#DejaVuSans-48" transform="translate(879.265625 0)"/>
     <use xlink:href="#DejaVuSans-57" transform="translate(940.796875 0)"/>
     <use xlink:href="#DejaVuSans-57" transform="translate(980 0)"/>
     <use xlink:href="#DejaVuSans-48" transform="translate(1019.203125 0)"/>
     <use xlink:href="#DejaVuSans-56" transform="translate(1080.734375 0)"/>
     <use xlink:href="#DejaVuSans-1d" transform="translate(1132.828125 0)"/>
     <use xlink:href="#DejaVuSans-3" transform="translate(1166.515625 0)"/>
     <use xlink:href="#DejaVuSans-50" transform="translate(1198.296875 0)"/>
     <use xlink:href="#DejaVuSans-48" transform="translate(1295.703125 0)"/>
     <use xlink:href="#DejaVuSans-44" transform="translate(1357.234375 0)"/>
     <use xlink:href="#DejaVuSans-51" transform="translate(1418.515625 0)"/>
     <use xlink:href="#DejaVuSans-42" transform="translate(1481.890625 0)"/>
     <use xlink:href="#DejaVuSans-47" transform="translate(1531.890625 0)"/>
     <use xlink:href="#DejaVuSans-4c" transform="translate(1595.375 0)"/>
     <use xlink:href="#DejaVuSans-13ae" transform="translate(1623.15625 0)"/>
     <use xlink:href="#DejaVuSans-3" transform="translate(1692.046875 0)"/>
     <use xlink:href="#DejaVuSans-b" transform="translate(1723.828125 0)"/>
     <use xlink:href="#DejaVuSans-24" transform="translate(1762.84375 0)"/>
     <use xlink:href="#DejaVuSans-58" transform="translate(1831.25 0)"/>
     <use xlink:href="#DejaVuSans-57" transform="translate(1894.625 0)"/>
     <use xlink:href="#DejaVuSans-4b" transform="translate(1933.828125 0)"/>
     <use xlink:href="#DejaVuSans-52" transform="translate(1997.203125 0)"/>
     <use xlink:href="#DejaVuSans-55" transform="translate(2058.390625 0)"/>
     <use xlink:href="#DejaVuSans-4c" transform="translate(2099.5 0)"/>
     <use xlink:href="#DejaVuSans-57" transform="translate(2127.28125 0)"/>
     <use xlink:href="#DejaVuSans-5c" transform="translate(2166.484375 0)"/>
     <use xlink:href="#DejaVuSans-12" transform="translate(2225.671875 0)"/>
     <use xlink:href="#DejaVuSans-26" transform="translate(2259.359375 0)"/>
     <use xlink:href="#DejaVuSans-44" transform="translate(2329.1875 0)"/>
     <use xlink:href="#DejaVuSans-55" transform="translate(2390.46875 0)"/>
     <use xlink:href="#DejaVuSans-48" transform="translate(2429.375 0)"/>
     <use xlink:href="#DejaVuSans-3" transform="translate(2490.90625 0)"/>
     <use xlink:href="#DejaVuSans-44" transform="translate(2522.6875 0)"/>
     <use xlink:href="#DejaVuSans-5b" transform="translate(2583.96875 0)"/>
     <use xlink:href="#DejaVuSans-4c" transform="translate(2643.15625 0)"/>
     <use xlink:href="#DejaVuSans-56" transform="translate(2670.9375 0)"/>
     <use xlink:href="#DejaVuSans-c" transform="translate(2723.03125 0)"/>
    </g>
   </g>
   <g id="line2d_51">
    <defs>
     <path id="ma2ca788ac8" d="M 0 2.5 
C 0.663008 2.5 1.29895 2.236584 1.767767 1.767767 
C 2.236584 1.29895 2.5 0.663008 2.5 0 
C 2.5 -0.663008 2.236584 -1.29895 1.767767 -1.767767 
C 1.29895 -2.236584 0.663008 -2.5 0 -2.5 
C -0.663008 -2.5 -1.29895 -2.236584 -1.767767 -1.767767 
C -2.236584 -1.29895 -2.5 -0.663008 -2.5 0 
C -2.5 0.663008 -2.236584 1.29895 -1.767767 1.767767 
C -1.29895 2.236584 -0.663008 2.5 0 2.5 
z
" style="stroke: #c0392b"/>
    </defs>
    <g clip-path="url(#p36aa73580d)">
     <use xlink:href="#ma2ca788ac8" x="267.803189" y="32.245565" style="fill: #c0392b; stroke: #c0392b"/>
    </g>
   </g>
   <g id="line2d_52">
    <defs>
     <path id="ma48a0b42c3" d="M 0 2.5 
C 0.663008 2.5 1.29895 2.236584 1.767767 1.767767 
C 2.236584 1.29895 2.5 0.663008 2.5 0 
C 2.5 -0.663008 2.236584 -1.29895 1.767767 -1.767767 
C 1.29895 -2.236584 0.663008 -2.5 0 -2.5 
C -0.663008 -2.5 -1.29895 -2.236584 -1.767767 -1.767767 
C -2.236584 -1.29895 -2.5 -0.663008 -2.5 0 
C -2.5 0.663008 -2.236584 1.29895 -1.767767 1.767767 
C -1.29895 2.236584 -0.663008 2.5 0 2.5 
z
" style="stroke: #2c6fbb"/>
    </defs>
    <g clip-path="url(#p36aa73580d)">
     <use xlink:href="#ma48a0b42c3" x="167.541863" y="32.245565" style="fill: #2c6fbb; stroke: #2c6fbb"/>
    </g>
   </g>
   <g id="line2d_53">
    <g clip-path="url(#p36aa73580d)">
     <use xlink:href="#ma2ca788ac8" x="237.144673" y="67.869843" style="fill: #c0392b; stroke: #c0392b"/>
    </g>
   </g>
   <g id="line2d_54">
    <g clip-path="url(#p36aa73580d)">
     <use xlink:href="#ma48a0b42c3" x="171.520198" y="67.869843" style="fill: #2c6fbb; stroke: #2c6fbb"/>
    </g>
   </g>
   <g id="line2d_55">
    <g clip-path="url(#p36aa73580d)">
     <use xlink:href="#ma2ca788ac8" x="203.075799" y="103.494121" style="fill: #c0392b; stroke: #c0392b"/>
    </g>
   </g>
   <g id="line2d_56">
    <g clip-path="url(#p36aa73580d)">
     <use xlink:href="#ma48a0b42c3" x="154.950955" y="103.494121" style="fill: #2c6fbb; stroke: #2c6fbb"/>
    </g>
   </g>
   <g id="line2d_57">
    <g clip-path="url(#p36aa73580d)">
     <use xlink:href="#ma2ca788ac8" x="242.643478" y="139.118398" style="fill: #c0392b; stroke: #c0392b"/>
    </g>
   </g>
   <g id="line2d_58">
    <g clip-path="url(#p36aa73580d)">
     <use xlink:href="#ma48a0b42c3" x="154.692964" y="139.118398" style="fill: #2c6fbb; stroke: #2c6fbb"/>
    </g>
   </g>
   <g id="line2d_59">
    <g clip-path="url(#p36aa73580d)">
     <use xlink:href="#ma2ca788ac8" x="212.80391" y="174.742676" style="fill: #c0392b; stroke: #c0392b"/>
    </g>
   </g>
   <g id="line2d_60">
    <g clip-path="url(#p36aa73580d)">
     <use xlink:href="#ma48a0b42c3" x="161.312237" y="174.742676" style="fill: #2c6fbb; stroke: #2c6fbb"/>
    </g>
   </g>
   <g id="line2d_61">
    <g clip-path="url(#p36aa73580d)">
     <use xlink:href="#ma2ca788ac8" x="238.564392" y="210.366954" style="fill: #c0392b; stroke: #c0392b"/>
    </g>
   </g>
   <g id="line2d_62">
    <g clip-path="url(#p36aa73580d)">
     <use xlink:href="#ma48a0b42c3" x="175.614366" y="210.366954" style="fill: #2c6fbb; stroke: #2c6fbb"/>
    </g>
   </g>
   <g id="line2d_63">
    <g clip-path="url(#p36aa73580d)">
     <use xlink:href="#ma2ca788ac8" x="175.387365" y="245.991232" style="fill: #c0392b; stroke: #c0392b"/>
    </g>
   </g>
   <g id="line2d_64">
    <g clip-path="url(#p36aa73580d)">
     <use xlink:href="#ma48a0b42c3" x="357.944003" y="245.991232" style="fill: #2c6fbb; stroke: #2c6fbb"/>
    </g>
   </g>
   <g id="legend_1">
    <g id="patch_5">
     <path d="M 370.224063 51.959531 
L 439.334062 51.959531 
Q 440.934062 51.959531 440.934062 50.359531 
L 440.934062 27.158281 
Q 440.934062 25.558281 439.334062 25.558281 
L 370.224063 25.558281 
Q 368.624062 25.558281 368.624062 27.158281 
L 368.624062 50.359531 
Q 368.624062 51.959531 370.224063 51.959531 
z
" style="fill: #ffffff; opacity: 0.8; stroke: #cccccc; stroke-linejoin: miter"/>
    </g>
    <g id="PathCollection_3">
     <defs>
      <path id="m1a32c59252" d="M 0 3 
C 0.795609 3 1.55874 2.683901 2.12132 2.12132 
C 2.683901 1.55874 3 0.795609 3 0 
C 3 -0.795609 2.683901 -1.55874 2.12132 -2.12132 
C 1.55874 -2.683901 0.795609 -3 0 -3 
C -0.795609 -3 -1.55874 -2.683901 -2.12132 -2.12132 
C -2.683901 -1.55874 -3 -0.795609 -3 0 
C -3 0.795609 -2.683901 1.55874 -2.12132 2.12132 
C -1.55874 2.683901 -0.795609 3 0 3 
z
" style="stroke: #c0392b"/>
     </defs>
     <g>
      <use xlink:href="#m1a32c59252" x="379.824062" y="32.737031" style="fill: #c0392b; stroke: #c0392b"/>
     </g>
    </g>
    <g id="text_17">
     <!-- +C=+1.00 -->
     <g transform="translate(394.224062 34.837031) scale(0.08 -0.08)">
      <defs>
       <path id="DejaVuSans-e" d="M 2944 4013 
L 2944 2272 
L 4684 2272 
L 4684 1741 
L 2944 1741 
L 2944 0 
L 2419 0 
L 2419 1741 
L 678 1741 
L 678 2272 
L 2419 2272 
L 2419 4013 
L 2944 4013 
z
" transform="scale(0.015625)"/>
       <path id="DejaVuSans-20" d="M 678 2906 
L 4684 2906 
L 4684 2381 
L 678 2381 
L 678 2906 
z
M 678 1631 
L 4684 1631 
L 4684 1100 
L 678 1100 
L 678 1631 
z
" transform="scale(0.015625)"/>
      </defs>
      <use xlink:href="#DejaVuSans-e"/>
      <use xlink:href="#DejaVuSans-26" transform="translate(83.796875 0)"/>
      <use xlink:href="#DejaVuSans-20" transform="translate(153.625 0)"/>
      <use xlink:href="#DejaVuSans-e" transform="translate(237.421875 0)"/>
      <use xlink:href="#DejaVuSans-14" transform="translate(321.21875 0)"/>
      <use xlink:href="#DejaVuSans-11" transform="translate(384.84375 0)"/>
      <use xlink:href="#DejaVuSans-13" transform="translate(416.625 0)"/>
      <use xlink:href="#DejaVuSans-13" transform="translate(480.25 0)"/>
     </g>
    </g>
    <g id="PathCollection_4">
     <defs>
      <path id="m659cc4cbed" d="M 0 3 
C 0.795609 3 1.55874 2.683901 2.12132 2.12132 
C 2.683901 1.55874 3 0.795609 3 0 
C 3 -0.795609 2.683901 -1.55874 2.12132 -2.12132 
C 1.55874 -2.683901 0.795609 -3 0 -3 
C -0.795609 -3 -1.55874 -2.683901 -2.12132 -2.12132 
C -2.683901 -1.55874 -3 -0.795609 -3 0 
C -3 0.795609 -2.683901 1.55874 -2.12132 2.12132 
C -1.55874 2.683901 -0.795609 3 0 3 
z
" style="stroke: #2c6fbb"/>
     </defs>
     <g>
      <use xlink:href="#m659cc4cbed" x="379.824062" y="44.737656" style="fill: #2c6fbb; stroke: #2c6fbb"/>
     </g>
    </g>
    <g id="text_18">
     <!-- -C=-1.00 -->
     <g transform="translate(394.224062 46.837656) scale(0.08 -0.08)">
      <defs>
       <path id="DejaVuSans-10" d="M 313 2009 
L 1997 2009 
L 1997 1497 
L 313 1497 
L 313 2009 
z
" transform="scale(0.015625)"/>
      </defs>
      <use xlink:href="#DejaVuSans-10"/>
      <use xlink:href="#DejaVuSans-26" transform="translate(36.078125 0)"/>
      <use xlink:href="#DejaVuSans-20" transform="translate(105.90625 0)"/>
      <use xlink:href="#DejaVuSans-10" transform="translate(189.703125 0)"/>
      <use xlink:href="#DejaVuSans-14" transform="translate(225.78125 0)"/>
      <use xlink:href="#DejaVuSans-11" transform="translate(289.40625 0)"/>
      <use xlink:href="#DejaVuSans-13" transform="translate(321.1875 0)"/>
      <use xlink:href="#DejaVuSans-13" transform="translate(384.8125 0)"/>
     </g>
    </g>
   </g>
  </g>
 </g>
 <defs>
  <clipPath id="p36aa73580d">
   <rect x="79.514063" y="21.558281" width="365.42" height="235.120234"/>
  </clipPath>
 </defs>
</svg>
