<?xml version="1.0" encoding="utf-8" standalone="no"?>
<!DOCTYPE svg PUBLIC "-//W3C//DTD SVG 1.1//EN"
  "http://www.w3.org/Graphics/SVG/1.1/DTD/svg11.dtd">
<svg xmlns:xlink="http://www.w3.org/1999/xlink" width="748.100625pt" height="341.733632pt" viewBox="0 0 748.100625 341.733632" xmlns="http://www.w3.org/2000/svg" version="1.1">
 <metadata>
  <rdf:RDF xmlns:dc="http://purl.org/dc/elements/1.1/" xmlns:cc="http://creativecommons.org/ns#" xmlns:rdf="http://www.w3.org/1999/02/22-rdf-syntax-ns#">
   <cc:Work>
    <dc:type rdf:resource="http://purl.org/dc/dcmitype/StillImage"/>
    <dc:date>2026-07-05T19:30:15.894695</dc:date>
    <dc:format>image/svg+xml</dc:format>
    <dc:creator>
     <cc:Agent>
      <dc:title>Matplotlib v3.11.0, https://matplotlib.org/</dc:title>
     </cc:Agent>
    </dc:creator>
   </cc:Work>
  </rdf:RDF>
 </metadata>
 <defs>
  <style type="text/css">*{stroke-linejoin: round; stroke-linecap: butt}</style>
 </defs>
 <g id="figure_1">
  <g id="patch_1">
   <path d="M 0 341.733632 
L 748.100625 341.733632 
L 748.100625 0 
L 0 0 
z
" style="fill: #ffffff"/>
  </g>
  <g id="axes_1">
   <g id="patch_2">
    <path d="M 42.942969 302.091763 
L 740.900625 302.091763 
L 740.900625 34.329182 
L 42.942969 34.329182 
z
" style="fill: #ffffff"/>
   </g>
   <g id="matplotlib.axis_1">
    <g id="xtick_1">
     <g id="line2d_1">
      <defs>
       <path id="m7bee154261" d="M 0 0 
L 0 3.5 
" style="stroke: #000000; stroke-width: 0.8"/>
      </defs>
      <g>
       <use xlink:href="#m7bee154261" x="89.733426" y="302.091763" style="stroke: #000000; stroke-width: 0.8"/>
      </g>
     </g>
     <g id="text_1">
      <!-- Care -->
      <g transform="translate(72.730451 323.617448) rotate(-30) scale(0.08 -0.08)">
       <defs>
        <path id="DejaVuSans-26" d="M 4122 4306 
L 4122 3641 
Q 3803 3938 3442 4084 
Q 3081 4231 2675 4231 
Q 1875 4231 1450 3742 
Q 1025 3253 1025 2328 
Q 1025 1406 1450 917 
Q 1875 428 2675 428 
Q 3081 428 3442 575 
Q 3803 722 4122 1019 
L 4122 359 
Q 3791 134 3420 21 
Q 3050 -91 2638 -91 
Q 1578 -91 968 557 
Q 359 1206 359 2328 
Q 359 3453 968 4101 
Q 1578 4750 2638 4750 
Q 3056 4750 3426 4639 
Q 3797 4528 4122 4306 
z
" transform="scale(0.015625)"/>
        <path id="DejaVuSans-44" d="M 2194 1759 
Q 1497 1759 1228 1600 
Q 959 1441 959 1056 
Q 959 750 1161 570 
Q 1363 391 1709 391 
Q 2188 391 2477 730 
Q 2766 1069 2766 1631 
L 2766 1759 
L 2194 1759 
z
M 3341 1997 
L 3341 0 
L 2766 0 
L 2766 531 
Q 2569 213 2275 61 
Q 1981 -91 1556 -91 
Q 1019 -91 701 211 
Q 384 513 384 1019 
Q 384 1609 779 1909 
Q 1175 2209 1959 2209 
L 2766 2209 
L 2766 2266 
Q 2766 2663 2505 2880 
Q 2244 3097 1772 3097 
Q 1472 3097 1187 3025 
Q 903 2953 641 2809 
L 641 3341 
Q 956 3463 1253 3523 
Q 1550 3584 1831 3584 
Q 2591 3584 2966 3190 
Q 3341 2797 3341 1997 
z
" transform="scale(0.015625)"/>
        <path id="DejaVuSans-55" d="M 2631 2963 
Q 2534 3019 2420 3045 
Q 2306 3072 2169 3072 
Q 1681 3072 1420 2755 
Q 1159 2438 1159 1844 
L 1159 0 
L 581 0 
L 581 3500 
L 1159 3500 
L 1159 2956 
Q 1341 3275 1631 3429 
Q 1922 3584 2338 3584 
Q 2397 3584 2469 3576 
Q 2541 3569 2628 3553 
L 2631 2963 
z
" transform="scale(0.015625)"/>
        <path id="DejaVuSans-48" d="M 3597 1894 
L 3597 1613 
L 953 1613 
Q 991 1019 1311 708 
Q 1631 397 2203 397 
Q 2534 397 2845 478 
Q 3156 559 3463 722 
L 3463 178 
Q 3153 47 2828 -22 
Q 2503 -91 2169 -91 
Q 1331 -91 842 396 
Q 353 884 353 1716 
Q 353 2575 817 3079 
Q 1281 3584 2069 3584 
Q 2775 3584 3186 3129 
Q 3597 2675 3597 1894 
z
M 3022 2063 
Q 3016 2534 2758 2815 
Q 2500 3097 2075 3097 
Q 1594 3097 1305 2825 
Q 1016 2553 972 2059 
L 3022 2063 
z
" transform="scale(0.015625)"/>
       </defs>
       <use xlink:href="#DejaVuSans-26"/>
       <use xlink:href="#DejaVuSans-44" transform="translate(69.828125 0)"/>
       <use xlink:href="#DejaVuSans-55" transform="translate(131.109375 0)"/>
       <use xlink:href="#DejaVuSans-48" transform="translate(170.015625 0)"/>
      </g>
     </g>
    </g>
    <g id="xtick_2">
     <g id="line2d_2">
      <g>
       <use xlink:href="#m7bee154261" x="210.608774" y="302.091763" style="stroke: #000000; stroke-width: 0.8"/>
      </g>
     </g>
     <g id="text_2">
      <!-- Sanctity -->
      <g transform="translate(181.346127 330.696115) rotate(-30) scale(0.08 -0.08)">
       <defs>
        <path id="DejaVuSans-36" d="M 3425 4513 
L 3425 3897 
Q 3066 4069 2747 4153 
Q 2428 4238 2131 4238 
Q 1616 4238 1336 4038 
Q 1056 3838 1056 3469 
Q 1056 3159 1242 3001 
Q 1428 2844 1947 2747 
L 2328 2669 
Q 3034 2534 3370 2195 
Q 3706 1856 3706 1288 
Q 3706 609 3251 259 
Q 2797 -91 1919 -91 
Q 1588 -91 1214 -16 
Q 841 59 441 206 
L 441 856 
Q 825 641 1194 531 
Q 1563 422 1919 422 
Q 2459 422 2753 634 
Q 3047 847 3047 1241 
Q 3047 1584 2836 1778 
Q 2625 1972 2144 2069 
L 1759 2144 
Q 1053 2284 737 2584 
Q 422 2884 422 3419 
Q 422 4038 858 4394 
Q 1294 4750 2059 4750 
Q 2388 4750 2728 4690 
Q 3069 4631 3425 4513 
z
" transform="scale(0.015625)"/>
        <path id="DejaVuSans-51" d="M 3513 2113 
L 3513 0 
L 2938 0 
L 2938 2094 
Q 2938 2591 2744 2837 
Q 2550 3084 2163 3084 
Q 1697 3084 1428 2787 
Q 1159 2491 1159 1978 
L 1159 0 
L 581 0 
L 581 3500 
L 1159 3500 
L 1159 2956 
Q 1366 3272 1645 3428 
Q 1925 3584 2291 3584 
Q 2894 3584 3203 3211 
Q 3513 2838 3513 2113 
z
" transform="scale(0.015625)"/>
        <path id="DejaVuSans-46" d="M 3122 3366 
L 3122 2828 
Q 2878 2963 2633 3030 
Q 2388 3097 2138 3097 
Q 1578 3097 1268 2742 
Q 959 2388 959 1747 
Q 959 1106 1268 751 
Q 1578 397 2138 397 
Q 2388 397 2633 464 
Q 2878 531 3122 666 
L 3122 134 
Q 2881 22 2623 -34 
Q 2366 -91 2075 -91 
Q 1284 -91 818 406 
Q 353 903 353 1747 
Q 353 2603 823 3093 
Q 1294 3584 2113 3584 
Q 2378 3584 2631 3529 
Q 2884 3475 3122 3366 
z
" transform="scale(0.015625)"/>
        <path id="DejaVuSans-57" d="M 1172 4494 
L 1172 3500 
L 2356 3500 
L 2356 3053 
L 1172 3053 
L 1172 1153 
Q 1172 725 1289 603 
Q 1406 481 1766 481 
L 2356 481 
L 2356 0 
L 1766 0 
Q 1100 0 847 248 
Q 594 497 594 1153 
L 594 3053 
L 172 3053 
L 172 3500 
L 594 3500 
L 594 4494 
L 1172 4494 
z
" transform="scale(0.015625)"/>
        <path id="DejaVuSans-4c" d="M 603 3500 
L 1178 3500 
L 1178 0 
L 603 0 
L 603 3500 
z
M 603 4863 
L 1178 4863 
L 1178 4134 
L 603 4134 
L 603 4863 
z
" transform="scale(0.015625)"/>
        <path id="DejaVuSans-5c" d="M 2059 -325 
Q 1816 -950 1584 -1140 
Q 1353 -1331 966 -1331 
L 506 -1331 
L 506 -850 
L 844 -850 
Q 1081 -850 1212 -737 
Q 1344 -625 1503 -206 
L 1606 56 
L 191 3500 
L 800 3500 
L 1894 763 
L 2988 3500 
L 3597 3500 
L 2059 -325 
z
" transform="scale(0.015625)"/>
       </defs>
       <use xlink:href="#DejaVuSans-36"/>
       <use xlink:href="#DejaVuSans-44" transform="translate(63.484375 0)"/>
       <use xlink:href="#DejaVuSans-51" transform="translate(124.765625 0)"/>
       <use xlink:href="#DejaVuSans-46" transform="translate(188.140625 0)"/>
       <use xlink:href="#DejaVuSans-57" transform="translate(243.125 0)"/>
       <use xlink:href="#DejaVuSans-4c" transform="translate(282.328125 0)"/>
       <use xlink:href="#DejaVuSans-57" transform="translate(310.109375 0)"/>
       <use xlink:href="#DejaVuSans-5c" transform="translate(349.3125 0)"/>
      </g>
     </g>
    </g>
    <g id="xtick_3">
     <g id="line2d_3">
      <g>
       <use xlink:href="#m7bee154261" x="331.484123" y="302.091763" style="stroke: #000000; stroke-width: 0.8"/>
      </g>
     </g>
     <g id="text_3">
      <!-- Authority -->
      <g transform="translate(298.457512 332.86924) rotate(-30) scale(0.08 -0.08)">
       <defs>
        <path id="DejaVuSans-24" d="M 2188 4044 
L 1331 1722 
L 3047 1722 
L 2188 4044 
z
M 1831 4666 
L 2547 4666 
L 4325 0 
L 3669 0 
L 3244 1197 
L 1141 1197 
L 716 0 
L 50 0 
L 1831 4666 
z
" transform="scale(0.015625)"/>
        <path id="DejaVuSans-58" d="M 544 1381 
L 544 3500 
L 1119 3500 
L 1119 1403 
Q 1119 906 1312 657 
Q 1506 409 1894 409 
Q 2359 409 2629 706 
Q 2900 1003 2900 1516 
L 2900 3500 
L 3475 3500 
L 3475 0 
L 2900 0 
L 2900 538 
Q 2691 219 2414 64 
Q 2138 -91 1772 -91 
Q 1169 -91 856 284 
Q 544 659 544 1381 
z
M 1991 3584 
L 1991 3584 
z
" transform="scale(0.015625)"/>
        <path id="DejaVuSans-4b" d="M 3513 2113 
L 3513 0 
L 2938 0 
L 2938 2094 
Q 2938 2591 2744 2837 
Q 2550 3084 2163 3084 
Q 1697 3084 1428 2787 
Q 1159 2491 1159 1978 
L 1159 0 
L 581 0 
L 581 4863 
L 1159 4863 
L 1159 2956 
Q 1366 3272 1645 3428 
Q 1925 3584 2291 3584 
Q 2894 3584 3203 3211 
Q 3513 2838 3513 2113 
z
" transform="scale(0.015625)"/>
        <path id="DejaVuSans-52" d="M 1959 3097 
Q 1497 3097 1228 2736 
Q 959 2375 959 1747 
Q 959 1119 1226 758 
Q 1494 397 1959 397 
Q 2419 397 2687 759 
Q 2956 1122 2956 1747 
Q 2956 2369 2687 2733 
Q 2419 3097 1959 3097 
z
M 1959 3584 
Q 2709 3584 3137 3096 
Q 3566 2609 3566 1747 
Q 3566 888 3137 398 
Q 2709 -91 1959 -91 
Q 1206 -91 779 398 
Q 353 888 353 1747 
Q 353 2609 779 3096 
Q 1206 3584 1959 3584 
z
" transform="scale(0.015625)"/>
       </defs>
       <use xlink:href="#DejaVuSans-24"/>
       <use xlink:href="#DejaVuSans-58" transform="translate(68.40625 0)"/>
       <use xlink:href="#DejaVuSans-57" transform="translate(131.78125 0)"/>
       <use xlink:href="#DejaVuSans-4b" transform="translate(170.984375 0)"/>
       <use xlink:href="#DejaVuSans-52" transform="translate(234.359375 0)"/>
       <use xlink:href="#DejaVuSans-55" transform="translate(295.546875 0)"/>
       <use xlink:href="#DejaVuSans-4c" transform="translate(336.65625 0)"/>
       <use xlink:href="#DejaVuSans-57" transform="translate(364.4375 0)"/>
       <use xlink:href="#DejaVuSans-5c" transform="translate(403.640625 0)"/>
      </g>
     </g>
    </g>
    <g id="xtick_4">
     <g id="line2d_4">
      <g>
       <use xlink:href="#m7bee154261" x="452.359471" y="302.091763" style="stroke: #000000; stroke-width: 0.8"/>
      </g>
     </g>
     <g id="text_4">
      <!-- Loyalty -->
      <g transform="translate(426.332511 328.82799) rotate(-30) scale(0.08 -0.08)">
       <defs>
        <path id="DejaVuSans-2f" d="M 628 4666 
L 1259 4666 
L 1259 531 
L 3531 531 
L 3531 0 
L 628 0 
L 628 4666 
z
" transform="scale(0.015625)"/>
        <path id="DejaVuSans-4f" d="M 603 4863 
L 1178 4863 
L 1178 0 
L 603 0 
L 603 4863 
z
" transform="scale(0.015625)"/>
       </defs>
       <use xlink:href="#DejaVuSans-2f"/>
       <use xlink:href="#DejaVuSans-52" transform="translate(53.96875 0)"/>
       <use xlink:href="#DejaVuSans-5c" transform="translate(115.15625 0)"/>
       <use xlink:href="#DejaVuSans-44" transform="translate(174.34375 0)"/>
       <use xlink:href="#DejaVuSans-4f" transform="translate(235.625 0)"/>
       <use xlink:href="#DejaVuSans-57" transform="translate(263.40625 0)"/>
       <use xlink:href="#DejaVuSans-5c" transform="translate(302.609375 0)"/>
      </g>
     </g>
    </g>
    <g id="xtick_5">
     <g id="line2d_5">
      <g>
       <use xlink:href="#m7bee154261" x="573.234819" y="302.091763" style="stroke: #000000; stroke-width: 0.8"/>
      </g>
     </g>
     <g id="text_5">
      <!-- Fairness -->
      <g transform="translate(544.155119 330.59049) rotate(-30) scale(0.08 -0.08)">
       <defs>
        <path id="DejaVuSans-29" d="M 628 4666 
L 3309 4666 
L 3309 4134 
L 1259 4134 
L 1259 2759 
L 3109 2759 
L 3109 2228 
L 1259 2228 
L 1259 0 
L 628 0 
L 628 4666 
z
" transform="scale(0.015625)"/>
        <path id="DejaVuSans-56" d="M 2834 3397 
L 2834 2853 
Q 2591 2978 2328 3040 
Q 2066 3103 1784 3103 
Q 1356 3103 1142 2972 
Q 928 2841 928 2578 
Q 928 2378 1081 2264 
Q 1234 2150 1697 2047 
L 1894 2003 
Q 2506 1872 2764 1633 
Q 3022 1394 3022 966 
Q 3022 478 2636 193 
Q 2250 -91 1575 -91 
Q 1294 -91 989 -36 
Q 684 19 347 128 
L 347 722 
Q 666 556 975 473 
Q 1284 391 1588 391 
Q 1994 391 2212 530 
Q 2431 669 2431 922 
Q 2431 1156 2273 1281 
Q 2116 1406 1581 1522 
L 1381 1569 
Q 847 1681 609 1914 
Q 372 2147 372 2553 
Q 372 3047 722 3315 
Q 1072 3584 1716 3584 
Q 2034 3584 2315 3537 
Q 2597 3491 2834 3397 
z
" transform="scale(0.015625)"/>
       </defs>
       <use xlink:href="#DejaVuSans-29"/>
       <use xlink:href="#DejaVuSans-44" transform="translate(48.34375 0)"/>
       <use xlink:href="#DejaVuSans-4c" transform="translate(109.625 0)"/>
       <use xlink:href="#DejaVuSans-55" transform="translate(137.40625 0)"/>
       <use xlink:href="#DejaVuSans-51" transform="translate(176.765625 0)"/>
       <use xlink:href="#DejaVuSans-48" transform="translate(240.140625 0)"/>
       <use xlink:href="#DejaVuSans-56" transform="translate(301.671875 0)"/>
       <use xlink:href="#DejaVuSans-56" transform="translate(353.765625 0)"/>
      </g>
     </g>
    </g>
    <g id="xtick_6">
     <g id="line2d_6">
      <g>
       <use xlink:href="#m7bee154261" x="694.110168" y="302.091763" style="stroke: #000000; stroke-width: 0.8"/>
      </g>
     </g>
     <g id="text_6">
      <!-- Liberty -->
      <g transform="translate(669.038 328.27674) rotate(-30) scale(0.08 -0.08)">
       <defs>
        <path id="DejaVuSans-45" d="M 3116 1747 
Q 3116 2381 2855 2742 
Q 2594 3103 2138 3103 
Q 1681 3103 1420 2742 
Q 1159 2381 1159 1747 
Q 1159 1113 1420 752 
Q 1681 391 2138 391 
Q 2594 391 2855 752 
Q 3116 1113 3116 1747 
z
M 1159 2969 
Q 1341 3281 1617 3432 
Q 1894 3584 2278 3584 
Q 2916 3584 3314 3078 
Q 3713 2572 3713 1747 
Q 3713 922 3314 415 
Q 2916 -91 2278 -91 
Q 1894 -91 1617 61 
Q 1341 213 1159 525 
L 1159 0 
L 581 0 
L 581 4863 
L 1159 4863 
L 1159 2969 
z
" transform="scale(0.015625)"/>
       </defs>
       <use xlink:href="#DejaVuSans-2f"/>
       <use xlink:href="#DejaVuSans-4c" transform="translate(55.71875 0)"/>
       <use xlink:href="#DejaVuSans-45" transform="translate(83.5 0)"/>
       <use xlink:href="#DejaVuSans-48" transform="translate(146.984375 0)"/>
       <use xlink:href="#DejaVuSans-55" transform="translate(208.515625 0)"/>
       <use xlink:href="#DejaVuSans-57" transform="translate(249.625 0)"/>
       <use xlink:href="#DejaVuSans-5c" transform="translate(288.828125 0)"/>
      </g>
     </g>
    </g>
   </g>
   <g id="matplotlib.axis_2">
    <g id="ytick_1">
     <g id="line2d_7">
      <path d="M 42.942969 282.768389 
L 740.900625 282.768389 
" clip-path="url(#p1d7eec7d4c)" style="fill: none; stroke: #b0b0b0; stroke-opacity: 0.15; stroke-width: 0.8; stroke-linecap: square"/>
     </g>
     <g id="line2d_8">
      <defs>
       <path id="m61891daf04" d="M 0 0 
L -3.5 0 
" style="stroke: #000000; stroke-width: 0.8"/>
      </defs>
      <g>
       <use xlink:href="#m61891daf04" x="42.942969" y="282.768389" style="stroke: #000000; stroke-width: 0.8"/>
      </g>
     </g>
     <g id="text_7">
      <!-- −2 -->
      <g transform="translate(21.200781 286.567217) scale(0.1 -0.1)">
       <defs>
        <path id="DejaVuSans-c9c" d="M 678 2272 
L 4684 2272 
L 4684 1741 
L 678 1741 
L 678 2272 
z
" transform="scale(0.015625)"/>
        <path id="DejaVuSans-15" d="M 1228 531 
L 3431 531 
L 3431 0 
L 469 0 
L 469 531 
Q 828 903 1448 1529 
Q 2069 2156 2228 2338 
Q 2531 2678 2651 2914 
Q 2772 3150 2772 3378 
Q 2772 3750 2511 3984 
Q 2250 4219 1831 4219 
Q 1534 4219 1204 4116 
Q 875 4013 500 3803 
L 500 4441 
Q 881 4594 1212 4672 
Q 1544 4750 1819 4750 
Q 2544 4750 2975 4387 
Q 3406 4025 3406 3419 
Q 3406 3131 3298 2873 
Q 3191 2616 2906 2266 
Q 2828 2175 2409 1742 
Q 1991 1309 1228 531 
z
" transform="scale(0.015625)"/>
       </defs>
       <use xlink:href="#DejaVuSans-c9c"/>
       <use xlink:href="#DejaVuSans-15" transform="translate(83.796875 0)"/>
      </g>
     </g>
    </g>
    <g id="ytick_2">
     <g id="line2d_9">
      <path d="M 42.942969 229.523032 
L 740.900625 229.523032 
" clip-path="url(#p1d7eec7d4c)" style="fill: none; stroke: #b0b0b0; stroke-opacity: 0.15; stroke-width: 0.8; stroke-linecap: square"/>
     </g>
     <g id="line2d_10">
      <g>
       <use xlink:href="#m61891daf04" x="42.942969" y="229.523032" style="stroke: #000000; stroke-width: 0.8"/>
      </g>
     </g>
     <g id="text_8">
      <!-- −1 -->
      <g transform="translate(21.200781 233.321861) scale(0.1 -0.1)">
       <defs>
        <path id="DejaVuSans-14" d="M 794 531 
L 1825 531 
L 1825 4091 
L 703 3866 
L 703 4441 
L 1819 4666 
L 2450 4666 
L 2450 531 
L 3481 531 
L 3481 0 
L 794 0 
L 794 531 
z
" transform="scale(0.015625)"/>
       </defs>
       <use xlink:href="#DejaVuSans-c9c"/>
       <use xlink:href="#DejaVuSans-14" transform="translate(83.796875 0)"/>
      </g>
     </g>
    </g>
    <g id="ytick_3">
     <g id="line2d_11">
      <path d="M 42.942969 176.277676 
L 740.900625 176.277676 
" clip-path="url(#p1d7eec7d4c)" style="fill: none; stroke: #b0b0b0; stroke-opacity: 0.15; stroke-width: 0.8; stroke-linecap: square"/>
     </g>
     <g id="line2d_12">
      <g>
       <use xlink:href="#m61891daf04" x="42.942969" y="176.277676" style="stroke: #000000; stroke-width: 0.8"/>
      </g>
     </g>
     <g id="text_9">
      <!-- 0 -->
      <g transform="translate(29.580469 180.076504) scale(0.1 -0.1)">
       <defs>
        <path id="DejaVuSans-13" d="M 2034 4250 
Q 1547 4250 1301 3770 
Q 1056 3291 1056 2328 
Q 1056 1369 1301 889 
Q 1547 409 2034 409 
Q 2525 409 2770 889 
Q 3016 1369 3016 2328 
Q 3016 3291 2770 3770 
Q 2525 4250 2034 4250 
z
M 2034 4750 
Q 2819 4750 3233 4129 
Q 3647 3509 3647 2328 
Q 3647 1150 3233 529 
Q 2819 -91 2034 -91 
Q 1250 -91 836 529 
Q 422 1150 422 2328 
Q 422 3509 836 4129 
Q 1250 4750 2034 4750 
z
" transform="scale(0.015625)"/>
       </defs>
       <use xlink:href="#DejaVuSans-13"/>
      </g>
     </g>
    </g>
    <g id="ytick_4">
     <g id="line2d_13">
      <path d="M 42.942969 123.03232 
L 740.900625 123.03232 
" clip-path="url(#p1d7eec7d4c)" style="fill: none; stroke: #b0b0b0; stroke-opacity: 0.15; stroke-width: 0.8; stroke-linecap: square"/>
     </g>
     <g id="line2d_14">
      <g>
       <use xlink:href="#m61891daf04" x="42.942969" y="123.03232" style="stroke: #000000; stroke-width: 0.8"/>
      </g>
     </g>
     <g id="text_10">
      <!-- 1 -->
      <g transform="translate(29.580469 126.831148) scale(0.1 -0.1)">
       <use xlink:href="#DejaVuSans-14"/>
      </g>
     </g>
    </g>
    <g id="ytick_5">
     <g id="line2d_15">
      <path d="M 42.942969 69.786963 
L 740.900625 69.786963 
" clip-path="url(#p1d7eec7d4c)" style="fill: none; stroke: #b0b0b0; stroke-opacity: 0.15; stroke-width: 0.8; stroke-linecap: square"/>
     </g>
     <g id="line2d_16">
      <g>
       <use xlink:href="#m61891daf04" x="42.942969" y="69.786963" style="stroke: #000000; stroke-width: 0.8"/>
      </g>
     </g>
     <g id="text_11">
      <!-- 2 -->
      <g transform="translate(29.580469 73.585791) scale(0.1 -0.1)">
       <use xlink:href="#DejaVuSans-15"/>
      </g>
     </g>
    </g>
    <g id="text_12">
     <!-- relative emphasis  (z across foundations) -->
     <g transform="translate(14.798438 271.098754) rotate(-90) scale(0.1 -0.1)">
      <defs>
       <path id="DejaVuSans-59" d="M 191 3500 
L 800 3500 
L 1894 563 
L 2988 3500 
L 3597 3500 
L 2284 0 
L 1503 0 
L 191 3500 
z
" transform="scale(0.015625)"/>
       <path id="DejaVuSans-3" transform="scale(0.015625)"/>
       <path id="DejaVuSans-50" d="M 3328 2828 
Q 3544 3216 3844 3400 
Q 4144 3584 4550 3584 
Q 5097 3584 5394 3201 
Q 5691 2819 5691 2113 
L 5691 0 
L 5113 0 
L 5113 2094 
Q 5113 2597 4934 2840 
Q 4756 3084 4391 3084 
Q 3944 3084 3684 2787 
Q 3425 2491 3425 1978 
L 3425 0 
L 2847 0 
L 2847 2094 
Q 2847 2600 2669 2842 
Q 2491 3084 2119 3084 
Q 1678 3084 1418 2786 
Q 1159 2488 1159 1978 
L 1159 0 
L 581 0 
L 581 3500 
L 1159 3500 
L 1159 2956 
Q 1356 3278 1631 3431 
Q 1906 3584 2284 3584 
Q 2666 3584 2933 3390 
Q 3200 3197 3328 2828 
z
" transform="scale(0.015625)"/>
       <path id="DejaVuSans-53" d="M 1159 525 
L 1159 -1331 
L 581 -1331 
L 581 3500 
L 1159 3500 
L 1159 2969 
Q 1341 3281 1617 3432 
Q 1894 3584 2278 3584 
Q 2916 3584 3314 3078 
Q 3713 2572 3713 1747 
Q 3713 922 3314 415 
Q 2916 -91 2278 -91 
Q 1894 -91 1617 61 
Q 1341 213 1159 525 
z
M 3116 1747 
Q 3116 2381 2855 2742 
Q 2594 3103 2138 3103 
Q 1681 3103 1420 2742 
Q 1159 2381 1159 1747 
Q 1159 1113 1420 752 
Q 1681 391 2138 391 
Q 2594 391 2855 752 
Q 3116 1113 3116 1747 
z
" transform="scale(0.015625)"/>
       <path id="DejaVuSans-b" d="M 1984 4856 
Q 1566 4138 1362 3434 
Q 1159 2731 1159 2009 
Q 1159 1288 1364 580 
Q 1569 -128 1984 -844 
L 1484 -844 
Q 1016 -109 783 600 
Q 550 1309 550 2009 
Q 550 2706 781 3412 
Q 1013 4119 1484 4856 
L 1984 4856 
z
" transform="scale(0.015625)"/>
       <path id="DejaVuSans-5d" d="M 353 3500 
L 3084 3500 
L 3084 2975 
L 922 459 
L 3084 459 
L 3084 0 
L 275 0 
L 275 525 
L 2438 3041 
L 353 3041 
L 353 3500 
z
" transform="scale(0.015625)"/>
       <path id="DejaVuSans-49" d="M 2375 4863 
L 2375 4384 
L 1825 4384 
Q 1516 4384 1395 4259 
Q 1275 4134 1275 3809 
L 1275 3500 
L 2222 3500 
L 2222 3053 
L 1275 3053 
L 1275 0 
L 697 0 
L 697 3053 
L 147 3053 
L 147 3500 
L 697 3500 
L 697 3744 
Q 697 4328 969 4595 
Q 1241 4863 1831 4863 
L 2375 4863 
z
" transform="scale(0.015625)"/>
       <path id="DejaVuSans-47" d="M 2906 2969 
L 2906 4863 
L 3481 4863 
L 3481 0 
L 2906 0 
L 2906 525 
Q 2725 213 2448 61 
Q 2172 -91 1784 -91 
Q 1150 -91 751 415 
Q 353 922 353 1747 
Q 353 2572 751 3078 
Q 1150 3584 1784 3584 
Q 2172 3584 2448 3432 
Q 2725 3281 2906 2969 
z
M 947 1747 
Q 947 1113 1208 752 
Q 1469 391 1925 391 
Q 2381 391 2643 752 
Q 2906 1113 2906 1747 
Q 2906 2381 2643 2742 
Q 2381 3103 1925 3103 
Q 1469 3103 1208 2742 
Q 947 2381 947 1747 
z
" transform="scale(0.015625)"/>
       <path id="DejaVuSans-c" d="M 513 4856 
L 1013 4856 
Q 1481 4119 1714 3412 
Q 1947 2706 1947 2009 
Q 1947 1309 1714 600 
Q 1481 -109 1013 -844 
L 513 -844 
Q 928 -128 1133 580 
Q 1338 1288 1338 2009 
Q 1338 2731 1133 3434 
Q 928 4138 513 4856 
z
" transform="scale(0.015625)"/>
      </defs>
      <use xlink:href="#DejaVuSans-55"/>
      <use xlink:href="#DejaVuSans-48" transform="translate(38.90625 0)"/>
      <use xlink:href="#DejaVuSans-4f" transform="translate(100.4375 0)"/>
      <use xlink:href="#DejaVuSans-44" transform="translate(128.21875 0)"/>
      <use xlink:href="#DejaVuSans-57" transform="translate(189.5 0)"/>
      <use xlink:href="#DejaVuSans-4c" transform="translate(228.703125 0)"/>
      <use xlink:href="#DejaVuSans-59" transform="translate(256.484375 0)"/>
      <use xlink:href="#DejaVuSans-48" transform="translate(315.671875 0)"/>
      <use xlink:href="#DejaVuSans-3" transform="translate(377.203125 0)"/>
      <use xlink:href="#DejaVuSans-48" transform="translate(408.984375 0)"/>
      <use xlink:href="#DejaVuSans-50" transform="translate(470.515625 0)"/>
      <use xlink:href="#DejaVuSans-53" transform="translate(567.921875 0)"/>
      <use xlink:href="#DejaVuSans-4b" transform="translate(631.40625 0)"/>
      <use xlink:href="#DejaVuSans-44" transform="translate(694.78125 0)"/>
      <use xlink:href="#DejaVuSans-56" transform="translate(756.0625 0)"/>
      <use xlink:href="#DejaVuSans-4c" transform="translate(808.15625 0)"/>
      <use xlink:href="#DejaVuSans-56" transform="translate(835.9375 0)"/>
      <use xlink:href="#DejaVuSans-3" transform="translate(888.03125 0)"/>
      <use xlink:href="#DejaVuSans-3" transform="translate(919.8125 0)"/>
      <use xlink:href="#DejaVuSans-b" transform="translate(951.59375 0)"/>
      <use xlink:href="#DejaVuSans-5d" transform="translate(990.609375 0)"/>
      <use xlink:href="#DejaVuSans-3" transform="translate(1043.09375 0)"/>
      <use xlink:href="#DejaVuSans-44" transform="translate(1074.875 0)"/>
      <use xlink:href="#DejaVuSans-46" transform="translate(1136.15625 0)"/>
      <use xlink:href="#DejaVuSans-55" transform="translate(1191.140625 0)"/>
      <use xlink:href="#DejaVuSans-52" transform="translate(1230.046875 0)"/>
      <use xlink:href="#DejaVuSans-56" transform="translate(1291.234375 0)"/>
      <use xlink:href="#DejaVuSans-56" transform="translate(1343.328125 0)"/>
      <use xlink:href="#DejaVuSans-3" transform="translate(1395.421875 0)"/>
      <use xlink:href="#DejaVuSans-49" transform="translate(1427.203125 0)"/>
      <use xlink:href="#DejaVuSans-52" transform="translate(1462.40625 0)"/>
      <use xlink:href="#DejaVuSans-58" transform="translate(1523.59375 0)"/>
      <use xlink:href="#DejaVuSans-51" transform="translate(1586.96875 0)"/>
      <use xlink:href="#DejaVuSans-47" transform="translate(1650.34375 0)"/>
      <use xlink:href="#DejaVuSans-44" transform="translate(1713.828125 0)"/>
      <use xlink:href="#DejaVuSans-57" transform="translate(1775.109375 0)"/>
      <use xlink:href="#DejaVuSans-4c" transform="translate(1814.3125 0)"/>
      <use xlink:href="#DejaVuSans-52" transform="translate(1842.09375 0)"/>
      <use xlink:href="#DejaVuSans-51" transform="translate(1903.28125 0)"/>
      <use xlink:href="#DejaVuSans-56" transform="translate(1966.65625 0)"/>
      <use xlink:href="#DejaVuSans-c" transform="translate(2018.75 0)"/>
     </g>
    </g>
   </g>
   <g id="patch_3">
    <path d="M 42.942969 302.091763 
L 42.942969 34.329182 
" style="fill: none; stroke: #000000; stroke-width: 0.8; stroke-linejoin: miter; stroke-linecap: square"/>
   </g>
   <g id="patch_4">
    <path d="M 42.942969 302.091763 
L 740.900625 302.091763 
" style="fill: none; stroke: #000000; stroke-width: 0.8; stroke-linejoin: miter; stroke-linecap: square"/>
   </g>
   <g id="PathCollection_1">
    <defs>
     <path id="mf63ebc5138" d="M 0 2.44949 
C 0.649612 2.44949 1.272706 2.191396 1.732051 1.732051 
C 2.191396 1.272706 2.44949 0.649612 2.44949 0 
C 2.44949 -0.649612 2.191396 -1.272706 1.732051 -1.732051 
C 1.272706 -2.191396 0.649612 -2.44949 0 -2.44949 
C -0.649612 -2.44949 -1.272706 -2.191396 -1.732051 -1.732051 
C -2.191396 -1.272706 -2.44949 -0.649612 -2.44949 0 
C -2.44949 0.649612 -2.191396 1.272706 -1.732051 1.732051 
C -1.272706 2.191396 -0.649612 2.44949 0 2.44949 
z
" style="stroke: #ffffff; stroke-opacity: 0.9; stroke-width: 0.3"/>
    </defs>
    <g clip-path="url(#p1d7eec7d4c)">
     <use xlink:href="#mf63ebc5138" x="78.185063" y="144.500759" style="fill: #616161; fill-opacity: 0.9; stroke: #ffffff; stroke-opacity: 0.9; stroke-width: 0.3"/>
     <use xlink:href="#mf63ebc5138" x="73.603654" y="136.357134" style="fill: #616161; fill-opacity: 0.9; stroke: #ffffff; stroke-opacity: 0.9; stroke-width: 0.3"/>
     <use xlink:href="#mf63ebc5138" x="70.748648" y="136.013685" style="fill: #616161; fill-opacity: 0.9; stroke: #ffffff; stroke-opacity: 0.9; stroke-width: 0.3"/>
     <use xlink:href="#mf63ebc5138" x="70.443625" y="132.221423" style="fill: #616161; fill-opacity: 0.9; stroke: #ffffff; stroke-opacity: 0.9; stroke-width: 0.3"/>
     <use xlink:href="#mf63ebc5138" x="80.384945" y="128.18757" style="fill: #616161; fill-opacity: 0.9; stroke: #ffffff; stroke-opacity: 0.9; stroke-width: 0.3"/>
     <use xlink:href="#mf63ebc5138" x="81.626269" y="124.232067" style="fill: #616161; fill-opacity: 0.9; stroke: #ffffff; stroke-opacity: 0.9; stroke-width: 0.3"/>
     <use xlink:href="#mf63ebc5138" x="77.806673" y="114.919489" style="fill: #616161; fill-opacity: 0.9; stroke: #ffffff; stroke-opacity: 0.9; stroke-width: 0.3"/>
     <use xlink:href="#mf63ebc5138" x="79.339663" y="110.213495" style="fill: #616161; fill-opacity: 0.9; stroke: #ffffff; stroke-opacity: 0.9; stroke-width: 0.3"/>
    </g>
   </g>
   <g id="PathCollection_2">
    <g clip-path="url(#p1d7eec7d4c)">
     <use xlink:href="#mf63ebc5138" x="197.895807" y="214.390582" style="fill: #616161; fill-opacity: 0.9; stroke: #ffffff; stroke-opacity: 0.9; stroke-width: 0.3"/>
     <use xlink:href="#mf63ebc5138" x="202.780075" y="191.974387" style="fill: #616161; fill-opacity: 0.9; stroke: #ffffff; stroke-opacity: 0.9; stroke-width: 0.3"/>
     <use xlink:href="#mf63ebc5138" x="201.292527" y="191.14785" style="fill: #616161; fill-opacity: 0.9; stroke: #ffffff; stroke-opacity: 0.9; stroke-width: 0.3"/>
     <use xlink:href="#mf63ebc5138" x="191.14692" y="165.345889" style="fill: #616161; fill-opacity: 0.9; stroke: #ffffff; stroke-opacity: 0.9; stroke-width: 0.3"/>
     <use xlink:href="#mf63ebc5138" x="201.810974" y="160.990017" style="fill: #616161; fill-opacity: 0.9; stroke: #ffffff; stroke-opacity: 0.9; stroke-width: 0.3"/>
     <use xlink:href="#mf63ebc5138" x="191.531813" y="154.8528" style="fill: #616161; fill-opacity: 0.9; stroke: #ffffff; stroke-opacity: 0.9; stroke-width: 0.3"/>
     <use xlink:href="#mf63ebc5138" x="200.216994" y="145.184699" style="fill: #616161; fill-opacity: 0.9; stroke: #ffffff; stroke-opacity: 0.9; stroke-width: 0.3"/>
     <use xlink:href="#mf63ebc5138" x="193.304486" y="113.544061" style="fill: #616161; fill-opacity: 0.9; stroke: #ffffff; stroke-opacity: 0.9; stroke-width: 0.3"/>
    </g>
   </g>
   <g id="PathCollection_3">
    <g clip-path="url(#p1d7eec7d4c)">
     <use xlink:href="#mf63ebc5138" x="322.758375" y="237.966542" style="fill: #616161; fill-opacity: 0.9; stroke: #ffffff; stroke-opacity: 0.9; stroke-width: 0.3"/>
     <use xlink:href="#mf63ebc5138" x="318.744157" y="237.926079" style="fill: #616161; fill-opacity: 0.9; stroke: #ffffff; stroke-opacity: 0.9; stroke-width: 0.3"/>
     <use xlink:href="#mf63ebc5138" x="315.727741" y="232.410588" style="fill: #616161; fill-opacity: 0.9; stroke: #ffffff; stroke-opacity: 0.9; stroke-width: 0.3"/>
     <use xlink:href="#mf63ebc5138" x="317.26216" y="226.893199" style="fill: #616161; fill-opacity: 0.9; stroke: #ffffff; stroke-opacity: 0.9; stroke-width: 0.3"/>
     <use xlink:href="#mf63ebc5138" x="312.341456" y="213.107036" style="fill: #616161; fill-opacity: 0.9; stroke: #ffffff; stroke-opacity: 0.9; stroke-width: 0.3"/>
     <use xlink:href="#mf63ebc5138" x="313.538838" y="206.97739" style="fill: #616161; fill-opacity: 0.9; stroke: #ffffff; stroke-opacity: 0.9; stroke-width: 0.3"/>
     <use xlink:href="#mf63ebc5138" x="320.355785" y="203.615205" style="fill: #616161; fill-opacity: 0.9; stroke: #ffffff; stroke-opacity: 0.9; stroke-width: 0.3"/>
     <use xlink:href="#mf63ebc5138" x="320.063377" y="199.166104" style="fill: #616161; fill-opacity: 0.9; stroke: #ffffff; stroke-opacity: 0.9; stroke-width: 0.3"/>
    </g>
   </g>
   <g id="PathCollection_4">
    <g clip-path="url(#p1d7eec7d4c)">
     <use xlink:href="#mf63ebc5138" x="440.541887" y="281.008095" style="fill: #616161; fill-opacity: 0.9; stroke: #ffffff; stroke-opacity: 0.9; stroke-width: 0.3"/>
     <use xlink:href="#mf63ebc5138" x="437.650767" y="264.383066" style="fill: #616161; fill-opacity: 0.9; stroke: #ffffff; stroke-opacity: 0.9; stroke-width: 0.3"/>
     <use xlink:href="#mf63ebc5138" x="445.30609" y="261.23839" style="fill: #616161; fill-opacity: 0.9; stroke: #ffffff; stroke-opacity: 0.9; stroke-width: 0.3"/>
     <use xlink:href="#mf63ebc5138" x="445.101776" y="261.08388" style="fill: #616161; fill-opacity: 0.9; stroke: #ffffff; stroke-opacity: 0.9; stroke-width: 0.3"/>
     <use xlink:href="#mf63ebc5138" x="441.417267" y="257.583949" style="fill: #616161; fill-opacity: 0.9; stroke: #ffffff; stroke-opacity: 0.9; stroke-width: 0.3"/>
     <use xlink:href="#mf63ebc5138" x="440.979524" y="252.61107" style="fill: #616161; fill-opacity: 0.9; stroke: #ffffff; stroke-opacity: 0.9; stroke-width: 0.3"/>
     <use xlink:href="#mf63ebc5138" x="441.45351" y="247.86158" style="fill: #616161; fill-opacity: 0.9; stroke: #ffffff; stroke-opacity: 0.9; stroke-width: 0.3"/>
     <use xlink:href="#mf63ebc5138" x="437.716197" y="247.2958" style="fill: #616161; fill-opacity: 0.9; stroke: #ffffff; stroke-opacity: 0.9; stroke-width: 0.3"/>
    </g>
   </g>
   <g id="PathCollection_5">
    <g clip-path="url(#p1d7eec7d4c)">
     <use xlink:href="#mf63ebc5138" x="555.424456" y="146.891967" style="fill: #616161; fill-opacity: 0.9; stroke: #ffffff; stroke-opacity: 0.9; stroke-width: 0.3"/>
     <use xlink:href="#mf63ebc5138" x="562.741134" y="145.987334" style="fill: #616161; fill-opacity: 0.9; stroke: #ffffff; stroke-opacity: 0.9; stroke-width: 0.3"/>
     <use xlink:href="#mf63ebc5138" x="560.29388" y="139.399029" style="fill: #616161; fill-opacity: 0.9; stroke: #ffffff; stroke-opacity: 0.9; stroke-width: 0.3"/>
     <use xlink:href="#mf63ebc5138" x="557.609825" y="120.37041" style="fill: #616161; fill-opacity: 0.9; stroke: #ffffff; stroke-opacity: 0.9; stroke-width: 0.3"/>
     <use xlink:href="#mf63ebc5138" x="559.800784" y="118.609458" style="fill: #616161; fill-opacity: 0.9; stroke: #ffffff; stroke-opacity: 0.9; stroke-width: 0.3"/>
     <use xlink:href="#mf63ebc5138" x="564.83734" y="117.177705" style="fill: #616161; fill-opacity: 0.9; stroke: #ffffff; stroke-opacity: 0.9; stroke-width: 0.3"/>
     <use xlink:href="#mf63ebc5138" x="565.393282" y="95.690927" style="fill: #616161; fill-opacity: 0.9; stroke: #ffffff; stroke-opacity: 0.9; stroke-width: 0.3"/>
     <use xlink:href="#mf63ebc5138" x="558.203169" y="91.778616" style="fill: #616161; fill-opacity: 0.9; stroke: #ffffff; stroke-opacity: 0.9; stroke-width: 0.3"/>
    </g>
   </g>
   <g id="PathCollection_6">
    <g clip-path="url(#p1d7eec7d4c)">
     <use xlink:href="#mf63ebc5138" x="681.745382" y="212.273164" style="fill: #616161; fill-opacity: 0.9; stroke: #ffffff; stroke-opacity: 0.9; stroke-width: 0.3"/>
     <use xlink:href="#mf63ebc5138" x="678.630255" y="199.746557" style="fill: #616161; fill-opacity: 0.9; stroke: #ffffff; stroke-opacity: 0.9; stroke-width: 0.3"/>
     <use xlink:href="#mf63ebc5138" x="682.029496" y="182.033872" style="fill: #616161; fill-opacity: 0.9; stroke: #ffffff; stroke-opacity: 0.9; stroke-width: 0.3"/>
     <use xlink:href="#mf63ebc5138" x="678.830416" y="158.611128" style="fill: #616161; fill-opacity: 0.9; stroke: #ffffff; stroke-opacity: 0.9; stroke-width: 0.3"/>
     <use xlink:href="#mf63ebc5138" x="679.500552" y="153.876247" style="fill: #616161; fill-opacity: 0.9; stroke: #ffffff; stroke-opacity: 0.9; stroke-width: 0.3"/>
     <use xlink:href="#mf63ebc5138" x="685.722502" y="131.779362" style="fill: #616161; fill-opacity: 0.9; stroke: #ffffff; stroke-opacity: 0.9; stroke-width: 0.3"/>
     <use xlink:href="#mf63ebc5138" x="677.448492" y="130.291486" style="fill: #616161; fill-opacity: 0.9; stroke: #ffffff; stroke-opacity: 0.9; stroke-width: 0.3"/>
     <use xlink:href="#mf63ebc5138" x="682.389933" y="121.607303" style="fill: #616161; fill-opacity: 0.9; stroke: #ffffff; stroke-opacity: 0.9; stroke-width: 0.3"/>
    </g>
   </g>
   <g id="line2d_17">
    <path d="M 64.778516 130.204496 
L 88.173744 130.204496 
" clip-path="url(#p1d7eec7d4c)" style="fill: none; stroke: #262626; stroke-width: 1.5; stroke-linecap: square"/>
   </g>
   <g id="line2d_18">
    <path d="M 185.653864 163.167953 
L 209.049093 163.167953 
" clip-path="url(#p1d7eec7d4c)" style="fill: none; stroke: #262626; stroke-width: 1.5; stroke-linecap: square"/>
   </g>
   <g id="line2d_19">
    <path d="M 306.529212 220.000117 
L 329.924441 220.000117 
" clip-path="url(#p1d7eec7d4c)" style="fill: none; stroke: #262626; stroke-width: 1.5; stroke-linecap: square"/>
   </g>
   <g id="line2d_20">
    <path d="M 427.40456 259.333915 
L 450.799789 259.333915 
" clip-path="url(#p1d7eec7d4c)" style="fill: none; stroke: #262626; stroke-width: 1.5; stroke-linecap: square"/>
   </g>
   <g id="line2d_21">
    <path d="M 548.279909 119.489934 
L 571.675137 119.489934 
" clip-path="url(#p1d7eec7d4c)" style="fill: none; stroke: #262626; stroke-width: 1.5; stroke-linecap: square"/>
   </g>
   <g id="line2d_22">
    <path d="M 669.155257 156.243687 
L 692.550486 156.243687 
" clip-path="url(#p1d7eec7d4c)" style="fill: none; stroke: #262626; stroke-width: 1.5; stroke-linecap: square"/>
   </g>
   <g id="text_13">
    <!-- Argentina -->
    <g style="fill: #404040" transform="translate(59.403239 106.934494) scale(0.07 -0.07)">
     <defs>
      <path id="DejaVuSans-4a" d="M 2906 1791 
Q 2906 2416 2648 2759 
Q 2391 3103 1925 3103 
Q 1463 3103 1205 2759 
Q 947 2416 947 1791 
Q 947 1169 1205 825 
Q 1463 481 1925 481 
Q 2391 481 2648 825 
Q 2906 1169 2906 1791 
z
M 3481 434 
Q 3481 -459 3084 -895 
Q 2688 -1331 1869 -1331 
Q 1566 -1331 1297 -1286 
Q 1028 -1241 775 -1147 
L 775 -588 
Q 1028 -725 1275 -790 
Q 1522 -856 1778 -856 
Q 2344 -856 2625 -561 
Q 2906 -266 2906 331 
L 2906 616 
Q 2728 306 2450 153 
Q 2172 0 1784 0 
Q 1141 0 747 490 
Q 353 981 353 1791 
Q 353 2603 747 3093 
Q 1141 3584 1784 3584 
Q 2172 3584 2450 3431 
Q 2728 3278 2906 2969 
L 2906 3500 
L 3481 3500 
L 3481 434 
z
" transform="scale(0.015625)"/>
     </defs>
     <use xlink:href="#DejaVuSans-24"/>
     <use xlink:href="#DejaVuSans-55" transform="translate(68.40625 0)"/>
     <use xlink:href="#DejaVuSans-4a" transform="translate(107.765625 0)"/>
     <use xlink:href="#DejaVuSans-48" transform="translate(171.25 0)"/>
     <use xlink:href="#DejaVuSans-51" transform="translate(232.78125 0)"/>
     <use xlink:href="#DejaVuSans-57" transform="translate(296.15625 0)"/>
     <use xlink:href="#DejaVuSans-4c" transform="translate(335.359375 0)"/>
     <use xlink:href="#DejaVuSans-51" transform="translate(363.140625 0)"/>
     <use xlink:href="#DejaVuSans-44" transform="translate(426.515625 0)"/>
    </g>
   </g>
   <g id="text_14">
    <!-- US -->
    <g style="fill: #404040" transform="translate(71.692614 151.416479) scale(0.07 -0.07)">
     <defs>
      <path id="DejaVuSans-38" d="M 556 4666 
L 1191 4666 
L 1191 1831 
Q 1191 1081 1462 751 
Q 1734 422 2344 422 
Q 2950 422 3222 751 
Q 3494 1081 3494 1831 
L 3494 4666 
L 4128 4666 
L 4128 1753 
Q 4128 841 3676 375 
Q 3225 -91 2344 -91 
Q 1459 -91 1007 375 
Q 556 841 556 1753 
L 556 4666 
z
" transform="scale(0.015625)"/>
     </defs>
     <use xlink:href="#DejaVuSans-38"/>
     <use xlink:href="#DejaVuSans-36" transform="translate(73.1875 0)"/>
    </g>
   </g>
   <g id="text_15">
    <!-- US -->
    <g style="fill: #404040" transform="translate(192.567963 110.26506) scale(0.07 -0.07)">
     <use xlink:href="#DejaVuSans-38"/>
     <use xlink:href="#DejaVuSans-36" transform="translate(73.1875 0)"/>
    </g>
   </g>
   <g id="text_16">
    <!-- Brazil -->
    <g style="fill: #404040" transform="translate(187.584838 221.306849) scale(0.07 -0.07)">
     <defs>
      <path id="DejaVuSans-25" d="M 1259 2228 
L 1259 519 
L 2272 519 
Q 2781 519 3026 730 
Q 3272 941 3272 1375 
Q 3272 1813 3026 2020 
Q 2781 2228 2272 2228 
L 1259 2228 
z
M 1259 4147 
L 1259 2741 
L 2194 2741 
Q 2656 2741 2882 2914 
Q 3109 3088 3109 3444 
Q 3109 3797 2882 3972 
Q 2656 4147 2194 4147 
L 1259 4147 
z
M 628 4666 
L 2241 4666 
Q 2963 4666 3353 4366 
Q 3744 4066 3744 3513 
Q 3744 3084 3544 2831 
Q 3344 2578 2956 2516 
Q 3422 2416 3680 2098 
Q 3938 1781 3938 1306 
Q 3938 681 3513 340 
Q 3088 0 2303 0 
L 628 0 
L 628 4666 
z
" transform="scale(0.015625)"/>
     </defs>
     <use xlink:href="#DejaVuSans-25"/>
     <use xlink:href="#DejaVuSans-55" transform="translate(68.609375 0)"/>
     <use xlink:href="#DejaVuSans-44" transform="translate(109.71875 0)"/>
     <use xlink:href="#DejaVuSans-5d" transform="translate(171 0)"/>
     <use xlink:href="#DejaVuSans-4c" transform="translate(223.484375 0)"/>
     <use xlink:href="#DejaVuSans-4f" transform="translate(251.265625 0)"/>
    </g>
   </g>
   <g id="text_17">
    <!-- Japan -->
    <g style="fill: #404040" transform="translate(308.464561 195.887103) scale(0.07 -0.07)">
     <defs>
      <path id="DejaVuSans-2d" d="M 628 4666 
L 1259 4666 
L 1259 325 
Q 1259 -519 939 -900 
Q 619 -1281 -91 -1281 
L -331 -1281 
L -331 -750 
L -134 -750 
Q 284 -750 456 -515 
Q 628 -281 628 325 
L 628 4666 
z
" transform="scale(0.015625)"/>
     </defs>
     <use xlink:href="#DejaVuSans-2d"/>
     <use xlink:href="#DejaVuSans-44" transform="translate(29.5 0)"/>
     <use xlink:href="#DejaVuSans-53" transform="translate(90.78125 0)"/>
     <use xlink:href="#DejaVuSans-44" transform="translate(154.265625 0)"/>
     <use xlink:href="#DejaVuSans-51" transform="translate(215.546875 0)"/>
    </g>
   </g>
   <g id="text_18">
    <!-- Netherlands -->
    <g style="fill: #404040" transform="translate(296.891592 244.882809) scale(0.07 -0.07)">
     <defs>
      <path id="DejaVuSans-31" d="M 628 4666 
L 1478 4666 
L 3547 763 
L 3547 4666 
L 4159 4666 
L 4159 0 
L 3309 0 
L 1241 3903 
L 1241 0 
L 628 0 
L 628 4666 
z
" transform="scale(0.015625)"/>
     </defs>
     <use xlink:href="#DejaVuSans-31"/>
     <use xlink:href="#DejaVuSans-48" transform="translate(74.8125 0)"/>
     <use xlink:href="#DejaVuSans-57" transform="translate(136.34375 0)"/>
     <use xlink:href="#DejaVuSans-4b" transform="translate(175.546875 0)"/>
     <use xlink:href="#DejaVuSans-48" transform="translate(238.921875 0)"/>
     <use xlink:href="#DejaVuSans-55" transform="translate(300.453125 0)"/>
     <use xlink:href="#DejaVuSans-4f" transform="translate(341.5625 0)"/>
     <use xlink:href="#DejaVuSans-44" transform="translate(369.34375 0)"/>
     <use xlink:href="#DejaVuSans-51" transform="translate(430.625 0)"/>
     <use xlink:href="#DejaVuSans-47" transform="translate(494 0)"/>
     <use xlink:href="#DejaVuSans-56" transform="translate(557.484375 0)"/>
    </g>
   </g>
   <g id="text_19">
    <!-- Peru -->
    <g style="fill: #404040" transform="translate(431.305925 244.016799) scale(0.07 -0.07)">
     <defs>
      <path id="DejaVuSans-33" d="M 1259 4147 
L 1259 2394 
L 2053 2394 
Q 2494 2394 2734 2622 
Q 2975 2850 2975 3272 
Q 2975 3691 2734 3919 
Q 2494 4147 2053 4147 
L 1259 4147 
z
M 628 4666 
L 2053 4666 
Q 2838 4666 3239 4311 
Q 3641 3956 3641 3272 
Q 3641 2581 3239 2228 
Q 2838 1875 2053 1875 
L 1259 1875 
L 1259 0 
L 628 0 
L 628 4666 
z
" transform="scale(0.015625)"/>
     </defs>
     <use xlink:href="#DejaVuSans-33"/>
     <use xlink:href="#DejaVuSans-48" transform="translate(56.734375 0)"/>
     <use xlink:href="#DejaVuSans-55" transform="translate(118.265625 0)"/>
     <use xlink:href="#DejaVuSans-58" transform="translate(159.375 0)"/>
    </g>
   </g>
   <g id="text_20">
    <!-- Japan -->
    <g style="fill: #404040" transform="translate(429.339909 287.923815) scale(0.07 -0.07)">
     <use xlink:href="#DejaVuSans-2d"/>
     <use xlink:href="#DejaVuSans-44" transform="translate(29.5 0)"/>
     <use xlink:href="#DejaVuSans-53" transform="translate(90.78125 0)"/>
     <use xlink:href="#DejaVuSans-44" transform="translate(154.265625 0)"/>
     <use xlink:href="#DejaVuSans-51" transform="translate(215.546875 0)"/>
    </g>
   </g>
   <g id="text_21">
    <!-- Peru -->
    <g style="fill: #404040" transform="translate(552.181273 88.499615) scale(0.07 -0.07)">
     <use xlink:href="#DejaVuSans-33"/>
     <use xlink:href="#DejaVuSans-48" transform="translate(56.734375 0)"/>
     <use xlink:href="#DejaVuSans-55" transform="translate(118.265625 0)"/>
     <use xlink:href="#DejaVuSans-58" transform="translate(159.375 0)"/>
    </g>
   </g>
   <g id="text_22">
    <!-- Australia -->
    <g style="fill: #404040" transform="translate(544.496586 153.808234) scale(0.07 -0.07)">
     <use xlink:href="#DejaVuSans-24"/>
     <use xlink:href="#DejaVuSans-58" transform="translate(68.40625 0)"/>
     <use xlink:href="#DejaVuSans-56" transform="translate(131.78125 0)"/>
     <use xlink:href="#DejaVuSans-57" transform="translate(183.875 0)"/>
     <use xlink:href="#DejaVuSans-55" transform="translate(223.078125 0)"/>
     <use xlink:href="#DejaVuSans-44" transform="translate(264.1875 0)"/>
     <use xlink:href="#DejaVuSans-4f" transform="translate(325.46875 0)"/>
     <use xlink:href="#DejaVuSans-4c" transform="translate(353.25 0)"/>
     <use xlink:href="#DejaVuSans-44" transform="translate(381.03125 0)"/>
    </g>
   </g>
   <g id="text_23">
    <!-- Netherlands -->
    <g style="fill: #404040" transform="translate(659.517637 118.328302) scale(0.07 -0.07)">
     <use xlink:href="#DejaVuSans-31"/>
     <use xlink:href="#DejaVuSans-48" transform="translate(74.8125 0)"/>
     <use xlink:href="#DejaVuSans-57" transform="translate(136.34375 0)"/>
     <use xlink:href="#DejaVuSans-4b" transform="translate(175.546875 0)"/>
     <use xlink:href="#DejaVuSans-48" transform="translate(238.921875 0)"/>
     <use xlink:href="#DejaVuSans-55" transform="translate(300.453125 0)"/>
     <use xlink:href="#DejaVuSans-4f" transform="translate(341.5625 0)"/>
     <use xlink:href="#DejaVuSans-44" transform="translate(369.34375 0)"/>
     <use xlink:href="#DejaVuSans-51" transform="translate(430.625 0)"/>
     <use xlink:href="#DejaVuSans-47" transform="translate(494 0)"/>
     <use xlink:href="#DejaVuSans-56" transform="translate(557.484375 0)"/>
    </g>
   </g>
   <g id="text_24">
    <!-- Peru -->
    <g style="fill: #404040" transform="translate(673.056621 219.188884) scale(0.07 -0.07)">
     <use xlink:href="#DejaVuSans-33"/>
     <use xlink:href="#DejaVuSans-48" transform="translate(56.734375 0)"/>
     <use xlink:href="#DejaVuSans-55" transform="translate(118.265625 0)"/>
     <use xlink:href="#DejaVuSans-58" transform="translate(159.375 0)"/>
    </g>
   </g>
   <g id="line2d_23">
    <path d="M 92.85279 70.171417 
L 92.85279 73.319463 
L 103.770563 81.280848 
" clip-path="url(#p1d7eec7d4c)" style="fill: none; stroke: #2c6fbb; stroke-opacity: 0.9; stroke-width: 2; stroke-linecap: round"/>
   </g>
   <g id="line2d_24">
    <path d="M 103.770563 81.280848 
L 114.688337 90.730763 
L 114.688337 101.648681 
" clip-path="url(#p1d7eec7d4c)" style="fill: none; stroke: #c0392b; stroke-opacity: 0.9; stroke-width: 2; stroke-linecap: round"/>
   </g>
   <g id="line2d_25">
    <path d="M 213.728138 188.583479 
L 213.728138 194.079684 
L 224.645912 195.04385 
" clip-path="url(#p1d7eec7d4c)" style="fill: none; stroke: #2c6fbb; stroke-opacity: 0.9; stroke-width: 2; stroke-linecap: round"/>
   </g>
   <g id="line2d_26">
    <path d="M 224.645912 195.04385 
L 235.563685 192.233521 
L 235.563685 191.426352 
" clip-path="url(#p1d7eec7d4c)" style="fill: none; stroke: #c0392b; stroke-opacity: 0.9; stroke-width: 2; stroke-linecap: round"/>
   </g>
   <g id="line2d_27">
    <path d="M 334.603487 182.869851 
L 334.603487 166.332757 
L 345.52126 155.828402 
" clip-path="url(#p1d7eec7d4c)" style="fill: none; stroke: #2c6fbb; stroke-opacity: 0.9; stroke-width: 2; stroke-linecap: round"/>
   </g>
   <g id="line2d_28">
    <path d="M 345.52126 155.828402 
L 356.439033 141.981885 
L 356.439033 120.398582 
" clip-path="url(#p1d7eec7d4c)" style="fill: none; stroke: #c0392b; stroke-opacity: 0.9; stroke-width: 2; stroke-linecap: round"/>
   </g>
   <g id="line2d_29">
    <path d="M 455.478835 242.395591 
L 455.478835 240.908986 
L 466.396608 246.615171 
" clip-path="url(#p1d7eec7d4c)" style="fill: none; stroke: #2c6fbb; stroke-opacity: 0.9; stroke-width: 2; stroke-linecap: round"/>
   </g>
   <g id="line2d_30">
    <path d="M 466.396608 246.615171 
L 477.314382 253.272533 
L 477.314382 244.964479 
" clip-path="url(#p1d7eec7d4c)" style="fill: none; stroke: #c0392b; stroke-opacity: 0.9; stroke-width: 2; stroke-linecap: round"/>
   </g>
   <g id="line2d_31">
    <path d="M 576.354183 164.879754 
L 576.354183 165.504985 
L 587.271957 158.454188 
" clip-path="url(#p1d7eec7d4c)" style="fill: none; stroke: #2c6fbb; stroke-opacity: 0.9; stroke-width: 2; stroke-linecap: round"/>
   </g>
   <g id="line2d_32">
    <path d="M 587.271957 158.454188 
L 598.18973 158.326659 
L 598.18973 165.835865 
" clip-path="url(#p1d7eec7d4c)" style="fill: none; stroke: #c0392b; stroke-opacity: 0.9; stroke-width: 2; stroke-linecap: round"/>
   </g>
   <g id="line2d_33">
    <path d="M 697.229531 208.765964 
L 697.229531 217.520181 
L 708.147305 220.443596 
" clip-path="url(#p1d7eec7d4c)" style="fill: none; stroke: #2c6fbb; stroke-opacity: 0.9; stroke-width: 2; stroke-linecap: round"/>
   </g>
   <g id="line2d_34">
    <path d="M 708.147305 220.443596 
L 719.065078 221.120695 
L 719.065078 233.392097 
" clip-path="url(#p1d7eec7d4c)" style="fill: none; stroke: #c0392b; stroke-opacity: 0.9; stroke-width: 2; stroke-linecap: round"/>
   </g>
   <g id="PathCollection_7">
    <defs>
     <path id="m9b10988bd2" d="M 0 2.12132 
C 0.562581 2.12132 1.102195 1.897805 1.5 1.5 
C 1.897805 1.102195 2.12132 0.562581 2.12132 0 
C 2.12132 -0.562581 1.897805 -1.102195 1.5 -1.5 
C 1.102195 -1.897805 0.562581 -2.12132 0 -2.12132 
C -0.562581 -2.12132 -1.102195 -1.897805 -1.5 -1.5 
C -1.897805 -1.102195 -2.12132 -0.562581 -2.12132 0 
C -2.12132 0.562581 -1.897805 1.102195 -1.5 1.5 
C -1.102195 1.897805 -0.562581 2.12132 0 2.12132 
z
" style="stroke: #ffffff; stroke-width: 0.45"/>
    </defs>
    <g clip-path="url(#p1d7eec7d4c)">
     <use xlink:href="#m9b10988bd2" x="92.85279" y="70.171417" style="fill: #2c6fbb; stroke: #ffffff; stroke-width: 0.45"/>
    </g>
   </g>
   <g id="PathCollection_8">
    <g clip-path="url(#p1d7eec7d4c)">
     <use xlink:href="#m9b10988bd2" x="92.85279" y="73.319463" style="fill: #2c6fbb; stroke: #ffffff; stroke-width: 0.45"/>
    </g>
   </g>
   <g id="PathCollection_9">
    <defs>
     <path id="m99332c6de6" d="M 0 2.12132 
C 0.562581 2.12132 1.102195 1.897805 1.5 1.5 
C 1.897805 1.102195 2.12132 0.562581 2.12132 0 
C 2.12132 -0.562581 1.897805 -1.102195 1.5 -1.5 
C 1.102195 -1.897805 0.562581 -2.12132 0 -2.12132 
C -0.562581 -2.12132 -1.102195 -1.897805 -1.5 -1.5 
C -1.897805 -1.102195 -2.12132 -0.562581 -2.12132 0 
C -2.12132 0.562581 -1.897805 1.102195 -1.5 1.5 
C -1.102195 1.897805 -0.562581 2.12132 0 2.12132 
z
" style="stroke: #ffffff; stroke-width: 0.45"/>
    </defs>
    <g clip-path="url(#p1d7eec7d4c)">
     <use xlink:href="#m99332c6de6" x="103.770563" y="81.280848" style="stroke: #ffffff; stroke-width: 0.45"/>
    </g>
   </g>
   <g id="PathCollection_10">
    <defs>
     <path id="m9b9e517bdc" d="M 0 2.12132 
C 0.562581 2.12132 1.102195 1.897805 1.5 1.5 
C 1.897805 1.102195 2.12132 0.562581 2.12132 0 
C 2.12132 -0.562581 1.897805 -1.102195 1.5 -1.5 
C 1.102195 -1.897805 0.562581 -2.12132 0 -2.12132 
C -0.562581 -2.12132 -1.102195 -1.897805 -1.5 -1.5 
C -1.897805 -1.102195 -2.12132 -0.562581 -2.12132 0 
C -2.12132 0.562581 -1.897805 1.102195 -1.5 1.5 
C -1.102195 1.897805 -0.562581 2.12132 0 2.12132 
z
" style="stroke: #ffffff; stroke-width: 0.45"/>
    </defs>
    <g clip-path="url(#p1d7eec7d4c)">
     <use xlink:href="#m9b9e517bdc" x="114.688337" y="90.730763" style="fill: #c0392b; stroke: #ffffff; stroke-width: 0.45"/>
    </g>
   </g>
   <g id="PathCollection_11">
    <g clip-path="url(#p1d7eec7d4c)">
     <use xlink:href="#m9b9e517bdc" x="114.688337" y="101.648681" style="fill: #c0392b; stroke: #ffffff; stroke-width: 0.45"/>
    </g>
   </g>
   <g id="PathCollection_12">
    <g clip-path="url(#p1d7eec7d4c)">
     <use xlink:href="#m9b10988bd2" x="213.728138" y="188.583479" style="fill: #2c6fbb; stroke: #ffffff; stroke-width: 0.45"/>
    </g>
   </g>
   <g id="PathCollection_13">
    <g clip-path="url(#p1d7eec7d4c)">
     <use xlink:href="#m9b10988bd2" x="213.728138" y="194.079684" style="fill: #2c6fbb; stroke: #ffffff; stroke-width: 0.45"/>
    </g>
   </g>
   <g id="PathCollection_14">
    <g clip-path="url(#p1d7eec7d4c)">
     <use xlink:href="#m99332c6de6" x="224.645912" y="195.04385" style="stroke: #ffffff; stroke-width: 0.45"/>
    </g>
   </g>
   <g id="PathCollection_15">
    <g clip-path="url(#p1d7eec7d4c)">
     <use xlink:href="#m9b9e517bdc" x="235.563685" y="192.233521" style="fill: #c0392b; stroke: #ffffff; stroke-width: 0.45"/>
    </g>
   </g>
   <g id="PathCollection_16">
    <g clip-path="url(#p1d7eec7d4c)">
     <use xlink:href="#m9b9e517bdc" x="235.563685" y="191.426352" style="fill: #c0392b; stroke: #ffffff; stroke-width: 0.45"/>
    </g>
   </g>
   <g id="PathCollection_17">
    <g clip-path="url(#p1d7eec7d4c)">
     <use xlink:href="#m9b10988bd2" x="334.603487" y="182.869851" style="fill: #2c6fbb; stroke: #ffffff; stroke-width: 0.45"/>
    </g>
   </g>
   <g id="PathCollection_18">
    <g clip-path="url(#p1d7eec7d4c)">
     <use xlink:href="#m9b10988bd2" x="334.603487" y="166.332757" style="fill: #2c6fbb; stroke: #ffffff; stroke-width: 0.45"/>
    </g>
   </g>
   <g id="PathCollection_19">
    <g clip-path="url(#p1d7eec7d4c)">
     <use xlink:href="#m99332c6de6" x="345.52126" y="155.828402" style="stroke: #ffffff; stroke-width: 0.45"/>
    </g>
   </g>
   <g id="PathCollection_20">
    <g clip-path="url(#p1d7eec7d4c)">
     <use xlink:href="#m9b9e517bdc" x="356.439033" y="141.981885" style="fill: #c0392b; stroke: #ffffff; stroke-width: 0.45"/>
    </g>
   </g>
   <g id="PathCollection_21">
    <g clip-path="url(#p1d7eec7d4c)">
     <use xlink:href="#m9b9e517bdc" x="356.439033" y="120.398582" style="fill: #c0392b; stroke: #ffffff; stroke-width: 0.45"/>
    </g>
   </g>
   <g id="PathCollection_22">
    <g clip-path="url(#p1d7eec7d4c)">
     <use xlink:href="#m9b10988bd2" x="455.478835" y="242.395591" style="fill: #2c6fbb; stroke: #ffffff; stroke-width: 0.45"/>
    </g>
   </g>
   <g id="PathCollection_23">
    <g clip-path="url(#p1d7eec7d4c)">
     <use xlink:href="#m9b10988bd2" x="455.478835" y="240.908986" style="fill: #2c6fbb; stroke: #ffffff; stroke-width: 0.45"/>
    </g>
   </g>
   <g id="PathCollection_24">
    <g clip-path="url(#p1d7eec7d4c)">
     <use xlink:href="#m99332c6de6" x="466.396608" y="246.615171" style="stroke: #ffffff; stroke-width: 0.45"/>
    </g>
   </g>
   <g id="PathCollection_25">
    <g clip-path="url(#p1d7eec7d4c)">
     <use xlink:href="#m9b9e517bdc" x="477.314382" y="253.272533" style="fill: #c0392b; stroke: #ffffff; stroke-width: 0.45"/>
    </g>
   </g>
   <g id="PathCollection_26">
    <g clip-path="url(#p1d7eec7d4c)">
     <use xlink:href="#m9b9e517bdc" x="477.314382" y="244.964479" style="fill: #c0392b; stroke: #ffffff; stroke-width: 0.45"/>
    </g>
   </g>
   <g id="PathCollection_27">
    <g clip-path="url(#p1d7eec7d4c)">
     <use xlink:href="#m9b10988bd2" x="576.354183" y="164.879754" style="fill: #2c6fbb; stroke: #ffffff; stroke-width: 0.45"/>
    </g>
   </g>
   <g id="PathCollection_28">
    <g clip-path="url(#p1d7eec7d4c)">
     <use xlink:href="#m9b10988bd2" x="576.354183" y="165.504985" style="fill: #2c6fbb; stroke: #ffffff; stroke-width: 0.45"/>
    </g>
   </g>
   <g id="PathCollection_29">
    <g clip-path="url(#p1d7eec7d4c)">
     <use xlink:href="#m99332c6de6" x="587.271957" y="158.454188" style="stroke: #ffffff; stroke-width: 0.45"/>
    </g>
   </g>
   <g id="PathCollection_30">
    <g clip-path="url(#p1d7eec7d4c)">
     <use xlink:href="#m9b9e517bdc" x="598.18973" y="158.326659" style="fill: #c0392b; stroke: #ffffff; stroke-width: 0.45"/>
    </g>
   </g>
   <g id="PathCollection_31">
    <g clip-path="url(#p1d7eec7d4c)">
     <use xlink:href="#m9b9e517bdc" x="598.18973" y="165.835865" style="fill: #c0392b; stroke: #ffffff; stroke-width: 0.45"/>
    </g>
   </g>
   <g id="PathCollection_32">
    <g clip-path="url(#p1d7eec7d4c)">
     <use xlink:href="#m9b10988bd2" x="697.229531" y="208.765964" style="fill: #2c6fbb; stroke: #ffffff; stroke-width: 0.45"/>
    </g>
   </g>
   <g id="PathCollection_33">
    <g clip-path="url(#p1d7eec7d4c)">
     <use xlink:href="#m9b10988bd2" x="697.229531" y="217.520181" style="fill: #2c6fbb; stroke: #ffffff; stroke-width: 0.45"/>
    </g>
   </g>
   <g id="PathCollection_34">
    <g clip-path="url(#p1d7eec7d4c)">
     <use xlink:href="#m99332c6de6" x="708.147305" y="220.443596" style="stroke: #ffffff; stroke-width: 0.45"/>
    </g>
   </g>
   <g id="PathCollection_35">
    <g clip-path="url(#p1d7eec7d4c)">
     <use xlink:href="#m9b9e517bdc" x="719.065078" y="221.120695" style="fill: #c0392b; stroke: #ffffff; stroke-width: 0.45"/>
    </g>
   </g>
   <g id="PathCollection_36">
    <g clip-path="url(#p1d7eec7d4c)">
     <use xlink:href="#m9b9e517bdc" x="719.065078" y="233.392097" style="fill: #c0392b; stroke: #ffffff; stroke-width: 0.45"/>
    </g>
   </g>
   <g id="text_25">
    <!-- c=+1 -->
    <g style="fill: #c0392b" transform="translate(368.916489 122.164988) scale(0.068 -0.068)">
     <defs>
      <path id="DejaVuSans-20" d="M 678 2906 
L 4684 2906 
L 4684 2381 
L 678 2381 
L 678 2906 
z
M 678 1631 
L 4684 1631 
L 4684 1100 
L 678 1100 
L 678 1631 
z
" transform="scale(0.015625)"/>
      <path id="DejaVuSans-e" d="M 2944 4013 
L 2944 2272 
L 4684 2272 
L 4684 1741 
L 2944 1741 
L 2944 0 
L 2419 0 
L 2419 1741 
L 678 1741 
L 678 2272 
L 2419 2272 
L 2419 4013 
L 2944 4013 
z
" transform="scale(0.015625)"/>
     </defs>
     <use xlink:href="#DejaVuSans-46"/>
     <use xlink:href="#DejaVuSans-20" transform="translate(54.984375 0)"/>
     <use xlink:href="#DejaVuSans-e" transform="translate(138.78125 0)"/>
     <use xlink:href="#DejaVuSans-14" transform="translate(222.578125 0)"/>
    </g>
   </g>
   <g id="text_26">
    <!-- c=-1 -->
    <g style="fill: #2c6fbb" transform="translate(368.916489 184.636258) scale(0.068 -0.068)">
     <defs>
      <path id="DejaVuSans-10" d="M 313 2009 
L 1997 2009 
L 1997 1497 
L 313 1497 
L 313 2009 
z
" transform="scale(0.015625)"/>
     </defs>
     <use xlink:href="#DejaVuSans-46"/>
     <use xlink:href="#DejaVuSans-20" transform="translate(54.984375 0)"/>
     <use xlink:href="#DejaVuSans-10" transform="translate(138.78125 0)"/>
     <use xlink:href="#DejaVuSans-14" transform="translate(174.859375 0)"/>
    </g>
   </g>
   <g id="line2d_35">
    <path d="M 60.879311 51.73375 
L 60.879311 43.700872 
L 92.072949 43.700872 
L 92.072949 51.73375 
" style="fill: none; stroke: #616161; stroke-width: 0.8; stroke-linecap: square"/>
   </g>
   <g id="text_27">
    <!-- human -->
    <g style="fill: #616161" transform="translate(62.029255 38.685963) scale(0.075 -0.075)">
     <defs>
      <path id="DejaVuSans-Bold-4b" d="M 4056 2131 
L 4056 0 
L 2931 0 
L 2931 347 
L 2931 1625 
Q 2931 2084 2911 2256 
Q 2891 2428 2841 2509 
Q 2775 2619 2662 2680 
Q 2550 2741 2406 2741 
Q 2056 2741 1856 2470 
Q 1656 2200 1656 1722 
L 1656 0 
L 538 0 
L 538 4863 
L 1656 4863 
L 1656 2988 
Q 1909 3294 2193 3439 
Q 2478 3584 2822 3584 
Q 3428 3584 3742 3212 
Q 4056 2841 4056 2131 
z
" transform="scale(0.015625)"/>
      <path id="DejaVuSans-Bold-58" d="M 500 1363 
L 500 3500 
L 1625 3500 
L 1625 3150 
Q 1625 2866 1622 2436 
Q 1619 2006 1619 1863 
Q 1619 1441 1641 1255 
Q 1663 1069 1716 984 
Q 1784 875 1895 815 
Q 2006 756 2150 756 
Q 2500 756 2700 1025 
Q 2900 1294 2900 1772 
L 2900 3500 
L 4019 3500 
L 4019 0 
L 2900 0 
L 2900 506 
Q 2647 200 2364 54 
Q 2081 -91 1741 -91 
Q 1134 -91 817 281 
Q 500 653 500 1363 
z
" transform="scale(0.015625)"/>
      <path id="DejaVuSans-Bold-50" d="M 3781 2919 
Q 3994 3244 4286 3414 
Q 4578 3584 4928 3584 
Q 5531 3584 5847 3212 
Q 6163 2841 6163 2131 
L 6163 0 
L 5038 0 
L 5038 1825 
Q 5041 1866 5042 1909 
Q 5044 1953 5044 2034 
Q 5044 2406 4934 2573 
Q 4825 2741 4581 2741 
Q 4263 2741 4089 2478 
Q 3916 2216 3909 1719 
L 3909 0 
L 2784 0 
L 2784 1825 
Q 2784 2406 2684 2573 
Q 2584 2741 2328 2741 
Q 2006 2741 1831 2477 
Q 1656 2213 1656 1722 
L 1656 0 
L 531 0 
L 531 3500 
L 1656 3500 
L 1656 2988 
Q 1863 3284 2130 3434 
Q 2397 3584 2719 3584 
Q 3081 3584 3359 3409 
Q 3638 3234 3781 2919 
z
" transform="scale(0.015625)"/>
      <path id="DejaVuSans-Bold-44" d="M 2106 1575 
Q 1756 1575 1579 1456 
Q 1403 1338 1403 1106 
Q 1403 894 1545 773 
Q 1688 653 1941 653 
Q 2256 653 2472 879 
Q 2688 1106 2688 1447 
L 2688 1575 
L 2106 1575 
z
M 3816 1997 
L 3816 0 
L 2688 0 
L 2688 519 
Q 2463 200 2181 54 
Q 1900 -91 1497 -91 
Q 953 -91 614 226 
Q 275 544 275 1050 
Q 275 1666 698 1953 
Q 1122 2241 2028 2241 
L 2688 2241 
L 2688 2328 
Q 2688 2594 2478 2717 
Q 2269 2841 1825 2841 
Q 1466 2841 1156 2769 
Q 847 2697 581 2553 
L 581 3406 
Q 941 3494 1303 3539 
Q 1666 3584 2028 3584 
Q 2975 3584 3395 3211 
Q 3816 2838 3816 1997 
z
" transform="scale(0.015625)"/>
      <path id="DejaVuSans-Bold-51" d="M 4056 2131 
L 4056 0 
L 2931 0 
L 2931 347 
L 2931 1631 
Q 2931 2084 2911 2256 
Q 2891 2428 2841 2509 
Q 2775 2619 2662 2680 
Q 2550 2741 2406 2741 
Q 2056 2741 1856 2470 
Q 1656 2200 1656 1722 
L 1656 0 
L 538 0 
L 538 3500 
L 1656 3500 
L 1656 2988 
Q 1909 3294 2193 3439 
Q 2478 3584 2822 3584 
Q 3428 3584 3742 3212 
Q 4056 2841 4056 2131 
z
" transform="scale(0.015625)"/>
     </defs>
     <use xlink:href="#DejaVuSans-Bold-4b"/>
     <use xlink:href="#DejaVuSans-Bold-58" transform="translate(71.1875 0)"/>
     <use xlink:href="#DejaVuSans-Bold-50" transform="translate(142.375 0)"/>
     <use xlink:href="#DejaVuSans-Bold-44" transform="translate(246.578125 0)"/>
     <use xlink:href="#DejaVuSans-Bold-51" transform="translate(314.0625 0)"/>
    </g>
   </g>
   <g id="line2d_36">
    <path d="M 95.972154 51.73375 
L 95.972154 43.700872 
L 111.568973 43.700872 
L 111.568973 51.73375 
" style="fill: none; stroke: #262626; stroke-width: 0.8; stroke-linecap: square"/>
   </g>
   <g id="text_28">
    <!-- AI -->
    <g style="fill: #262626" transform="translate(99.473298 38.685963) scale(0.075 -0.075)">
     <defs>
      <path id="DejaVuSans-Bold-24" d="M 3419 850 
L 1538 850 
L 1241 0 
L 31 0 
L 1759 4666 
L 3194 4666 
L 4922 0 
L 3713 0 
L 3419 850 
z
M 1838 1716 
L 3116 1716 
L 2478 3572 
L 1838 1716 
z
" transform="scale(0.015625)"/>
      <path id="DejaVuSans-Bold-2c" d="M 588 4666 
L 1791 4666 
L 1791 0 
L 588 0 
L 588 4666 
z
" transform="scale(0.015625)"/>
     </defs>
     <use xlink:href="#DejaVuSans-Bold-24"/>
     <use xlink:href="#DejaVuSans-Bold-2c" transform="translate(77.390625 0)"/>
    </g>
   </g>
  </g>
  <g id="text_29">
   <!-- Steered MFV vignettes: Authority steer, PCA (+c = more Authority) -->
   <g transform="translate(188.897188 15.558281) scale(0.11 -0.11)">
    <defs>
     <path id="DejaVuSans-30" d="M 628 4666 
L 1569 4666 
L 2759 1491 
L 3956 4666 
L 4897 4666 
L 4897 0 
L 4281 0 
L 4281 4097 
L 3078 897 
L 2444 897 
L 1241 4097 
L 1241 0 
L 628 0 
L 628 4666 
z
" transform="scale(0.015625)"/>
     <path id="DejaVuSans-39" d="M 1831 0 
L 50 4666 
L 709 4666 
L 2188 738 
L 3669 4666 
L 4325 4666 
L 2547 0 
L 1831 0 
z
" transform="scale(0.015625)"/>
     <path id="DejaVuSans-1d" d="M 750 794 
L 1409 794 
L 1409 0 
L 750 0 
L 750 794 
z
M 750 3309 
L 1409 3309 
L 1409 2516 
L 750 2516 
L 750 3309 
z
" transform="scale(0.015625)"/>
     <path id="DejaVuSans-f" d="M 750 794 
L 1409 794 
L 1409 256 
L 897 -744 
L 494 -744 
L 750 256 
L 750 794 
z
" transform="scale(0.015625)"/>
    </defs>
    <use xlink:href="#DejaVuSans-36"/>
    <use xlink:href="#DejaVuSans-57" transform="translate(63.484375 0)"/>
    <use xlink:href="#DejaVuSans-48" transform="translate(102.6875 0)"/>
    <use xlink:href="#DejaVuSans-48" transform="translate(164.21875 0)"/>
    <use xlink:href="#DejaVuSans-55" transform="translate(225.75 0)"/>
    <use xlink:href="#DejaVuSans-48" transform="translate(264.65625 0)"/>
    <use xlink:href="#DejaVuSans-47" transform="translate(326.1875 0)"/>
    <use xlink:href="#DejaVuSans-3" transform="translate(389.671875 0)"/>
    <use xlink:href="#DejaVuSans-30" transform="translate(421.453125 0)"/>
    <use xlink:href="#DejaVuSans-29" transform="translate(507.734375 0)"/>
    <use xlink:href="#DejaVuSans-39" transform="translate(565.25 0)"/>
    <use xlink:href="#DejaVuSans-3" transform="translate(633.65625 0)"/>
    <use xlink:href="#DejaVuSans-59" transform="translate(665.4375 0)"/>
    <use xlink:href="#DejaVuSans-4c" transform="translate(724.625 0)"/>
    <use xlink:href="#DejaVuSans-4a" transform="translate(752.40625 0)"/>
    <use xlink:href="#DejaVuSans-51" transform="translate(815.890625 0)"/>
    <use xlink:href="#DejaVuSans-48" transform="translate(879.265625 0)"/>
    <use xlink:href="#DejaVuSans-57" transform="translate(940.796875 0)"/>
    <use xlink:href="#DejaVuSans-57" transform="translate(980 0)"/>
    <use xlink:href="#DejaVuSans-48" transform="translate(1019.203125 0)"/>
    <use xlink:href="#DejaVuSans-56" transform="translate(1080.734375 0)"/>
    <use xlink:href="#DejaVuSans-1d" transform="translate(1132.828125 0)"/>
    <use xlink:href="#DejaVuSans-3" transform="translate(1166.515625 0)"/>
    <use xlink:href="#DejaVuSans-24" transform="translate(1198.296875 0)"/>
    <use xlink:href="#DejaVuSans-58" transform="translate(1266.703125 0)"/>
    <use xlink:href="#DejaVuSans-57" transform="translate(1330.078125 0)"/>
    <use xlink:href="#DejaVuSans-4b" transform="translate(1369.28125 0)"/>
    <use xlink:href="#DejaVuSans-52" transform="translate(1432.65625 0)"/>
    <use xlink:href="#DejaVuSans-55" transform="translate(1493.84375 0)"/>
    <use xlink:href="#DejaVuSans-4c" transform="translate(1534.953125 0)"/>
    <use xlink:href="#DejaVuSans-57" transform="translate(1562.734375 0)"/>
    <use xlink:href="#DejaVuSans-5c" transform="translate(1601.9375 0)"/>
    <use xlink:href="#DejaVuSans-3" transform="translate(1661.125 0)"/>
    <use xlink:href="#DejaVuSans-56" transform="translate(1692.90625 0)"/>
    <use xlink:href="#DejaVuSans-57" transform="translate(1745 0)"/>
    <use xlink:href="#DejaVuSans-48" transform="translate(1784.203125 0)"/>
    <use xlink:href="#DejaVuSans-48" transform="translate(1845.734375 0)"/>
    <use xlink:href="#DejaVuSans-55" transform="translate(1907.265625 0)"/>
    <use xlink:href="#DejaVuSans-f" transform="translate(1948.375 0)"/>
    <use xlink:href="#DejaVuSans-3" transform="translate(1980.15625 0)"/>
    <use xlink:href="#DejaVuSans-33" transform="translate(2011.9375 0)"/>
    <use xlink:href="#DejaVuSans-26" transform="translate(2072.234375 0)"/>
    <use xlink:href="#DejaVuSans-24" transform="translate(2142.0625 0)"/>
    <use xlink:href="#DejaVuSans-3" transform="translate(2210.46875 0)"/>
    <use xlink:href="#DejaVuSans-b" transform="translate(2242.25 0)"/>
    <use xlink:href="#DejaVuSans-e" transform="translate(2281.265625 0)"/>
    <use xlink:href="#DejaVuSans-46" transform="translate(2365.0625 0)"/>
    <use xlink:href="#DejaVuSans-3" transform="translate(2420.046875 0)"/>
    <use xlink:href="#DejaVuSans-20" transform="translate(2451.828125 0)"/>
    <use xlink:href="#DejaVuSans-3" transform="translate(2535.625 0)"/>
    <use xlink:href="#DejaVuSans-50" transform="translate(2567.40625 0)"/>
    <use xlink:href="#DejaVuSans-52" transform="translate(2664.8125 0)"/>
    <use xlink:href="#DejaVuSans-55" transform="translate(2726 0)"/>
    <use xlink:href="#DejaVuSans-48" transform="translate(2764.90625 0)"/>
    <use xlink:href="#DejaVuSans-3" transform="translate(2826.4375 0)"/>
    <use xlink:href="#DejaVuSans-24" transform="translate(2858.21875 0)"/>
    <use xlink:href="#DejaVuSans-58" transform="translate(2926.625 0)"/>
    <use xlink:href="#DejaVuSans-57" transform="translate(2990 0)"/>
    <use xlink:href="#DejaVuSans-4b" transform="translate(3029.203125 0)"/>
    <use xlink:href="#DejaVuSans-52" transform="translate(3092.578125 0)"/>
    <use xlink:href="#DejaVuSans-55" transform="translate(3153.765625 0)"/>
    <use xlink:href="#DejaVuSans-4c" transform="translate(3194.875 0)"/>
    <use xlink:href="#DejaVuSans-57" transform="translate(3222.65625 0)"/>
    <use xlink:href="#DejaVuSans-5c" transform="translate(3261.859375 0)"/>
    <use xlink:href="#DejaVuSans-c" transform="translate(3321.046875 0)"/>
   </g>
  </g>
 </g>
 <defs>
  <clipPath id="p1d7eec7d4c">
   <rect x="42.942969" y="34.329182" width="697.957656" height="267.762581"/>
  </clipPath>
 </defs>
</svg>
